<mxfile host="Electron" agent="Mozilla/5.0 (Macintosh; Intel Mac OS X 10_15_7) AppleWebKit/537.36 (KHTML, like Gecko) draw.io/28.0.6 Chrome/138.0.7204.100 Electron/37.2.3 Safari/537.36" version="28.0.6">
  <diagram name="Page-1" id="6B2R0MUfzfU7PcCjaLf7">
    <mxGraphModel dx="4017" dy="1073" grid="1" gridSize="10" guides="1" tooltips="1" connect="1" arrows="1" fold="1" page="1" pageScale="1" pageWidth="2339" pageHeight="3300" math="1" shadow="0">
      <root>
        <mxCell id="0" />
        <mxCell id="1" parent="0" />
        <mxCell id="r_uU76btIgo6J_0ZWzdS-59" style="edgeStyle=orthogonalEdgeStyle;rounded=0;orthogonalLoop=1;jettySize=auto;html=1;strokeWidth=6;" edge="1" parent="1" source="r_uU76btIgo6J_0ZWzdS-13" target="r_uU76btIgo6J_0ZWzdS-24">
          <mxGeometry relative="1" as="geometry" />
        </mxCell>
        <mxCell id="r_uU76btIgo6J_0ZWzdS-13" value="&lt;h1 style=&quot;margin-top: 0px;&quot;&gt;&lt;font style=&quot;font-size: 28px;&quot;&gt;Meta Prompt&lt;/font&gt;&lt;/h1&gt;&lt;div&gt;&lt;font style=&quot;font-size: 28px; color: rgb(0, 0, 0);&quot;&gt;&lt;span style=&quot;text-align: left; background-color: transparent;&quot;&gt;Task Description&lt;/span&gt;&lt;/font&gt;&lt;/div&gt;&lt;div&gt;&lt;span style=&quot;text-align: left;&quot;&gt;&lt;font style=&quot;font-size: 28px; color: rgb(102, 0, 0);&quot;&gt;Top-k Best Prompt-Score Pairs&lt;/font&gt;&lt;/span&gt;&lt;/div&gt;&lt;div&gt;&lt;span style=&quot;text-align: left;&quot;&gt;&lt;font style=&quot;font-size: 28px; color: rgb(102, 0, 0);&quot;&gt;Example Instances&lt;/font&gt;&lt;/span&gt;&lt;/div&gt;&lt;div style=&quot;&quot;&gt;&lt;font style=&quot;font-size: 28px;&quot;&gt;Meta Instruction&lt;/font&gt;&lt;/div&gt;" style="text;html=1;whiteSpace=wrap;overflow=hidden;rounded=1;align=center;strokeWidth=4;fillColor=#f5f5f5;fontColor=#333333;strokeColor=#666666;" vertex="1" parent="1">
          <mxGeometry x="-140" y="965" width="400" height="210" as="geometry" />
        </mxCell>
        <mxCell id="r_uU76btIgo6J_0ZWzdS-21" value="&lt;font style=&quot;font-size: 28px; color: rgb(0, 102, 0);&quot;&gt;\(\vdots\)&lt;/font&gt;" style="text;html=1;align=center;verticalAlign=middle;whiteSpace=wrap;rounded=0;" vertex="1" parent="1">
          <mxGeometry x="1413" y="1319" width="60" height="30" as="geometry" />
        </mxCell>
        <mxCell id="r_uU76btIgo6J_0ZWzdS-22" value="&lt;font style=&quot;font-size: 28px;&quot;&gt;\(\vdots\)&lt;/font&gt;" style="text;html=1;align=center;verticalAlign=middle;whiteSpace=wrap;rounded=0;" vertex="1" parent="1">
          <mxGeometry x="1413" y="1230" width="60" height="30" as="geometry" />
        </mxCell>
        <mxCell id="r_uU76btIgo6J_0ZWzdS-27" style="edgeStyle=orthogonalEdgeStyle;rounded=0;orthogonalLoop=1;jettySize=auto;html=1;entryX=0;entryY=0.5;entryDx=0;entryDy=0;strokeWidth=6;" edge="1" parent="1" source="r_uU76btIgo6J_0ZWzdS-24" target="r_uU76btIgo6J_0ZWzdS-26">
          <mxGeometry relative="1" as="geometry" />
        </mxCell>
        <mxCell id="r_uU76btIgo6J_0ZWzdS-24" value="&lt;font style=&quot;font-size: 28px;&quot;&gt;Optimizer LLM&lt;/font&gt;" style="rounded=1;whiteSpace=wrap;html=1;strokeWidth=6;fillColor=#dae8fc;strokeColor=#6c8ebf;" vertex="1" parent="1">
          <mxGeometry x="390" y="1010" width="200" height="120" as="geometry" />
        </mxCell>
        <mxCell id="r_uU76btIgo6J_0ZWzdS-29" style="edgeStyle=orthogonalEdgeStyle;rounded=0;orthogonalLoop=1;jettySize=auto;html=1;entryX=0;entryY=0.5;entryDx=0;entryDy=0;strokeWidth=6;" edge="1" parent="1" source="r_uU76btIgo6J_0ZWzdS-26" target="r_uU76btIgo6J_0ZWzdS-28">
          <mxGeometry relative="1" as="geometry" />
        </mxCell>
        <mxCell id="r_uU76btIgo6J_0ZWzdS-26" value="&lt;font style=&quot;font-size: 28px; color: rgb(102, 0, 0);&quot;&gt;\(\text{Candidate Prompt}_{i}\)&lt;/font&gt;" style="text;html=1;align=center;verticalAlign=middle;whiteSpace=wrap;rounded=0;" vertex="1" parent="1">
          <mxGeometry x="670" y="1055" width="290" height="30" as="geometry" />
        </mxCell>
        <mxCell id="r_uU76btIgo6J_0ZWzdS-57" style="edgeStyle=orthogonalEdgeStyle;rounded=0;orthogonalLoop=1;jettySize=auto;html=1;entryX=0;entryY=0.5;entryDx=0;entryDy=0;strokeWidth=6;" edge="1" parent="1" source="r_uU76btIgo6J_0ZWzdS-28" target="r_uU76btIgo6J_0ZWzdS-56">
          <mxGeometry relative="1" as="geometry" />
        </mxCell>
        <mxCell id="r_uU76btIgo6J_0ZWzdS-28" value="&lt;font style=&quot;font-size: 28px;&quot;&gt;Scorer LLM&lt;/font&gt;" style="rounded=1;whiteSpace=wrap;html=1;strokeWidth=6;fillColor=#dae8fc;strokeColor=#6c8ebf;" vertex="1" parent="1">
          <mxGeometry x="1030" y="1010" width="200" height="120" as="geometry" />
        </mxCell>
        <mxCell id="r_uU76btIgo6J_0ZWzdS-40" value="&lt;font style=&quot;font-size: 28px;&quot;&gt;Repeat \(N\) Times&lt;/font&gt;" style="text;html=1;align=center;verticalAlign=middle;whiteSpace=wrap;rounded=0;" vertex="1" parent="1">
          <mxGeometry x="702.5" y="1010" width="225" height="30" as="geometry" />
        </mxCell>
        <mxCell id="r_uU76btIgo6J_0ZWzdS-43" value="&lt;span style=&quot;font-family: Helvetica; font-style: normal; font-variant-ligatures: normal; font-variant-caps: normal; font-weight: 400; letter-spacing: normal; orphans: 2; text-align: center; text-indent: 0px; text-transform: none; widows: 2; word-spacing: 0px; -webkit-text-stroke-width: 0px; white-space: normal; background-color: rgb(236, 236, 236); text-decoration-thickness: initial; text-decoration-style: initial; text-decoration-color: initial; float: none; display: inline !important;&quot;&gt;&lt;font style=&quot;font-size: 28px; color: rgb(0, 0, 0);&quot;&gt;\(\text{Candidate Prompt}_{1} \&amp;amp; \text{Score}_{1}\&amp;amp;\text{wordCount}_{1}\)&lt;/font&gt;&lt;/span&gt;" style="text;whiteSpace=wrap;html=1;" vertex="1" parent="1">
          <mxGeometry x="1140.5" y="1175" width="605" height="50" as="geometry" />
        </mxCell>
        <mxCell id="r_uU76btIgo6J_0ZWzdS-54" style="edgeStyle=orthogonalEdgeStyle;rounded=0;orthogonalLoop=1;jettySize=auto;html=1;entryX=0;entryY=0.5;entryDx=0;entryDy=0;strokeWidth=6;exitX=0;exitY=0.5;exitDx=0;exitDy=0;" edge="1" parent="1" source="r_uU76btIgo6J_0ZWzdS-44" target="r_uU76btIgo6J_0ZWzdS-13">
          <mxGeometry relative="1" as="geometry">
            <mxPoint x="820" y="1300" as="sourcePoint" />
            <Array as="points">
              <mxPoint x="-210" y="1294" />
              <mxPoint x="-210" y="1070" />
            </Array>
          </mxGeometry>
        </mxCell>
        <mxCell id="r_uU76btIgo6J_0ZWzdS-44" value="&lt;span style=&quot;font-family: Helvetica; font-style: normal; font-variant-ligatures: normal; font-variant-caps: normal; font-weight: 400; letter-spacing: normal; orphans: 2; text-align: center; text-indent: 0px; text-transform: none; widows: 2; word-spacing: 0px; -webkit-text-stroke-width: 0px; white-space: normal; background-color: rgb(236, 236, 236); text-decoration-thickness: initial; text-decoration-style: initial; text-decoration-color: initial; float: none; display: inline !important;&quot;&gt;&lt;font style=&quot;font-size: 28px; color: rgb(0, 0, 0);&quot;&gt;\(\text{Candidate Prompt}_{j}\&amp;amp;\text{Score}_{j}\&amp;amp;\text{wordCount}_{j}\)&lt;/font&gt;&lt;/span&gt;" style="text;whiteSpace=wrap;html=1;" vertex="1" parent="1">
          <mxGeometry x="1145.5" y="1269" width="600" height="50" as="geometry" />
        </mxCell>
        <mxCell id="r_uU76btIgo6J_0ZWzdS-45" value="&lt;span style=&quot;font-family: Helvetica; font-style: normal; font-variant-ligatures: normal; font-variant-caps: normal; font-weight: 400; letter-spacing: normal; orphans: 2; text-align: center; text-indent: 0px; text-transform: none; widows: 2; word-spacing: 0px; -webkit-text-stroke-width: 0px; white-space: normal; background-color: rgb(236, 236, 236); text-decoration-thickness: initial; text-decoration-style: initial; text-decoration-color: initial; float: none; display: inline !important;&quot;&gt;&lt;font style=&quot;font-size: 28px; color: rgb(102, 0, 0);&quot;&gt;\(\text{Candidate Prompt}_{i+N}\&amp;amp;\text{Score}_{j+N}\&amp;amp;\text{wordCount}_{j+N}\)&lt;/font&gt;&lt;/span&gt;" style="text;whiteSpace=wrap;html=1;" vertex="1" parent="1">
          <mxGeometry x="1083" y="1360" width="720" height="50" as="geometry" />
        </mxCell>
        <mxCell id="r_uU76btIgo6J_0ZWzdS-48" value="&lt;font style=&quot;font-size: 28px;&quot;&gt;Sort the candidate prompts by (Score, Prompt Length) and select the top-k&lt;/font&gt;" style="text;html=1;align=center;verticalAlign=middle;whiteSpace=wrap;rounded=0;" vertex="1" parent="1">
          <mxGeometry x="-10" y="1260" width="950" height="30" as="geometry" />
        </mxCell>
        <mxCell id="r_uU76btIgo6J_0ZWzdS-49" value="&lt;font style=&quot;font-size: 28px;&quot;&gt;Add to&lt;/font&gt;" style="text;html=1;align=center;verticalAlign=middle;whiteSpace=wrap;rounded=0;" vertex="1" parent="1">
          <mxGeometry x="1453" y="1145" width="100" height="30" as="geometry" />
        </mxCell>
        <mxCell id="r_uU76btIgo6J_0ZWzdS-52" value="" style="shape=image;verticalLabelPosition=bottom;labelBackgroundColor=default;verticalAlign=top;aspect=fixed;imageAspect=0;image=data:image/png,iVBORw0KGgoAAAANSUhEUgAAAgAAAAIACAYAAAD0eNT6AAAABHNCSVQICAgIfAhkiAAAAAlwSFlzAAAOxAAADsQBlSsOGwAAABl0RVh0U29mdHdhcmUAd3d3Lmlua3NjYXBlLm9yZ5vuPBoAACAASURBVHic7J13eFRFF4ffu+mdBEIINfQivffeERQpVqQJAjYUuyjYFRU7TcECgoJioSggoDSRIvWTjqF3Qid9vz+GKCVt79y2ybzPs8/nR3bmTLJ775x75pzz01AoFHmdKKAV0ACoCRQHSgChV36eABwFDgB/AX8Ci4Hzlq9UoVAoFAqFFP7A3cBCIAVwe/hKAuYB3QFfi9euUCgUCoXCQ/yBx4DDeL7pZ/WKBwagHAGFQqFQKBxJW2Anxm381782AfUs+20UCoVCoVBkiz/wLpCOeZt/xisVeA7QLPnNFAqFQqFQZEoksATzN/7rX98DQRb8fgqFQqFQKK6jELAZ6zf/jNdSIMz031KhUCgUCsW/FECU7Nm1+We8FgJ+Jv+uCoVCoVAoABcwF/s3/4zXp+b+ugqFQqFQKABGYv+mf/2rj6m/sUKhUCgU+ZyqiCY9dm/417/OAkVN/L0VCoVCocjXrMD+zT6r13QTf2+FQqFQKPItnbF/k8/ulQ7UMe23VygUCoUin/IH9m/yOb1mmvbbKxQKQ1HdvBQKYwlGKO2FX3mdARKBf4BLEvPWADZKr858UoGSwBGd432vjI8FYgAfRM7DMeAgcMiANSoUCpS4h0IhS3ngZqAFIvxdPJv3HgbWIs7x5wA7PLDTX+8CryaieEUqdR1K0drtCCpYFB+/AM4d2smBP+exc95ELhzfL2vCF7gHeCuX7/cBGgNdgWYIRye7DoNnEP0PliL+hpt0r1ShyOeoCIBC4TmBwL3AYOTOvLcAE4HPgYs5vHcXUE6vIZePL7UHvMZNtz2K5vK58Q0aFPO5xNIJT7Fq1sd6zWSwEmiaw3tiEX+/wchVD/wNjAO+BM5LzKNQ5DuUA6BQ5B5fxIb1AiI8bRQJwBvAB4jjguspA+zRO7mmuWjx3NfENeuZ5Xsi/KF4iLgdLPrkRRZ+MlqvORDHAIUQpYHXUwB4CngEY7UETgAvIxyqZAPnVSjyLC67F6BQeAm1EKHnjzF28wch6PMmsA0h6Xs9Upn1VXs9ke3mrwHRgf89C7S97wUqN+kiY9IXqJvJv9+M+B2fxnghoWiEA7UOqGnw3ApFnkQ5AApFzjyMyMCvZrKdOERv/feAgKv+XbfdgPCCVL/r2WzfE+oHAVedCmiaRtdHx+LK7Kgg91S/6r8DgfGIM/siMpPmgmrAn8CDJttRKLwe5QAoFFnjA3wEvM+1G7KZaIjw+AqEQwBQSu9kpZp0xy8oe8G+cL8bTwKjS1agfP3MghG5puyV/y2DyAkYIjOZh/gDH155qXucQpEF6uJQKDLHhUjOe8Am+3URRw5dEUcEuoipmn0ungaE+Wf+swoN2+s1C1AY6AasB2rLTCTBg8AkVK6TQpEpqgxQocicsYhyNjuJBH4k5wqBLAkqmH2CfZAv+GSxPUYVLa3XLEBHoCf2b74DEcmII2xeh0LhOFQEQKG4kb6IMLwT0IBQvYN9/LI/uQjM5pg/KEx34AEgDPs3/wweA+6yexEKhdNQDoBCcS1VEHXl+YLArB7/8x6TgAp2L0KhcBLKAVAo/kNDbP7Bdi/EKvylEv29ihBUPoBCcQ3KAVAo/qMPoqVvviH/BAAA8dn2tnsRCoVTUA6AQiHwAUbavQiryWcOAMAo1H1PoQDUhaBQZNATIeyTr3DlPwegMqK0UqHI96gyQIVCMMiwmTSN0Jg4AsKiSLl0jvOH9+B2pxs2vZE4df8PK1iEImVuIiAknItnTnJw+3pSEmXUlK9hAKK8UqHI1ygHQKEQ7Wlbyk4SFluWarc/SVyzXviHFvj331Mun2f/qh/4e/b7nNr9l6yZPE3ZOi1pP2g0pWs2Q3P9F6BMS0lm62/fs/CTFzkev03WTCdEj4UE2YkUCm9GHQEoFGJDkMqHL99hALdO3EyFToOu2fwB/ILCKNumDzd/+Cf1h4zNsTbfSDRN/yV+9QZsNr7+gdz29HjuH7eEMrVb3GDbx8+fGu1u59Fpf1H35n6y5vyA1rKTKBTejnIAFApoJjO4bJs+NHn0E3wCshe401w+VOk+nE5jlxNaRKrLXq653hnxhMDQCANXkjUFi5XhwU9X0ui2IWha9ocSvv6B9H5+CjXa3S5rtpXsBAqFt6McAIUC6usdGFq4FA0f+ghy2LiuplCFunT7eB0lGpqbi6a5fAgpXFL3+MgiJXPckGW5qcUtPPLleopVyr1cgKZp9HruU8KipFSZq+f8FoUib6McAEV+RwN0P45X7v5wjmp7meEfGkmb0T9QZ+DruHzMScWJLFNd19oyCAqLpHDpKgau6D9cPr50eWgMfcd8T1CY51GKgOBQmt31qMwSKskMVijyAsoBUOR3opHo/Fem5R36LWsa1Xo/Rfs3FhEUFat/niyQWtsVanUwvoV+eHRR7h+3mJZ9npCKMNzUvJvMMgoimfehUHg7ygFQ5HdC9A4MiowxZOMuUr0F3catp0j1ltJzZRAQXpAKneQrGxvddr+sKNA1lK3TiuFT/6JMrebScxUqUV4mUdEF6E+QUCjyAMoBUOR3dKfk+wbq9h1uICiyCB3eXET1O57xKJ8gK+oNflsqATCD4IiCdHnoTel5NE2jdf9nGfzxItmz+39x+fji4+tnyFwKRX5EOQCK/I7u7jJJ5xPA7TZsIZrLh9r9X6XNiz8SEBale57KtzxEuXZ9DVtXg1sH0bD7YN3jg8OjGDB2Lp2GvorLZVzU/dK506QmJ8lMITVYofB2lAOgyO/obgaTfCGBc4d3G7kWAEo0uJmuH6+jUIV6ng3UNKrd/jQNhr5n+Jpue2o8Le4e4fGZfYmb6jN86l9UatLZ8DX9s3GFzPDLwEWDlqJQeCUqCUaR30kGHgGyL+LPAv/QSGJrGF9S7h9agHId+uPjF8DJnetIT8n+YTWiZGVaPPMVFTsP8ugIITpQy9XbNU2jQsP2lKzagIPb13PxzMls3x8YGkH7wS/Se+SnBIfrj2Zkx4IJz3Psn7/1Dv8H+NDA5SgUXodTW4ErFFayAmiiZ2BAWBS3TNxMcMGiBi/pP5IvnGHvkq84uPZnEuK3knLpPJqmEVyoONGVG1KqSXeK1mmnq+tf5QKax4JA7vR0dqxewNbfvmf/1tWcPX4It9tNYGg4RcpUpXLTLtTqeDeBIeEerye3HNqxgff71sWdrltj4Qegu4FLUii8DuUAKBTwAfCQ3sGxNVvT9uW5+PgHGrgka9DjANhN4sVzfNi/Acfjt8tM8wzwhkFLUii8EpUDoFDArzKDj2xcwqKRXUg6f9qo9Siy4GLCCSYOayO7+QMsMWI9CoU342W+v0JhCmHAMXTmAWQQGhNHy5HfeJ68ZyPeFAHYt3U10569nTNH98tOdQgoARhXwqFQeCEqCVChEImAVYBqUpNcPMOeX6cSEBZFoYre4QTkNgnQblZ88wHTn7+Ly+cMibJ8Aiw0YiKFwptRDoBCIUgApIvn3elpHFwzn3OHdlK0Tgd8/PwNWJp5ON0BSLp0nq9H3cvvX72DOz3NiCnTEZ+z7vJPhSKv4OBLX6GwnJVAY6MmiyhZmVbPz6JASXMEdYzAyUcAR3ZvYeozvTixb4eR084Cehs5oULhragIgELxH/uAe42aLOnsSXYv+oLQmFJElnam+qxTIwDr53/J50905/ypo0ZOmwr0Ak4ZOalC4a0oB0Ch+I9/EDKxVY2aMD01hX0rv+dywjGK1m5rmvSvXpzmAKQmJzL7zWEsmPA86akpRk//PjDd6EkVCm/FQZe+QuEIigCbgMJGT1ywfB1ajZxJaJHSRk+tGycdAZw6uIepz/Ti0I4NZky/E6iJaAGsUChQEQCF4nouAOuBuzG4T8bl00fYtfBzIoqXd0xegFMiAH8vn8Pk4Z05ffgfM6a/DNwMSNcPKhR5CeUAKBQ3Eo/IEjdcwSY9JYn45d+SlpxEkeotZPTsDcFuByA9LZV5Hz3Fj+88TEqSKQ/n6UAfJJs9KRR5EeUAKBSZswbRH6CNGZMf/98Kjm1ZRrG6HfALCjPDRK6w0wE4d+IwUx7rysaFX5tlwg3cD0w1y4BC4c0oB0ChyJoVwAmgAya0zb5wbB97l0ynUIU6hMbEGT19rrDLAdi9bgmfPNReRs0vJ5KBQcAUswwoFN6OcgAUiuxZi4gGdEayVXBmpCZeYO+Sr3D5+hFzUxOPpHyNwGoHwJ2ezpLPX2PWywNJunTeLDOngG4IxT+FQpEFDkj/USi8ghLATKChWQaK1+9Csye/ICAsyiwTN2BlFcCls6eYMfpetq+cb6aZ9Yhaf1OyCRWKvISKACgUueMcMA0IBxqYYuDQLv5ZOoPClRsREl3cDBM3YFUE4OD29Ux6sB0H/l5rpplJQE9Uox+FIlcoB0ChyD1pwC/AFqAjEGi0gZRL59i7eBp+QWFEVzYt2PAvVjgAq7+fxJdP9+TSWdP25QuI/v5vID4jhUKRC9QRgEKhj4qIvvJSCoLZUabVXTR6ZAJ+QaFmmTD1CCDp0gW+fW2QmVn+ANsRT/3/M9OIQpEXUREAhUIfp4DPgViglhkGEuK3sH/FbIrUaElQAcMbEwLmRQCOx2/nk4fas2fdUuMn/4+vEMl+h8w0olDkVZQDoFDoJxX4CZFw1hHwM9pA0rlT7F70OcFRsRQsZ7yfYYYD8NcvX/HZiG6cO2HavpwEPA48BRguGKBQ5BfUEYBCYQy1EUcCZcwyULZNHxo/MgGfAOOqEY08AkhNTmLeh0+y4psPjJkwc/Yj5Hz/NNOIQpEfUA6AQmEc4YjGMz3MMlCwXG1ajpxJWKwxfoZRDsCZo/uZ+mxv9m81dV+ei5BrTjDTiEKRX1BHAAqFcSQhogAJiBbChl9fl08fYc+iLwgvXoECJStLz2fEEcC2FXP55KEOnDq4W3o9WZAKvAwMRan5KRSGoRwAhcJ4/gR+R+QFGN7oPy0lifhls0g6n0DRWm3QXPovYxkHID09jUWfvsTsN4eaJeQDcBzoDnyG6O2vUCgMQh0BKBTmEQ1MB9qaZSCmWnNaPjuDoKhYXeP1HgFcSDjO9OfvZtcaU0X2fgfuBI6YaUShyK+oCIBCYR6XEA6AG2iOCQ73xeP72LN4GlHlaurKC9ATAdi7YRmTHmjLkV2bPbaXS9zAhwgZ37NmGVEo8jvKAVAozMUN/IboUd8RUwSFLrJ3yXRwpxNTvTmaBzu6Jw6A2+1mxTcf8PWoPiReMG1fPgvcBbwLpJtlRKFQKAdAobCKXYgEwSZAUcNnd7s5uvl3Lh7fT4mGN6NpuVMvzq0DkJ6exsyX+vHbl2Nwp5u2L69BJE+uNsuAQqH4D+UAKBTWcQb4EigI1DPDwOk9Gzl/eA+lmnTPlbRwbhwAt9vN9JF3smHBDINWmSkfI877lZCPQmERygFQKKwlDZiHiAh0APyNNpAQv4WQwiVz1TkwNw7A6tkT+G3qGINWdwMXgH7AGJSQj0JhKaoKQKGwjyrAt4B8Qf91+IdGctuU7QRGRGf7vpyqAM6fOsqYnhVJvHjO4BUCQsCnJ0LQR6FQWEzuDgoVCoUZ/A3UBwyPrSdfSGDP4mnS86yb+7lZm/9XQAPU5q9Q2IZyABQKe7mAyHp/ANFJ0DD2Lv5Keo4NC6YbsJJrSASGAPcAF42eXKFQ5B7lACgUzmAc0BjYa9SEp/ZsIC05Uff4pEsXOLJ7i1HLASHk0xKYaOSkCoVCH8oBUCicw18IVcHZhszmdnPx5EHdw88eP2DIMq4wF6iJUvFTKByDcgAUCmdxFpEY9ywGZMUnJhzTPfZCwglZ8yCEfJ4CuqFU/BQKR6EcAIXCebiB14HWSPbBd7v1N+0xoOHPcaATosRPCfkoFA5DOQAKhXNZBtQB4m1ehx72AtUBU9WCFAqFfpQDoFA4myOAoYfxFrEf0H/+oFAoTEc5AAqFQqFQ5EOUA6BQKBQKRT5EOQAKhUKhUORDlAOgUCgUCkU+RDkACoVCoVDkQ5QDoFAoFApFPkQ5AAqFQqFQ5EOUA6BQKBQKRT7E1+4F5AFigY5AXaAaUBooBARe+XkyoinKPoTYy0rgN0TPd4VzKQO0QXTiqwYUB4oA/ld+fhI4CuwG1gF/AMuBFMtXmr/wB5oDjRDXXFnENRh15efJiAZEB4EtiM9mMQaqLCpMIRJoBTQBagGlgBKA35WfJyKuub3897n+grgGFTpRDoA+whEa7gMQNyEtm/f6A+WuvNoATyB03xcCnwE/AtJN1xWGEA0MRGjV35TDewtdeVUFbr3yb2cQqnfjgVUmrTG/0hy4H7gZcf1lhT9i4yiBcBIGX/n3rcA0YApgiMqRQhpf4DagP+Le6JfNewMRTnhxxHcBhL7EOsRn+hVw3rSV5lHUEYBnhAGjEK1ZxwP1yH7zz4oAoCtC9nUn4gJQn4V9FAHGIT7X18l588+KAgjnYSXixtTBkNXlbzoDG4DfEU53dpt/dlQF3kB8xh8BMYasTqEHH4Rjthv4BhFBzW7zzwoNcQ8ej4j4jELcoxW5RG06uac3sAsYjf6bUGaURXiw6xDRBIV1uIARiM91KMIxM4o6iBDlL4hwpsIzSiOEhOYBNQ2cNwB4ALH5PIq6B1pNQ2AjMBFjr4twxL15F9DLwHnzNOrLnzOhCC/1G8x9aqiFCBs/h76ogsIzSiCeKt9GfMZm0QHYBNxroo28Rn/E36yNiTZCgbHAEqCYiXYUAhdig16OiMaYRQwwE/gac6/rPIFyALInDpHc1dsie37AK4gvcLBFNvMjdYE/gaYW2YsAvgAmA0EW2fRGgoHPERExq0K5LRDfhVoW2cuPhALfI0L0VuWd3Y64d8dZZM8rUQ5A1pRDPCGa6a1mRU9gARBig+28TlNEFUasDbYHIG5K5W2w7XQqAquBvjbYLgYsQyQNKowlHFGF0c0G21UR9/ByNtj2CpQDkDlFgaVASRvX0BSRUR6Y0xsVuaYu4kzZTseqBrAWkf2sEPRC/E2q2biGUGA+UNvGNeQ1ghB/0/o2rqEk4pinqI1rcCzKAbiRIERpXnG7FwK0BD62exF5hBjE52pkAqdeIoBvEWfQerKf8wr+wPuIIy8nZG8XQHxHou1eSB7hU0Rdv92UAH5CHavegHIAbuRtnJWNPwC4z+5FeDk+wAyc9RSgIbLQf8MZzqbVZCRhPmz3Qq6jODAddW+U5UFE2aZTqIO4tyuuQn3Jr6UjohzMabxD/twkjGIYosuYE2mM6BDZzu6FWEhHxO/c0O6FZEFbRNMhhT5KI3ouOI0hQHu7F+EklAPwH37AezizBC8ceNfuRXgpRRGVFU4mGtEv4AXy9jXpA7yIyMMoZPNacuI1oLDdi/BS3seZCcwa8AH5+9jtGvLyzcZTBiMykZ1KD0QYS+EZT+GMc/+ccCE2x/k4f3PUQ2G8y8kpADxp9yK8kEaILqdOpSIwyO5FOAVvuBCtwAfREc7JaMCzdi/Cy4jB+y72DojweF4qSWuC+J3a2r0QDxlC3nTGzGSk3QvIBSMQ9/x8j3IABF0R51ZOpxvOSmRzOvfinY13MhLkHrF7IZJowGOIklpv7LYXAtxt9yK8iFJ4h/5FGaCL3YtwAkoNUHCnEZNEV25IpZuHEFO9BaGFS5Gelsr5Q7s4uPZndsydwLnDu2VN+CJuSG/JrzZf0M+ISYrX70y59v0oXKUxwVGxpCZf5sy+v9m/6gd2zp9E4tmTRpi5noyclKZ4Z0vTMOA7oLtZBkIio2l462CqtupOTFxlfP0DOXfqCPGbVrLmx8ns/HOhEWbuRZxpK3LmHgx4so4uWYFGPYZSsVFHCpUoh8vHl4Qj8exZ/xsrZ33MwW3r5FcKdyBKA/M1Tkx4s5pAhDyo7pusX1AoDR/8iLJts273npaSxKavXmbz16+D263XFIgnw5YyE+QTSiOpAR8UGUPzp6YRWyvrlvRJ506xZuII9vz6pYwp0+j0zu/EVG2W5c8rF9BwZXEX2LP+NyYMdWbxRN0ufen66FiCw6OyfM+O1QuYMaoPFxOk1H/diAqcwzKT5BP+QKKyQ9M02gwYSdsBI/Hx88/yfWt/msIP7zxM8uWLek2BkA6ORkiz51vUEYBIrNO9+fsEBNH25bnZbv4APn4B1O73Cg2HfaDXVAaN8c4nQquREpIJjIim87srst38AQLCC9Lsic9pMmIyPgHeeNrgXfgFBnP7C59x+6jPs938ASo27MADn6wgOKKgjEkN78tdsINIhDSvbno8O4kO97+U7eYPUK/bAAaMnYOvv1ST1DCU/oNyABAbqm7qDnidmGrNc/3+St0eoGybPjIm/bC3Zaq3IFUx0fzpaYTFls31+8u378/N7/9BeDHV5t8soktW4KEpf1D35n4ejbnzxamyplX1Tc5URyL8X7/bQBrckvt+Z2XrtKLTsNf0mssgLyXa6kI5AFBJ78DwouWo1O0Bj8fVHvAqLl+pUtQaMoPzCVX0DixWtyNFa3velyeydHW6frSWUk176DWtyILqbXry8BdriS1X3eOxlRp3olzd1jLmK8sMzifofijx9Q+g41DPW3U0veNhoopK5W7rvvfnFZQDIDJXdVG2bR80l+dOb0ih4hSrI5Usqx4zc6aE3oFlWuvPCfULDqfVyJnUHzJW1slTAD5+/nR77D36vD6LwBD97RxqdZTqSqv7u5SP0H1PqtS4M2EFi3g8zuXyoU5nqWiq7nt/XkE5ABJ1vtGVGug2WriqlEaGN5Qs2k2k3oGFKkqKl2kaVboPp+NbSwkppDo466VATAmGTvydZnfIV0OWqCL1mWafbKAAiXtSXHX9p7Alb9J/D0b1eFAOABJtIYMK6i/JjyghFX0qIzM4n6A7QyggTCpp7F8KV2lM13HrKVpHtR/3lIoNOzB86l+UqmqMXEBwhNQeHmDIIvI2uu9JheP03wvDCsXqHotqCawcABnSki/rHhtWRGoPVxGAnNFd3pN8IcGwRQRGRNPu1fnU7DMKTVOXW064XD60H/wiA9+bT0gB4x7QEs+fkRmebNQ68igaEKd3sMw5flqK1EcjVY+dF1B3JDild+Clk4d0Gw0tEqd7LKK3vTGPqXmX83oHnt6z0ch1oGkuat4zinavzicwQknNZ0VIZDQD3/+Zdve9gOYy9tZ0eNcmmeHnjFpHHqUwOsV/NE2TcgDOntB/DwZOywzOCygHQDQB0sX5o//oNuoXFCa7GagoQPbs0ztw/6ofjVzHvxSt056u49ZTuIpU5alHuHyzr6nOjpzqsY0krkYTHp36FxUamKOKvPW3H2SG7zdqHXkU3fei0KgY/AKDdRs+fVj/PRgwpYWnN6EcAImN4sLReCnDoUWk9nDlAGSP7r7L8ctmcv7IHiPX8i8hhYrT8a2lVOk+HDTzG3EGRugPo4fINdDJFZqm0fyuxxgyfikRhc1JmDyxfydbl86WmcKcL0PeQfe9SLKMT9YB0H3vzyvkJS2AQES5TiyQ8ehyEfGEvw9IyWKc7m/QBYkIAEBYkdKc3LFG73BvSgQMRYjBFOI/cZ5TwCHguEk21wJ99QxMT0tlxTsD6Thmsa4yz5xw+fpRf8hYYqo2YcU7A0m5ZE6E2S8ojNCYON3jo4qVwS8wmJTES8Yt6ioCQyPo/fwUqrW6zZT5QXyWM1/qT3p6msw0ui/SXBCLuG9l1DgmIp5MDwIXTLRrJN7qAGQ3OBqogLhnhQFpwGXgGOLhQqq/tFPwZgcgEuiIUJ+qh2jqkFVEIwXxoa0EFgM/A2ev/Ez3N0jmCADydASgBNAZaIdot1marHUnLiA26xXA3Cv/bURyziqZwce2LGPF2/1pMmIKLh9zLpNSTXsQWbo6v73Sm9N7pc6oMyW2ZmspB8bH14+ydVqyfeV8A1clKFqhJn1en0WhEuUMnzuDtNQUvhndl/jNUl8FEPcNI3AhOo92QUgk1yVrtUo34t70F7AIcc86YNA6jEb3w4i0A3DIMAegKNADaA00I+ccqxPAcmAJQvTqqMxC7MIbjwBaAt8g/uDTEU95Vcj+d/FDdPO6D5hxZew3iA9aLgIgIewTFpunHAAfoDfwKyLiMgFxQZUhe9GpUKAV8DzwJ+LzeAb5JMeNSJ7d7lk8jV+f60ziWfOc/fBi5eny3irKt+9v+NzlOw2UnqN+N/k5MpvzwcmrTN38LyQcZ/IjndiwcIbsVLuBvyXnKAK8hHiqXw48jbj3ZCceoSGunZ7ARMQ19SvQC+dp2euPABTTfxtzu90kHInXPR5xr+kMLETcKz4AbiV3955o4DbgI8TnugDxMOpVAnve5AA0BZYhtMV781+YXw+BV+ZYBuiWcUtNusTlM/oj2HkoAtAT2IpwqtogdxGUAl5D3PBeRr/wkRvhmUtxeMOvzBlWh+N/Sz9FZolPQBBNRkw2VFCocJXGlKgvL3letWV3SlSR0nj5F7+AIG5/4TN6jfwUPxOFk+I3reS9e2qza+1iI6b7VmJsJPA2EI9wcGWK1jXEtTUT2IK45pyC7ntRwWL6TzLPnzxCSpL+UmzE33IeIlIp41T5AO2BX4B1QO7FYWzGGxyACGASYrPOWtdUP7VlBl84ql9xNkzOASiF/U8CpRChyVkY31c7BBgJ7ER46XqYhAHHCRdPHuSXJ1rxv9nvyko5Z0v59v3p8t4qaUEhv+Bwmj7+mSFJhpqmccfoL/AP0lXl9S/RJSvw0GerPRLy8RS3282y6WOZMLSVbHlYBmmI75AeeiK+uyMwvpFQZcQ19zNQ0uC5PcUXiVbJMkcAkuf/YI6oWm3gN2AqYu9yNE53AGoA64FBODS0IpMHEBJdUuaM1h+RWGcXNwObEHkYZhKLyA34EM87d21HeOXSpKemsHbiCJa+3Ivki2dzHqCTqDI1pASFfAOCafPiD4aqEhaOq0zfMd/rfmqXEfLJLYkXzvLlUz2Y894I0lKzyvf1mJ/w/IgwAJiM2KDNbjXbzV97vAAAIABJREFUEXENyod69FMCnblkPr5+UpUfBjgAZqEB9yDyNxytJOlkB6AzIpEr95qsNiBTCeDy9ZPtFW/XMcAI4Ees83A14EFgPlDAw7EjMbDj176Vs5n7YD1TkvYyyBAUajDsfXwDcl8jHV6sPJ3fXUGR6i0NX1OFBu0YNmmZRyFb/6AQbn38Q2khn5w4vHMj7/ety9bfvjdy2nTgBQ/HRCOSjAcYuZAcKIBwVEZYaPNqdN+DCsSUkEqwPXVIf/TVIsogogFmPyTpxqkOQHfge0B/hwiLOJ//egE8jzjXtOO70xaRbOPJbvIXMM3IRZw7vJt5wxuza8EUI6e9Fk2j8i0PccvETZRr1zfbhj4hhYpTd+Ab3DJhE1Fla5q2pOKV6zLi6610fuB1IqKzDj75+PlTr2t/RszYQpPeD5q2HoA1P03mwwGNOHlAd9uHrPgMkdeSWwoiNn8plS+duBDX5EgbbHtrCaBVhCIctK52LyQznFgG2BSR3W9dGzIJpHsBxJbh6Obf9A632gEYishmtpP6iMSdtuS+3/+jiCSdGKMWkZZ0mZVj7+P41pU0fPAjw5L3ricstixNH/+M+kPe5fCGX0n4ZyuXE47i4xdAaJE4ClduRKGK9UzpV5AZfgFBtOr7NC36PMH+rX+yf+tqTh+OJy0libBCscSWq075em0IDDU3OJSSeInZbw5j3bwvzJj+EPC4B+8PRjimZpwpe8LLiP4a4y20aV8JoHc4ACCOLr9BJBsaVVJqCE5zAIohnvx1K7lZjXwvgDiZ4VY6AK0RZTJOoCmi/GZQLt9/ChiI8MQNjVzsWvgZJ3etp9Xzsww9d78e/9ACxDXrSVwzZyR/u1w+xFVvLCXlqpcT+3cy9emeHNm9xYzp0xClxZ6oB03GOWe9HyCSDw0pgcgFEiWAcr3MvMgBAFHy+R1QEwf1DHDSEYAL+AIv02i+dOIA6WmpusdLVgJY1Q2wIKJc0kkO433AXR68fx7i+MJwEv7ZzJwH67FvhXTVoSIHNi+exQd965m1+QM8hWeb5yDgDpPWogdfxLUqpX/sAbYcAaSlJHPuuCGVHlYSg/hsHJPQ7iQHYACiztWrSE9LJUUiK9xLcgDex96Kg6x4H6FEllteR0QODCfl0jmWvtKbNRMeI924LHTFFdJSkvlp7HCmPtObxIumifONBd7x4P3FgLdMWosMRRHXhhXY4gAkHN0n297ZLtoB99q9iAyc4gCEA6/YvQi9pKfpv+FLRgBiMf+4pCGePWlbSSE8y0lwAw8DH5uyGrebv79/j58fb8nFkwdNMZEfOXPsAOPvb8Hyr03d08bi2bk/iIZVTq31vhtoYLKNEDxzwK9Bpgugl4X/r+d1hL6A7TjFAXgUAxO0rERz+RAQrv/UIiiyiEelXtebB+J0G88dr+OgkFUmDMCzUlE3oqTwMcR5r+Gc2PYHc4bV4fD6hWZMn6/YsXoB7/Wpzb6tq80ykQY8hCij86RctApik3UqGuLaNZM4dN4bAoJDCY3U7TvIagDYTSzwgN2LAGc4AAGI7HKvJDKuqpxYjKZJKbZh7jFAHYT2gpPxA4brGPcuoteEKY3+E8+eYNFzndk4dTRud7oZJvI06elpLJw0isnDO3PxjGmy7ccR/dv1HAs9iv2dOHOiFUKMyyx05yBFxsZJGfbyCACISKTRHSI9xglJXT0x8Ok/KDKGsNiypKelcunUIS6dNDdRpHh9vV1q/yO0SGnO7NetN2KmAzDMqIk0zUV48QoEFyxKatIlzuz720gZ3HsQyVue6tYuRLTunAk0MmoxGbjd6Wyc9hLHt62m+VNTCYyINtpEnuRiwgm+ev4udq351UwzKxDJe3puEOEYmPgXGBJOTOkq+PgHcP7UUU7u34nbuJbTQ4HBRk12HbZoAIA1DoCPrx+x5WtcyVVwc/rQPxzZvdmoTpOxiAcQQ7tXeYpTHAApfPwDqXTzUMp3GkiBklWu+dm5w7vZ9fNkdsybYHgLV5ePL+U7yjf9cmglgB9CGUuKoKhYqvV+gnLt+uIfGvnvv7vT0zi8fiFbZo7h6ObfZc0UQFxMeoRbDgItgDHAI5hw3HF4/ULmDKtDi+e+pnAV68vmvIn4TSuZ9uztRvXyzww34rz/aUBv+U5X9ItU/Uv5+m1p2edJytdrg+b6Lxh76ewp1s79nN+nvsX508dkzdyGcOT1lypljX1NgI7ES43PjqCwSJrf/RiNewwlOOJaYcALCcdZPXsiS754g5RET583buAObHYA7D4CCEKE4HQTXqw8XT9eR73737lh8wcIL1qOOgNf57bPdlKxy/2GNkyp2HUYYbHynYod2gugGZKlRMXqduTWiZup0n34NZs/iNyJYvU60XHMEuoPGYumSX8VZUIxKYiQbi/AlBTzDEGhv79/z1RBIW/FBCGfzDiL2BAfR25D7CSzCJfLh9ueGsfgjxZRoUG7azZ/gOCIgrS4ewQjZmyhQoN2MqZAlPA2lZ0kC3TfeyIlHYDE8560acgdLpcPjW4bwlPf7aTtgJE3bP4AoZGFaTvweR77aiMFi0vf+ztg8zGS3Q5ALbLXxM6WoMgYOo5ZkunGfz2BEdE0eng8XT9eZ0iv9MjS1akz4DXpeUB0A5TATAdAN0Wqt6T16O8JCM9BWlvTqNJ9OA0e/FDGHIjzTlm+A+oCmw2Y6wbSU1NYM+Exlr7S28jjD68n8cJZpj7d02ghn+vZgMhp+cGAuaS+a71GfkqjHjmnPYVERtPv7R8pU0taXdas9sS2RQCM7jRZtk4rhk/7i9ueHk9IgZyTuguVKM+Q8UsJi5I6vY4AzFPIygV2OwBSQuONHhpHcCHPytOjytSg41tLaDlypu7ku4gSlWj/2s8y2fvX4NBeAA31DvQLCqPZk1/g45f7HJdKNw+lZKNb9JoEIU0cmeO7cmYX4nf/zIC5MmXfiu+YY7KgkLeQIeSzZelsM818CjQG9hgwVzSizl4XNdr29kgS2S8giDtGfykrx2xWOaBtDkDxSsY0XowqWpp73/iWIeOXeKxWWSCmBLc+If3gIiVHL4vdDkA5vQMjS1enZGP9R9RxzXrS/dO/qd3vZXwDc39xlWragy7vrSIoKla37euRzAEogDEb3/Xojm9V6HQfIdGeS4TX7DNKr0kQZ/dVZSa4isuI8sKBV/7bcM4d2iUEhRaa5mc4njU/TeajgY3NEPLJ4BLQD9GtL9GgOXV/xzRNo919ngoMQmRsKep1lco1MkNRNRqJWnZZB6BWR7kKzIDgUDoOfZUnZv5Ntdb6pLcBqrXuSXTJCjJLMa9/eC6w2wHQrYVbsvEtoMnla/n4B1L9zufo8fkuqvZ8nMCIzEM/muaiWN0OdHhjEa2en4V/qKeKtNnjFxyec6g8e4yOAmhASb2DS7fSlyAdVbYm4cWlLibdDmUWTEFUB5iyQ6UlXWblOwNZ+c5A0pJM8TMcSUrSZb55qT+zXrmPFPN+7x2ISI7RakG6N9PCcZWJKXOTrrE120sVHZSSGZwFuu85oZGFCQiWy6EsXbMptXU4AZqmUafzvTw5awdt+j+Lr79cHzVN06jasrvMFLZ2WLW7CkD3QU5BA2VPgyKLUHfQGOoMfJ2TO9aSEL+VpPOn8PELJKxoWQpXaUxAmLmttcOKlCbp3Cm9w8sgZG+NIgCdNaouH18i4/SLokVXasi5gzv1DjfjOGQTIi9gCiKBzHB2LfyMU7v/ouXImaYKCjkBIeTTiyO7TUmzyGAWInpz3oS5dX/HSlbTfapGbLnqaJqmtzwwBJFsZmTjKwkRIGMu01tGvM/hXZs4uid3qs0lqzbglsfep2RVY09EYsrknIOWDVJnO7LY7QDojkD4BXsiCZ87NJcP0ZUbEl1Z/4Wql9AiZTi5c53e4UZvfLqlmDVfP3wkvOrwYlIP8WblQ5xFlKsOB95ElEgayum9m5jzYD2ajphMqab6Q5JOZvPib5n1ykAze/knA09grmql7u9YoeL6v9sBwaFomgu3W/ce7odTHADJ8H8GwREFGTZpOdNfuJvtK+dn+b7w6KJ0fuANane6B00yapwZkpVlht9LPMFuB0B3yu/lBMcoKhqCZB6A0Rtfst6BacmJpKel6u6O6LC/w9W4Ed0D1wBfI3F8lRUZgkI3dR9OnYFv4PK19d5gGGmpKcz74Amze/kfAHoDpvUMvoItG19qcpKM+I0b4/sA2O4AAASFFWDgu/PY+9fvrPpuPAf/XsupQ3sJCA6laIVa1Gx3O/W69scv0JiE7cw4d+KwzPALRq1DD3Y7AMf1Djy5cx1lWju5FbdnOKwXQCLii+n5QZ3bzaUTB3RXNji0IuJqViIyd79CKHsZi9vN/2a/y4ntf9Liua8JKWS4n2EpZ44dYNqzt7Nvyx9mmvkF6AOY1jP4KmzZ+M4c2697LCKC5RwHQLILYGaUqd2CMrVbGD5vbojftEJmeIJR69CD3UmAul2nf36fSXqq7gdVx+HAJ1/dLcjOH9XfptMAdUTdfSU84ASiGcxLgCmN/o//vUoICv21yIzpLeFfIR/zNv804AWgC9Zs/t6qfqf7QSsbdO/iRkYA7ObsiUNsX/WzzBR7jVqLHux2AHQXQl8+fYT/zX7XyLXYiuSTbxzGf5bxegdekHAAgiKL4BOgew+3Qh0xgzRgFKIDoSmbT+LZEyx6thMbp73oVYJC7vR0Fn4y2gohn47Ay5jkhGVCabxT/S5eZnAm+CBRJZSXHICfP35GtnnVNqPWoge7HQCpzPWNU1/k6KalRq3FVkJjSskkkwQg0ZwkC3Tfcc4fjddvVdMIi3FcNCQ7FiCOBEx5zHW709k49UUWPdeZxLNWPOTKcTHhBJ8+0pFFn7yIO920fTnjGMZUtaBM0N/61l71O6OVc4qjM3nN5eNLgRjPe4Q4kXVzP2f9/KkyU7gx6b6RW+x2ALYhxFh0kZacyOJRt7B3yVcGLskeXL7+Hnc1vA6jNz7dN40LR+WiWl6QB3A9BxCyyaZluQlBodqc2Gbr/SJb4jev4t0+tdn5p2nHFhlCPq3Qp+Ini23qd6cOSV1TRjsAuv8OEYWL45MHkltXzfqYWa/cJzvNZuC0AcvRjd0OgBvIun4jF6RcvsCyN/uwZHR3zh8xotOnfTgsD0AiAiB3v3HY3yG3JCPKBHtjoqDQz4+3dJygkBDyeZcJQ1py9rhufz4nzgI9gBFIVA9JYp/6nVwEwOhzZkdUANjByQO7mfLozXz/1oMyVRkZfGfEmmSw2wEA+NKISfb/8SM/DKrK+snPkHLZjP4f5uOwJ1/dNw2ZHABwXEWEp8xCaFxsMWPyDEGh31693RGCQv8J+TxmppDPRkQzJlulU7FR/c5hRwC2NwGymqRL55n/0dO8c2dVtq2cZ8SU6cAMIyaSwQkOwEoMulmmpSSxZeabzO5fkV0LP/OqxCmAMLmN7wHgPoz7THXfNC6fOU5q4kXdhiUjAMbXGHnOTsxpQ/sv8cu/Zc6D9Uj4x9SOetlyeNcmK4R8JiOEfEwTDPAAWzLfEy+e49JZ3V1CwTgHwAcYDOQsZZgFskchVuNOT2ftnM94s0cFln75JqnJSUZN/TMO+E47wQEAeN3IyS4nHGXlOwOZ93BDjv+9ysipTUUyAhANfAKsRVLK9wrHAX27uNvNhWPxug2HOlMe2VMyhGjuwzghmms4d2gXcx9pZIug0NqfpvDRgEZmC/n0R/z9nCKUEKd3oIwDIPn0fw6Q8h6u0AJYB0wEctbLzQJvOgKI37SSD/o3YObLAzh/yvDGc2OMnlAPTnEAvsGEkOnJneuY/1gzlr3Zh8SzJ4ye3nDCihjiHdcGfkd0q9NdqnMF/XkAR/QfO0pGACIAc4UbPGMyVggKjb3PEkGhlKTLzHx5ADNfGWimkM9OxN/sc7MM6MA29Tubz/9LATOB3wBpARZvcADOHDvA9JF3MW5wMw5u092ePTvmAMvMmNhTnOIApCPCSsbH7N1u9i75ih8GV+Po5t8Nn95IJCMAV6MBtwPbgdGA3j6YEpUA+m9aDlRHlMX0M+xdC6Ywb3hjqchLTpw+/A8f9m/I2jmmRhy+ReRQ2He2kTm2qd9J9gDQOzgE0WNhG9BLZgFX42QHICXpMos+fYkxvSqxYeEMvcJLOXEJkcjqCJziAIDIBfjIrMkTzxxn0XOdOLJhsVkmpAmOisU/NNLIKYMQzWq2A3fieRMTe3oB4LWVANmRkcX+OCZlsZ/eu4mfR7Tg3KFdhs99Yt8Oxg1ubqaKX0YVRS9MqqKQxLbEt9OHLS0B1IC7EXLKIzGws6ZfYDChUTFGTWcYbrebTYu+YUyvSiycNIqUxEtmmnsWMP4C1YmTHACAJzGxMUJaciK/vXo7F08cMMuEHJpGTDUjju9voAQwHVgO1PFgnI2VAHnOAQBR9voO0BqT6tgvnjjAL0+2lpGWvoELCccZb26J3wHEGbOpakGS2FcCaF0EoB7iQWwaJujUFyxWxhQ1PhmOx29j/P0tmPbcHZw5KqW3kBtmY65Spcc4zQFIQsiuxptm4Pxp1k50TATmBorWbmvm9E0QanaTgSK5eL+NvQCk8iGcnmq8AhM72V06eYg1Bn7Hf3pnuBlJUBlkdFI0W8VPFtt631tQAhiLyLdYjci9MIW46o3NmloX21bM5b0+dfhn43IrzP0F9EU8BDgGpzkAIASCWiOeCkwhfsV3nD24w6zppSjfvj9BkaaGyVzAAESI70nAP5v32pIDAF7fCyA3mNrLfs+vX3JyxxrpeeI3r2LDQlPKlU3XUjAYW9Tv3G43p4/E6x5P9lG8AOBpxL2gLybvB1WadzNzeo84vHMjU5/pbWYi69VsBjpgs/RvZjjRAQCx8TTDpGYquN38s9T2HgyZ4hsYQo27RlphKhx4E/gfkNWVqXsXT7l8XqryIg/mAGSGqWp2uxfJ99haP8+UVgamqymagC1HABdOH5M5k3aTdTS1O/A3ogRbd3VDbilRpR6VGnc220yu+eHth63a/FcAbXCok+tUBwBgHyJk/a0Zkx/d7IgqjEyp1HUYZVrdaZW5csCPwELgput+dgFxs9aFTBRAMgegFM7+bl/PL4jcDEPD4PHLZkmNd7vdbPpVbo5MyBDy8SadY9vU7yTD/0e5sYdCNWAx4jzakqOy4PAo7nxpmmPO/08e2G1V2P9ToC0O3fzB+TfJ84is4HsRWcLGTXzY9iZMWaNpNHlsMsXqdbLSajtEudoHXFtHb0segAPVEc1mPyIRzrAkocSzJ0g6r19r5OKZE1w+n2DUcq4W8jEtm9AkbFO/M1AEqCAwDtiAOGK1hKiipRn00UKiS1awymSOGNTKNzsSEblsgxB5bY7F6Q5AQUTZ1CiyP6v2mBSJVrVW4OMfSNuX51C7/6u4fHytMusLPIRoxPLAlf9vSx6Ay9ef4IJSe7i3HANcTTLwCKKHgyGCFheP689sNjAr+izihminkI8MtqnfGdAEyA94GFF6NhQRzTAdl48vTXo/xKPTNlC8kieFR+ZzIeG42SYCEcerj+OspmQ34FQHoBrwGeJJ4S2grNEG/AJDjJ7ScDTNRfU7nqHb+A0UrWVqdcD1FET0ZNiARNtP6V4Aci2BnV4JkB0zMUhQSEYYK+mSITlLmxBNkEwVDDAZb60AiEFE9d4HDG0wkh0VGrTjsa82cuvjHxAYGmGV2VyTbp5o1dWURexdB4EpGNBF0Qyc5gBUQ7RJ3IToox5olqGwYuXNmtpwCpS6ifZvLKT16O8JL1rOStNVEQksurgg0Q4Y8mwvgNyyAyEoZIhapk1MwcQ2yBai+7skK34j2QOgHVBFagEeUKhEOfq9/SODPlxITJnr04mcQ5GyVa00F4TQtPgLmAfUt9J4TjjFAQgB3kP8kW7G8451HlOkenOzTRhOyUa3cMukLdQZ+Dp+QaYn7koj3wsgTma4tzsAINqG9kX0bjAH8660VcBAnCPkI4ONXQCNVvI1nsCQcLo89CaPf/0/bnJQqV9WlK7ZDJf+/CK9aIiS1z8QgkqOOBpwggNwEyL7+RHEmbP5aBplWlqWZW8oPn4BVOv9FD2+2EPlWx+WSZQznYsn9uNOT9M9Pp9HAK7G0ATYDDTN1BuAKWu2CVuOANJSUzh7zKFdSwFN06jTuQ9PfruDln2exMfP0DQt04gqWpqaHWy7/7sQksqbEDLXtmK3A9AV8XRjaUwmrllPwos7JytVD4ERhWgw9D26vP8HhavY/j3KlPTUFC6e1J/wHRqjHAAz8XFGVZY3EKd3oIwDcObYAdIlHGgziavRhIe/WMsdo78krGBumoo6i45DXiE4QkpwTJbiCIXF/nYuwk4H4F5EYpBepTpd+IdGUneQI6SYDaFQhbp0Hruc5k9PI6RQcbuXcwMylQCSSYBFEeWAiizwt9v99w6CyF3b7EyR6gEgVwJoCgViSnD3KzMYNmm547L7PSEythSDPlxAmL3iRH6ItuyP2rUAu24BtyEShCyrbwMRPm/57AxCC5ey0qz5aBplWt1F9ynbqXH3C/gEGCbgJY1MHkBwVCw+/rrzQF1IPLnlB4Isvfq8ltLozJSQVb9z0vm/X2Aw7QaN4slZ26nZ/g7HNPWRoXilOjw2YzMNuw+28/hCQ/THGGiHcTscgNrAV1hUj5pBYEQh2rw8h6J12ltp1lJ8A4Kpde9obvt0G3HNe4tDXpu5cETiJqZphMbEyZjPC8cAFZAoxcyOYF9Tvx/RiC6T3o5UC2CZjdIJDoCmadRodztPztxG+0Gj8Qu0NGBrOqGRhenxzERGzj1Ax6GvUqCI7oaPskxAdA20FKsdgAhgFiaW912P5vKhbNt7uWXCJqtr6W0jpHBJWj73NZ3e/o2ocrVsXcvlBDkVuXyYCBiAKN96D9G8ZQdQyWgjPhqEmRsBuIn/1p8hgay/I4592CcDbLMDUKxSbYZOXMY9r35t58ZoCaGRhWnT/1me+WEvfd/6ngoN2lkd5fAFpiIcZ0uNWsmbWNSgxT80kvId+lPx5iFW1847hpiqzej60Vp2/TKFvz4fSeIZ0ztg3UCqZMfFfCIKFIgQZLoDsfmHmm0wwt+yAFEF4LErr7MIzYmvgPl4R1fAfOcAhEXF0HHYq9S7uT+aK38lirhcPlRtcStVW9zKif07WT17AmvnfMbl82esMF8EEQnoYYUxsNYBaITojWwqBcvXoVLXoZRpeaejzsLtQtNcVOh0H3HNe7Hpq1fY9uOHpKdaV6HlH1JAanxYbJ52ABojkmFvB+T+UB6gAQUDbTkeikBoe/RCiExNB75AdJx0KvY5AHJNgDzGx8+fZnc8QpsBIwkMCbfUthOJLlmBrsPH0nHIK/y1YDp/fDuOQztM/6rehmi+tthsQ2CtA/AqJh05+PgHEte8N5W6DiW6UgMzTHg9/iER1Bv8FhU7D2LtpMc58OdcS+yGF5fruCh5BODEdsCFEHXA/QDT21G6fG9MbioQkLsKAJMTo6IRvT8eQbQ8noxo/33OTKM60N8DQKIJUNKlC1b0rP+XKs260nX4OxQqYX2H1KRL5zmyewvnThwiKCySouVrEBJpaSQ8W/wCg2lwy300uOU+9m35g1XfjmPz4lmkJpum8/MWQh3UbZaBDKxyAJoiVMAMJbRIaSp1uZ9yHQYQGGFKnpQUacmJHFg9h0PrFnBk01KSL5wh+eIZQqJLEFW6OrG12lC+Q3/8gq3ztsOLV6DNSz9xaN0C1kx8jLP7t5lqr0gNuY89LO/0AqiIKPe5F1FaZglBBQpf8//9XBATlLun/1DrbsLVEDkPLwKfIBQRndIBx5Y2wFaF/2NKV6HbY+9SoYH1ydEn9u1gyRdvsHHhjGs2U83lolS1RjTsPpgabXvjq78SyHBKVWtEqWqN6DZ8LGt+mswfsyeQcGSf0WZqIRICTZfMtioO+BVwlxETaZqLonU7UKnrUIrX74ymOe+M6vyRPeyYO5FdCz8j6dypbN/rFxRGxS73U/2u5/APsVY4Iz01he1zxrFx2kskXzBM9vVfosrVotvH66XmSL5whuk9pLpmRgKWHOBlQUvE+XcXLE669QsO585vT/6rJqkBcWEawbl0+9NSknmhbRTJly1XzkxBCCK9g73HAwWR0HJ/5bdzBATra9n9v2U/8fnjt+g1nSNBYZG0Hzyaxj2HWak2CsDl82f4dfJLrJz5EWk5CPOEFChEva4DaNRjiPSRihmkp6exfeV8Vs36mJ1rFuFOTzdq6rmIRnmmYoUDEAEcQ7Ipi8vXj/IdBlK11wjCYg0XB5TG7U7n0Nqf2fbTOA6vW4Db7dkXIbBAYWr3fYnyHQda3t438exJNn45ih3zJ0m17r2eNi/+SImG8t/h6T0KyjgotbFnE2kGvIGN7T5LNr6V1qOECJ8GFA3WKODhVTjl0Zut0E/PjnnAs8BmG2zXBdbqGRhSoBCjF57QbfjPHz/l21eNT5lyuXxo0H0wHYe8bHknvPT0NNb88Cm/THyeiwme/W00l4tKjTrRuNcDVGzYwZHJiScP7GblzA9Z/f1EI44HUhBJgaflV5Y1VvwV2yO5+YcXLUfXj9fT6OFxjtv8E8+eZOvMMXzXrzy/Pt+VQ2t/9njzB0g8c5xV7w9hzoP1OLr5dxNWmjWBEYVo+NDHdBu3Xjpkn0GZVncasvmD11UCVEN478uwudd3xS73i//QoIiOzR+g4W33G7soz+mCcOCmYv1naVsCoI8JT+Xl6rZm+LQN3PbUOMs3/z3rf+P9PnX47o0hHm/+AO70dLatnMfk4Z15s2cFfp/2NpfOZh9dtZpCJcpxy4j3eXLWdkpUqSc7nR8WRACscAA6yAwOL1qOzu+tIjLOUrmAHDmx/U+Wv9WPWfeUZN3kp6Va3l7N6T0b+eWJVvz26u1cOG742VK2RJauTscxi2n1wrdSbXhjqjaj8fBJhq1LsiUuo/UoAAAgAElEQVSwVZtGHEK6dyNi07KVwjc1oVid9vhoUCJEI0qnC1656c2UuMl2BVMXcA+wHaFtb1Vygm0OQHSpilLjr6ZgsTL0HTOb+8ctJrZcNcPmzQ0JR+KZ+kwvJgxtxeFdmwyZ89TBPcz94Ale7lKcb17qz4G/dQVpTCMyNo6hE3+ndM1mslO1MGI92WGFA6DbFXL5+tF69PeOSfBLS7rMrgVTmPNgPeY90og9v35JWnKiKbbil83i+/uqsOGLF6Rr6T2lVJPbuHXSVmr3fxW/IM9K0uOa96bdq/PxDQwxbD0OrwTwB0YC24A+2C+whV9QKE1HTCHUX6NMuEa4RPsdTdO4Y9TnTukA5w88jGgwNAzz/9YSFQByX7sSVeoRXihWao6A4FA6P/A6j3/zN1Vbdpeay1OSL1/kl/EjGdOrMpsXf2uKjdTkRNbN/ZwP+tXng371WTf3c1JNuh97il9AEH1en0lwuFT+kukRRLMPm/2Bd/XaqXjzUMq162vsinRw7vBuNs94jWVj7iX+95lcPn3EErvutFSObVnGnl+nEhRZmMi4apZ1b3H5+BJTtRnl2vUlLekyCf9syTY/IKJkZRo/PJ6a97yQaemZDOcO7+bgmvl6h59EJKGaQXNEuL831jfVyhSfgCA6vvwTNWrVo3CQZojiX0iBaEpUqcfmxbNIT3OEOl0gIsrSAViHyDEyg4cAXWeOdTr3oXhl/WI5mstFQFAo21Z4Xq6raRp1u/Sl39s/UqlxJ0uT/NxuNxt++YrPH7+VbSvnkZ6WaondcycO87/ff+SP7yZw8cwJChYrK7v5ShMQHEp6Whq71y3RO0UB4HXAsMzC6zF7NykJ6I5jdxu/gagyNQxcTu5xp6dx8M95bJ87nsPrF+k61zea6MqNaDDsPQpVkD5f8pjEsyc58MePHN+2movH9pF88SxBBWOJjKtGsbrtibmpqWnOyaF1v7Douc56h28HKhu4HBDZ4WMQUp72Cy5cISymFD1f+poqNRuasqp/Nq7gq5F3cva4folnE0hFlBCOBowOle1EZ6+GQR8upEKDdlLG3W43kx/pxI7VC3I9plS1Rtzy2Hu2HNsc+N8afnznEfZtXW257evRXC4qNuxA414PUKlRJ9uSBs8cO8CrXaXaKJcG4o1ZzY2YffOqB6zRM9A/NJK7vrM+ySPx7Al2/TKZHXMnWn4Gnxs0zUXZdvdSp/+rBEXJhQi9hbMHd/D9QN17eCJCctqophpdEU1rHNOpxD84nPq9H6H9vSMICjW3lPTy+QR+m/Y2K7/5kKRL50215SHxiB4Lyw2azwVcRkQxPeap73ZRqIR8C/KUpMvMGNWHLUu+y/Z9EdHF6PzgG9TqeLflSn3nThzm53HPsn7+l7jdpveu8ZiooqVp1GMI9boOIKSA9cfJr91SmoQj8XqH1wXkaqmzwexvSlN0XpBG1JB7woltf7B9znjil80iLcW0Dk+G4RcURvU7n6HKbY/i45e3Ze/TUpKY1jVEJgpTDDgsuYxARIeuB7D7qV/TKFCyCrG1WlO5UQfqNG6Df4C1zVJSkxPZteZXtv/xC3vWLeXYP39baj8L0hAdR19GRAZkKAHs1zPQ5fLhteWXDOuk6E5PZ/OSb1ny2Ws3JNKFRxelcc8HaHbHI/gHGZd3kxtSkxNZNv1dlnz+GkmXLlhqWw++/oHUaNubxj2HUbKqdR1jP+hXXyZRsQmwysDlXIPZN7ImwAo9AwuUuolbJ20xeDnXkpp0ib1LprN97nhO73ZyO/KsCYstS71BYyjZxNokH6uZdXdJLp7UHXpuCqyUMF8FmAFUl5hDivDiFYit0ZrYmi0pUr0lRQoXJiZIw9f2lEPBuZNH2LN+KbvXLmH3uiV2K9mtRFQNxEvM0RzQVY9boEhJnvvJnOjhhYTjHN65keTLFylYvBxFytxkS3h7y9LZzPvgCU4d2mu5bSMoXqkOjXsOo2aHO/EzWTPmrd5VOB6vu+OqVzsAVRF9vj3Gxz+Qu747jY8JbSDPHdzJ9rkT2L3oc5Iv2Nkkzjhia7Wh/pB3HVcuaRQ/j2jBsa26o7v3IurI9TAYkchqeRp8RIlKlG7Rm9ItbieipDgCCXBBkRCNUEekHGbN0T1b2bBwBhsXzLDLGTgD3I/oKKiHfghtAo8pW6clQ8Yv1WnW2RzZvYWfxg6XSWxzFMHhUdTr2p+Gtw0x5MjmelKTE3m+daRMdUIlhKS2KZjtAEQBug/yjeokByKp78DqOWyfM57DG34FB55VyeLy8aVC58HUuvdFAsKtbfRhNsvf6seeX7/UO3wU8JKHY/yAj7FAwfJqQmPiKNPqTuJa9L4mAVbTIDoACgVqVhWCGILb7Wb/1tVsWDCDzb/O5PxpsxL2s+Rt4GnE8YAnvAi8oMdgva796f38FD1DHculs6f4ZcLz/Pn9JNIN7BbqFDSXiwr124mkwSadcRnUjXXL0tl8+ZSUum8UYHyf9itYcSs5icia9pjCVRrTeexyqezyywnHRFLf/ElcPK7rSM/rCAiLomafUVS8eajlfb7NYuPU0Wyc5uke/i+fIzL2c0tB4FtEH3/z0TSK1mxD5VsfoniDLjfoWwT5QLEQjQBrO0QbTnp6GluXzmbZ9HfZt+UPK03PQ2iReKI0+CWir4PHdLj/JdoOfF7PUMeRlprCH9+NZ+Gk0Vw+b9o+5CgiY+NodNv91O82UEqV0J2ezocDG3Hgf7ry4AGOAEV1LyAXWOEALEC0A9ZF3UFjqNrzcY/HHf/fSpHUt/xb0lOT9Zr3agqUrEL9IWMpWsd6pS+j2fPrlyx/q5/e4b+T+828CvATOuu/PcE3MISybfpQ+dYHKVCySqbviQ6EaC976s8N+7auZvn0d9mydLZVteL/A7oBuT20Xo7IHfGYO1+cSu1O9+gZ6ih2rF7AT2MflTm/9mp8/QOo3qYXjXs9QKmqDT0ev+jTl1g4aZTMEn4BOslMkBNW3FZGIWp0daG5fGgw9D0qdXsgx/emJl5k75Kv2D5nPKf3GtN20kAuI54qGwHGHzZlQ4mGXak3+G3Ci1mv9W0Ux7Yu5+cRujtj7gdK5eJ9HYGvEQJWpuEXFEqV7sO5qcej+IdGZvoefx8oHqwRlDcCOFmScGQfy2e8yx+zJ5ipr57BKaAHuUvuO4ioHvGYBz5ZQVyNJnqGOoKTB3bx07uP6WpCJMlORNl4T0TVjWMoVqk2jXoMpXaHu3Lsipmensbiya+w8JPRsmafQQiKmYYVDkAt4C/ZSUo07Ertfi8TWfrGROwz+/9mx7xJ7Fn0BckXz8qaMprdwAREQtFpRF3xcOA5INyqRbh8/anS/RFq3PUcfsGWmTWMiycPMutu3Q010hBJfNmFgm5HJApKNM7NHpevPxVvHkKNO58lsEDhLN8X7i+U+4zo4uctJBzZxy8TRrJhwXQjJVUzIwnRufGnbN4TiGgqpCu9/vn5h6Xb+NpB4oWz/DrlFVZ88wFpKZZGTc8iSjc/RFyjBYEBwBDMb+XtEUFhBajXtT91Ot9L0Qo1r/lZWmoK21fOZ/FnrxqlT1AdnUn0ucWKW4yG6N1tSEg1onhFosrVIiAsiuQLZzi5cy3nDu0yYmojSQfmI5LIFpJ5K8ciiJrlfljYPz4oMoba/V6hXIf+N5w1Oxm3O51pXUNkejQMBz4i82SwfsCnmNQaW3P5ULbNPdTsM4rQmLis36dBTJBGwbzd1iFbDu/cyLwPn2LnnwvNNJMC9EWUdl6PD0JvYKyeif0Cgnh12UXLm/HI4E5PZ82cKSwYP9LqJM10RFOtkcDxTH7uQkTlhiFC4Y66YUUULk50yQoEhIRx6ewpDu3YQPJlw5pRbkMcR5qKVd/SxxFNVPI6J4ApiCf++FyOqYNQOLM0ZliwfB3qD3mXmKq6jjltYfbASpw7uFNmio0IR+DqEPAwhGNgyrUQVbYmjYdPzLF9s59LqPbl9ZB/btn55yJ+fOdhjsdvN8tEGuIJ89Or/q0VouRTd//xwnGVeWKmI5oi5Yp/Ni7nx7HDObRdOkjrKcsQ12JuG7CUQZR1DgCcoQ5nLo8iWlybilUOQBTiHNbaVlXWsRoYh6g51vOIqiFC0GMQHcisQdMo3eJ26g4aQ0ih4paZ1cui5zpxaF3u+6JnwyzgScRZ4//ZO+/oKIsuDj+76T2BhBBKSGgJvYQa6dJE6aiAICoixYa9IIrYUUFRaYpIVRAE6R2kS+8QCCW0QAikkZ7sfn8MfKK0zdsT3uccjxzJzB03775z5869vzsKFb4Hzm6e1O77AVW7vXLPSgwPZwj1tuBceA6NmpCXk8Wqn0ayfvqXaiUK2hEv2oWIA4qsei2AyAc60H/MErnTqE7yxTMs/u5N9q+eo7V8bxziuydVn8EdcYXzPKB7n2qVSEW0F1e97ELLV47kulqDkoEIIY5DgRyH63givhxvoKHwjKuXHw2HfEuF1k9qZVIS2757nqOLxys1XQ4Sdd7vRel67Wj0wg/4hNz7+tLXVZT4GSq2aTDOx+xhzkfPcOHYXrVMKPYsRD/6PF3f+F6JqVQhNyuDddNHsX7aKHKzM7U0nYFIaPsKkRCtBPWAwUAvQF05P215D3E9rDpaVhbvRNRi+2hoUw2OA58i1OXmIGo1lSIXWA/MQNR/VkMDJy0/N5szWxZgcXKiZI1mapuTTMq5GC7sUuxuWPFn38nVnUbPf0eDQWNw87l9dv/NBLpDiKe5+d8L38AQGnTqj7OrG6f3b1ajJbFiz0KtNo8TVlP1Nu4Fxm63s3flb/zyRhcOb1ioWZteRJTlV6AzonW2koYvIKI34xHXr+UR0ebCTBxib8nVwpiW755rCFnVwkg+4kFrD0QgEoTUDM+cAXoi9Mg1u5zbM/V9OWp7qlOiqvFerDfwKxPBw99uJeLhgff8WQsiyz/Yw2KcXsIGx8nZhQefHsbzP24iIMSRik59KF7aUEnrAJw/uptxzzVl1vDeJF86q6XpnQgthScQZZVqcRX4GvFufghYRMGVH42AHXgW5dta3xE93j/jEck3hYEERJbqRIRnpgdWROTkEyBYbWMunr50m3zEkK2GbXm5/NojkNxMQ7WhpXzL3jR+eTwuHo4Ft8p4WfBT5fLhH/Jzc7gaf5qk+NNcvXCatCsXyUi5QnpyInm52WRd+6dc1s3DG6uzC56+AVidXfANLEVAyVACQsIIKBmKb1ApQylKZqRcYdb7fYjZulzvpdzCu3+eIiAkTO9l/J91075g+fj3tDzxA1wE3gWmcvsKKC0IQyQN9sdArbvvwWjgNS0N6uEAuCIUjlrqYNtRtiDu9uciLalPDXwRd0Mvo9Ld9Q2qdHmJhoNVT0CVxI6Jr3HojzF6LwMQdf2NXviOyg851i7AYhHiPr4K//byc3M4e2QncQe2cv7ILuJPHCDh9FHFXvpOLq6UrFCdMpFRlImMonRkXUpVqqVYu1sp2G02Vk0eyerJH6mtG+AwgWUr8tY845Qkr5v2BUu/f1tLk9mIzPVPAKN46W7Ao4ikwYLL+WnHcuARNI5c6BWBDADWIESCjEI6MAux8auWbaQAlRDhLmW6JN0GVy8/es5JwOqsmiaOZLKSE5jbrwJ5WZpFyW6Lq7c/rT74g5I1Wzj08xYLlPW04KPQnhkfe4CYrcs5umUZcQe2yuk2Jgk3T28q1mtFROP2VG7UTrfQd8zW5cx8r7chdOq7vz2BRt3ufQWkBRdPHGRMnzpanvwXIMq9T2hlUAJ1EGW/vdGhu+dd2Ah0QFyTa4qeV5D+iKQQvTUzjyGuJX5BtBAtLLRF1CyrIhbx0NcbDKsRcGLNdNEXQKeOjl4lQmnz8RL8y1Vz6OctFijnZcFLpj+VFB/HrmXT2b10OpfPyNJDUJygchHUaduLuh36au4MxMce4KeX25N6+YKmdm8mvHYTBo5bi5NBnOb5o55ny9xxWpg6iCilXK2FMYXwR1yrDgIq67yWVUA3dNj8QV8HAETpxvcIcQctyUckioxDPLiFtTewM8KjHYGIqihG45fGO5TQphd7pn3AvpkfaW63WMU6tB65CM/ijjXpsiDu/KWG/bPSUzmwZi47l07j1J4NWtdsFxiLxUJYrQeo+1Bf6rTrhZunNkU/SfGn+fHFdro4RmUio3h27HK8/I2hT2O32xnZviTXkm4nrqcYVxB9XiaibGa/lliANohSwo5oWxUH4rrkDXT8/PRuMJqHyK4/ich4VzsscwmhutcXmITjncGMihXRsCQSiY1L7kRQZENDlwSG1GqJd8kwLuxejS1Pk4oZStVpTZtPl+Hu6/iLPsTTgr8Ead9rSQmsn/ElM959nH2r55AUr1cOasFJvniGI5sWs3nO96RduUhIxRq4e6nbf8LDx59abR7nxM51pCYqWZl7Z5ycXWjW6xV6fzRT9f+/gpCdnsqKiaq3Iz6AkDmPQb9EPyU4AcxGRIAzEZUEagvWnUdUeX2Pzp+d3hGAmwlE1Nc/hfINWTYjdPnncfeGMIWFEGAAoqxS0Y3/BlHPfEqNxzVNIJJEyrkY/h73spL6ALclpHYrWo9chJOb43ojQe5QwqNgX7Gk+NOsmzaKHYumaH6vrxZOLq7Ubf8ELZ98i6ByEarays5IY+obXTm+Y42qdiIataPTq2MoEVZFVTtSSL50lk86Sm6cVVDOIw5TP6KsJopeuCIUQoeg/PV0BuLadhRC7U93jOQA3CAMkUzSG3lh7WSEZzceMFxvYIk0RzyYXVGxax1As7dnUL5lbzVNKMrZbYvYMel1VRpDBVdvSptPluLs7vjBIMBN1Po7SvLFM6yY9AF7ls8kX6OIhtZYnZxp1PU52gz4AO+AO3dDlEtudiY/vdSek3s2KD53UGhlOg79mipNHlF8bqXIz8vlvRa+WjuQucB8xLWqI+2WCwO1EKWEjyNPYOg8oj/MJG7f9Eg3jOgA3MAdeBghvtMKx9pCxiKaTCxGdOMzSgmfHHwQVxZDEMqAmtD9l1iHpGyNhC0vh8MLxrJv5sfkZijjYAdVaUzbz5Y7XOMP4OUCYd6OfbXy83LZ+OsYVv00UslOYobG3cuXFk++RbPer+BSgIhKQchKT2XC4JaKNblx9/ajdf/hNHnsRV3LHx3l+/7RxB3Yqpf5QwhHYDrGKQeUgysi6boNonw9krsfwLKAXYjI80JgKwa9JjGyA/Bf/BEffNnrf3ZDhPOTESI9sYjElKJCNcSm3xeN5ZMDwmvSeYKRKyHvTmbSJfZMHc7x5T9jt0v/3gVWrk/bz1fi6uXn8BgXK4T7WHBxQGPz5J4NzB/1PBdPHJS8xsJMsVLh9Bj2I5XqP6jK/OlJl/nhuaZcjouRPIfFaqVBp/60H/yxqlELpdmz4ldmDdc9gpeGcALGIZyCooIL4kBaGrEXOSEiIFcRKq7nKCSJkYXJAbgfcEGE94cgwv268MArP1KpfX+9zCvGldjdbB//CpcObizw2JI1m9NqxIICbf4WIMzHguc9RPMyUq/y59cvs2f5TMNn9auNxWKhYdfnePjFUaok0iVfOssPA5qQfPFMgceG125K59e+pXSEkeRKHMNmy2fsUw30aPN7J9YjHIEFaKRzb3JvTAfAGJRGJPQNQCT46UaxinXo+N12LFa9C0QUwm7n1IY57PzpLdIT7r0JWJ2cqdb9NWr3/QAnV/cCmSrlaSHgHhn/cQe2MmNYT0kbUlHGP7gsPUdMpUKU8gKhl+NiGD+oBWlXLjr08wEh5Xj4xVHUav2Y4mvRkqT4OCYMbsnVC6f0XsrNxCPuwichmvmY6IjpAOhLHeAtRB9y3cXWXb0DeGTsNnxLV9J7KYqTn5vNidXTObb0R67E7sZu+7fipkdASco17U6Vzi/gV6bgmer+19v63gm73c6m2WNZ8t2b5OcWhUIU5bFanXiw/3u06f8+FquyfcounznGtLe63/W6xcXdk5ZPvkWLvm+olpugNdeSEpg/6gUOrJ1rtGhTHqIq6zOKTpJ2ocN0APShPKIcpJPeC7mBu38J2nyylOIV6+q9FNXJTrtK6rkYslIScfH0wbN4aVlOj4sVKvpasN7h25SRcoXfRvTjyOYlkm3cT1R54GF6fjgNT19lO7vm5WSzfeFkdiyawvmY3f/vIVCsVDg1H+xB055D8Q1yTOCpsBEfu5/Nc75nz4pZRks2tSOuBV4FTuu7lPsP0wHQFguixPFDhAqiISjbuBPRL403ZAdAo2MBQr0teN8hJ/hyXAw/vtSepPjTGq6q8FO8dHmeGbOEEmGRqsyfm5VBenIi7j7+hhLxUZvMtGR2LpnK1nnjZSVHqkAGMBxxMDJUqKIoYzoA2lEckRH7kN4LAXHXXbZRJ6r1eJUSVaP1Xk6hpZibUPu7HWcPbWfyKw+Tnpyo8ar+xWXgKEKx7TSQgtAdTwdudNDxRiSgFgNKAuUQ1TaVAc0UZf6Ll38gT49eRLnqRm7iVjix2+3E7ljDlrnjOLxhITabpk3o7sYi4EkKV1+WQovpAGhDCLACqKH3QjwCgqnY5ikiOg7Cu0Q5vZdTqHFxgoo+tw/9H/t7JdPe6k52hqY9PnKBv4G1wDrE3arcNnmBQBRQD2iNUEfTrOONi7snfT+bQ5UHHtbK5H1HamI8u5ZOY/Oc70lJOKf3cgAOI+ruz+u9kKKO6QCoTylgExCu5yKCazQjsuNgyj3QFauz8YVMjI4FCPWx4H2b1M09K35l9sintEr2Swf+AH5FiGCpfcHrg3AEuiK6mKmtm47VyZmeI6ZSp53ude1FmvzcHA6s+4Mtc3/g1N5Nei8nFmiC6N9iohKmA6AufghZzFp6GHfx8KZ8qz5EdhxMQLjuwYfbknr+OOe2LyX5zBFyM1KxWKz4lY2gWIXalK7XzrDOyp2y/ves+JVfP+jz/wQzlbAjTvhTEZu/Lq1EEVcH3RDdPFXVrbA6OdPn09nUaNlNTTOKc/XCKTbP+Z6Yrcu5fOYYdls+ASFhVG7Yhjrtn6B8HWM23IqP3c+WuePYs3ym1lGsm9kFtEC/57vIYzoA6jIP8YLUFP/QqkR2HEyF1n1x8TReglNuRionVk/n6OIJJMfdWSDMI6AkEY8MpGqXl3H19tdwhXfHClT0u1Xt7/iONfz8ysPk5aimQG1DSFx/COxUy4hE6iD6wvdCpZJWJ2cX+o36w9A6/DfITEti1Y8fsmXuuLv2dgipWIPGPYZQt30f3Dy9NVyhY2RdS2HX0mlsmTuehNNH9FjCr4i+MCYqYDoA6vEcole2JlidXQht3JnIjoMpWbMFWIz3q006fZCYReM5sWYGuZmOS4S7+wVRp99IKj/0rCEEigLdIfg/Xf7OHtrOxOcfVOu0lA/MQNRMGyp1+zZUQqyzGyq8X1zcPOj/zVIqRLVQempFsNny+XvBj6yYMLxAyZ/uXr7U7dCX6B5DCA6vquIKpWG32zmxax1b5o7j0F9/YsvXVOn2aUS7XhOFMd4uUTQogXhRq35s9QgoScU2/YjsOBivErolbN8Ruy2fc9uXcmTBd1zYuwZkiJH4hVahwcDRlK7XTsEVFgwnK1T+T83/5bgYfhjQRK1s/x0IaWijnfjvRTTwNaB4Cr+HTwAv/bKdwLIVlZ5aFid2rWfh6KFcOC5P16ZMZBRNer5E7ba9cHLWLN/SYdKuXGTnkqls+f0Hki+d1cJkEqIiRddymqKI6QCow0+AqmL6JWu2ILLjYEKju2A14EsiI/E8MUt/5NiyH8m8qmyb8LCmPaj37Bd4l9Q+rzLEw0KxmxSC05MT+bZfPZLi45Q2lQQMQ0SRDNlJzAGswPOIiICiyYIlwqrw4pRthqjhv3rhFIu/fZ0D6/5QdF7foFI06vIcDbsMMKRAUX5eLgfXz2fL3HGc3K16B+BxiGfJREFMB0B5ygInUKFUysXDh/CWvajSaQgB4TWVnl4RrhzfxeH5Yzn112/YVOxrb3V2JeKRQdTtN1KzPAc3K1Tws/z/S2O325nyakc1FP7WI+49lfWc9CMcmIxopaoYVR54mKe/Xqi4bLCj5GZlsG76KNZN/YK8nCzV7FitTkREP0TTni9Tsf6DWAx4vXc5LoYdi6awbf4kMtPkVp7elmyEgqrZP0BBjPckFX5GI5KhFCMgrDoRHQdT4cE+BepLrxW5GanErp7G0UXjSTmjbaKQZ2Bpop75lAqt+qie91Day4L/TUUJ66d/yZLv3lTShA34GBiJuPcvSjgBI4B3EZEBRWjdfzjtBo5UajqHsNvt7F42naU/vEPqZW33o+Dy1YjuMYSoDn1x8zTeuyArPZXdy2awZe44Lp1UvAPwKETvFBOFMB0AZXFBiFcEyZ3I6uxCaHTX60l9unUGvitJpw5wdNF4Tq6dQW6mvpU6QVUa0+T1nyU18nEEVytU8vvn63J6/xYmDGpx1wzvAnIZkUG/RqkJDUoHhCKmIkL/VqsTgydtIKymNmqWcQe38efXL3P20HZN7N0JN08f6j7Uh+geQyhZobqua7kTJ3atv540uECp70k8IsJa1Jxj3TAdAGV5CFGmJRmLxUql9v2p1Wc4XoFlFFqWctjycojb9AdHF43n0sGNei/nXzi7edLk9SmENXtU8blDPC0Uu97qNzMtiTF96iqp7x8HtMP4Gf5KUQVYhpAclk2xUuG8Omufqifi9OREFn3zKruXzTBaVz3K121OdI8hVG/R1ZBJg8mXzrLyxxHsXDRFic+uNUXfSdYM/WuqihbPIyPr2dnNkxbv/kr1x97A1WD1++mJ5zj0+1dsHPUksaumkp5gvH72tvxczmxZgH9YNfxDqyg2r5MFSnv/c/c/95MBnNqrmPNzEGgFGKppu8okAr8DbYBguZNlpiVz7WoC1Zqp01zzwvF9jBvQhNP7Nqsyv1yS4uPYv2Yu2//8iez0VAJDKxsiOfIG7t5+VGvWmeDyVTm8cZHcEsKLwLc5zkEAACAASURBVGqFlnbfY0YAlGUPUFvSSIuF5u/MIrz548quSA52O/F713J00XjObluode2vZFw8fek8fo9iVQI31/2f2LWeiUNaKXUK3IYIiauSNVUI8Eec5hTpQT3guxVUbthWian+T2piPGOeqM21pARF51UTq5Mz1Zp3JrrHECpEtTRU0uCupdP5bcSTcqbYDjRUaDn3PcZ5Mgo/zoiWlpJicOUe6EbL9+cquyKJ5KSnELvyF2IWTyDlXOGMSoc+0JVW78+TPY8FkfnvZhVa6WP61OHSqcPyFwiHgGbAVSUmK8QEIqoeqsmeqGwlXvv1AM6ubrIXdYMZw3qyb9VsxebTmhJhVf6fNOju7af3cgD4+dWOHNm0WOrwDEQ/isJaGmso9KmfKZqUR0bpX42e+ie3Xj25jy3fDmJO7zJsn/BKod38Ac5sWaBIRYKniyj/A9jw6xilNv8bd/73++YP4jqgDaJ0Vt5EZ4+zec538ld0nZSEcxxYYwynXCoJp4+w4KsX+fiRMsz7fBDxsfv1XhKtnnpHznBPwHjJUYUU0wFQjpJSB3oGliawUj0l1+IwtrwcTq6bxdJXm7JwcB2OLZ1EXpbaDeU0wG7n9Cb5EQB/FxEkS754htWTP5I9HyLbvx1mq9ObiQc6AalyJ1r100hSE5WRT4jZtgKbrWgknGdnXGPbHxMZ3bsW455rxt6Vv2nVrfIWylVvhHdACTlTGE8VqZCiStOO+xTJWTd+ZSI01+5PTzhDzNJJHF8+mcykotlx89L+DbLaiFgt4Hu97n/FxPfJyZTtGNkQpX6FN7SiHoeBJ4A/kXEwyc5IY+XE9+kx7EfZC7pyTnZQwpCc2ruRU3s34lO8JA07P0vDrs/hH1xWM/sWq5XA0Epy8iqMcZdRBDAjAMohOfzv7K56S3WB3c6F3atY+2E35varwP5fPzXa5q+o1nfaRXmJ9T4uwgm4euEUe1bMUmJJH2OWMN2NxQixIFnsXDJVDWlmpbis9wJukHblIqt//pjPupRn6pvdOL59tWYljm4esjofmgdXhTAdAOXIkDpQaa38/5JzLZnD87/hj2ersPKddpzZsgC7cUKbqcAPiCSw0sAbQIoSE+dlS/6VAOB3Pfy/ftooJYRM/kIo/JncnU8Qn5Vk8vNyWTftC9kLKVZK0V4TycCriGe8GuKZl33loQS2/DwOrp/PpBfa8OVjVdj427dkpiWralPmNU0RuKM0BmYVgHI0RJR1FRirsws9Z19SvOf91dg9HF08npNrZ8neDFXgIKLBxwzgv72BSyA2gmeQ4aT6lYmg62RpiYAWC1Txs5CWeIHPupYnLydb6jJAlPlVo+ho+6tNeWAvIttbEs6ubrw9/wR+QaUlL+LKuRN83k12x8F8RHOw4dx6+vcB+iC6PRpKzs/Vw4s67XoT3WMIpSpLq2y+ExkpV/iwXbCc/IragLyWiyaAGQFQEskXhra8XE6uUyTETH5uNifWzGDJ0AdY+HwUx5b9ZKTNPxeYDTQHagDjuXXzB0gABgD1AcniA/5h0t+p3i7CCfhr5ldyN38Q+vfm5u84J5Gp+Z6Xk82GmV/LWkTxMhUIDq8qZ4pcoB4wiNuH/tMQ34EaQAtgzvUxupOTmc7fC35kTJ86/DCgCXtWzFLiewDA7uUz5SZXnlRkISZmBEBhLiPqmguMR0BJuv50CFfvAEmGryXEEbN4IseXTyYrxTDXjDc4j2hr+xMF2wgjAcm1fPUHfk21btL6MpXysuCRk8JHD5eWm/y3A6EOadYtFwwnxGdXR+oEnr7FGL70PM6u7vf+4TuwbNy7rP3lM8njgQjgWAF+PgTh/D6HuC4wDN4BJWjQ5Vkadx2If8lQSXNkpFxh1GNVSE+S/I66gME+l8KMGQFQli1SB2YmXWT9x4+Tn+u4l2232zi/cwVrRnRhXr+KHJj9uZE2fzsi4a07EAZ8RMFPwc3kLKB0lHRVOC9n2Lfmd7mbvw14AXPzl0I+4rOTnJWWkXqV/WvllYJWa9ZZ1ngK/gzHI3JFwoAewFpkfAZKci0pgbVTPuWzLuX55Y0uHPt7ZYGSBvNyspj2dg85mz/IeMea3IrpACjLejmDL+xZzfI3WnEt4e4ZzDnXkjg0bzTzn4lk1bCHOLt1oZGS+lKA74CqiMYdfyA9jC/ZAfAKKot/OWnicq5W8c/updOlmr/BNIR0qYk0tiDC4pL5e4G8csCyVevjGxgiZwqpz3AeMA94EJE/8h0KJcfKxWbL59Bff/Lji+0Y1SOCDbPGkJl2dzXrqxdOMW5gc07sWi/XvOwJTP7BvAJQljDE/ZSsz9XJxY2KbZ8mrGl3AsJr4OYXSFZyAolHtxO3ZQGn/ppNfnamIgtWkP2IpL6ZgFK9gc8g2n8WmMoPPUv00EmSjAa4gkfqGT7rEi6nLCof8eI2a/7lURU4gIzDyhtzDlMiTHpzqHmfDWTbfGnPEkL1MUyy8X/jjdBKGALUVGhORXBx96R2m8ep3qIrZavWxzugBOkpiVw4to8D6+axY9EUJYSHbIgOkufkr9gETAdADTYATfVehEbkIE4p44BNCs8djoxkn5bDf6dck+6Sxpb2srBj2khWTvpAqnkQyY495Uxg8n/+ALpKHdzhhc9p+aT0nMIjmxbz86sdJY9HbFpKt89sinAEugGuCs9tVNYhOmeaKIR5BaA84/RegAacBd4DQhFae0pv/gBNpA60OjkTUqe1ZMPuVju7l82QPB5xZysrc8zkX3wiZ/DZQ/JuYcrVjJbbUU/ys3wXNiJUJcshSgzPqmDDaNwP71ZNMR0A5fkdOK73IlTADqxCnMTCES9lNWUEa0kdWLxyfVy9pKmFWi1w9fQBEs/K+hWuwaxTVpJdyMilyLom7+rc07cYQeUi5Ewh+Vl2gIsIhcnyiGjAagySNKgwRxCRIBMFMR0A5clHnI6LCsnAt0AVoC2wAPH/qDaSi/gDK0VJNuruBDFblkkef51pcicwuQXJ2XyefsVlGw+t3kjOcNmtjh0gD5iP6KxYBRiLQZIGFeJdzGoaxTEdAHWYA8jeRXTmCDAU0XpzKNons0l2AIpXlukAbF0ueTwiAdI8qSjPb9xeNOqelI6sK9t4uRqN5QzXwgG4mRjgZUSH0n4IVcXCzHLEwcNEYUwHQD0GU/j6vWcjsvgfQGRff4s+utsByBD7KF5RsnYMzrYc4g5slTwekRRpapUrzzXg54IOslqdqN1Gfi5muRqyIgDlkCFrLIMsRDSqDiIPYRYicbcwkYgQRjJRAdMBUI844CkKx31cHCLEForQJtdbbEPyicnJzQO/UOnyrYnHdsqVPP1NzmCTu/Iloq+Cw0Q/+jwBIeVkGw4uXw03T8kd7CxoHwX4L5sRJYRlgWEoX5WgBjagL2bZn2qYDoC6LAKkadGqjx1YAXQBKiCy1iU36FYYyS/LgLAaWJ2kdwuNPyjL98lBlIGaqMN54EkcPMWG1XqADi98rohhq9WJ4mVkNQaS1VRAQRKATxFJg10Rib1GPaQ8jwj/m6iE6QCoz7cYKykwCRiN0ChvD/yJNkl9BUHykS0gvIZkoxYLxB/bLXk8ohukYTovFVEWAx24x6mwTrvePPvtMlzcPBQzXLxMBTnDpYnnq0c+4l69LaLnxhhEwq8RsCOaQU3QeyFFHelHJZOC8AnC8x6Hfp/57uv2f8X4m5Rk7VXvEpKEAwFwsUL88f2SxyOESkzUZw0i0/0ZRK+JGojmQYnVmnX2bvHkmyXCakYrbrR4aVkOQCml1qECx4BXEQeV3giBIemJNPLIRdz5T9XJ/n2FGQHQjh8RiTinNLSZg9AlaANEAZMx/uYPMhIAvUpIv++15mZx+UxBGrfdgukAaMc1RKlbc6AY4AdUeOrrBYvU2PwBipcuL2e4kR2AG2QgOnbWRbQxngRoqTl+BmiJuflrhukAaMvfiI14EurWtJ4G3kaU8D2GEAcpTJSUOtArSHoEICPhNLZ8qX2LAFP8xwioVq4q8wqgMDgAN7MLGIi4jnsHkSisFvnAD4j+BptVtGPyH0wHQHuSEF+s+sBClEvAsSESZjohkvq+AAzTG7iASH5ZepWQftV67ZKs4MwljHOHev9i56haU99nDsANLgOfI94pnRGJw0odXmwI8aK6iNbPRUm4qFBg5gDox27EF6oq4i6zJ9JC37GI+t5pwAnFVqcfboiQbsGxWPAKLCPZcNpFWZVRZtc/A2C1E2NTqcWZl3+gnOFBgAvijrswko84sCwEKiKqMZ5AVBMUlLOIctmfQT2HzeTemA6A/hwGXgfeRITAWiCuCSIQIXw/wBOhgpaO6JB3DKGN/tf18UUJfyR2qXT18sPJ1V2y4cyki5LHYr7IDEFaBie9vMhHJAUqiquHNxarFbtN0gHYimjnWyAdA4MSC7wPfIA4wDQHGgCVEQ6BF+L/NR1IRdztH0NcK6xDtHc2aunhfYXpABgHG0Kys7DLdspF8g7u7OYpy3B26hU5w0/LMm6iCCNaWvK+3G6/hnCcFcViseDm6SOnuZB079SY2IFD1/8xO/UVQswcABOjIfkl6eQqr+Y7IyVRznDz/tI4pKo1sbuXr5zhyokSmJgogOkAmBgNyS9JZ3d5EYDcTFkS/pIa1ZiogIVrak3tZjoAJkUI0wEwMRq6RQDy82T1STEdAINgsav3u5AZAShqVwAmhRzTATAxGjJyAOQ5ALZcWQ6AaqdOk4JhV/EKwGKV9co0IwAmhsJ0AEyMhvQiLov5OJuoS748J9HExFCYb0wTo5EldWB+tjyVY6uLq5zhknvFmiiLBWTF6e9GXo7kxxO0ldU1MbknpgNgYjQkvyTzZDoATs6yHAAfWcZNFMNuUe93kZeTLWe46QCYGArTATAxGpKPWHlZ8hwAFw8vOcNVO3WaFBC7ig5ArukAmBQdTAfAxGhIjwBkySrjw8NPltSr6QAYB6NGAGTdH5iYKI2pBGgcnBBNMVoienFHInoD+AGuiJdHCkJx7jiwDSEFfIiiJaup2xWAu29xOcPDZRk3UYQR6+zOqJiPkZUuq8CgqDkAFoR8eXOgIVAJ0T3QH/HOykW8s84hpLJ3I6SAd6NuN1QTBzEdAP2phWgG1Bu42xHU/fo/wYgvW5/r//0kMBPRDChWvWVqhuQa7rzMa+TnZuPk4iZpvEeA5C7EIHo3mOiMjyflbSr0AQDITEsiV/o1k42ioxVRGdEMqA9iw78TLoh3WiBQG9HwDCAB0cDsZ0RfABOdMK8A9KMxsAyh/f8Sd9/870Z5YDiiG91yoCMqvQA1IhOJDVPsdhvpl89KNuwbcrd32T0xHQAjYCVSramTL52TMzwByFNoKXrgBHQBViJO88O4++Z/N0oAQ4F9wGLEgcZEB0wHQHuKAROBzUB7Bee1Au0Q7TrPACMQX7TCyAWpA9MTpLf09QoOkzwWEZkJkDOBiXxsKjpiKZekO5fAeaXWoTElgLcQ0cX5QBvkaHX8GwvwMLAVEcEMUmheEwcxHQBtaY64s38O5b5Et6MUolXnWWAO0FpFW2og+WV5LSFOslHPEuFYnWTditWSM9hEEVRzAJITZEUAJDu1OhGFOKicBj4HwlS0ZQH6It6Nhe1dVagxHQDteBVYA8i6aC4grsCjwCpE4s2zgLyOOdogPQJwSboDYHN2Iyi0suTxiAROE23wQYSRNwPJiKujU7+81qXj6X2bVTGYmihrD49Xah0q4oU4nOwFdl7/s5byxUGIa9EXNbR5X2M6ANrwEfA1+t7N1wF+RJyuRyMSeYyK5AhAeoL0MG2uDUIq1ZQ8HtMB0Iq2iHvoMUA0olLGHQg7tOHPEj8MaMKMYT3lZuzfwtXzp+QMN3IEIAL4FvG9m4i+kSxnYCzwvo5ruG8wHQD1eQd4T+9F3IQ/8AriBboSkdhjtKRBybt48pnDko3a7RBSua7k8YhkJllqQib3pBMicazU3X5o36rZ/PRSezlZ+7dw4dheOcOlJ6eogzPQDREdPIJIRPbTdUX/5kPgNb0XUdQxHQB1eQz4RO9F3AELIqFnPqKU8F2MkzR4SOrAq6f2Y8uXnmxdusYDkscirlyayZnA5K6UAaYiysvuSdyBrSz5/i1FDOflZJFw+oicKSQ/0wpTEnEgOQXMQ9y5q5mPJIdRQFe9F1GUMR0A9QhHhNyN+uW6mVCEo2KUpMGDUgfmZ2eSIiMKUKxSFM6ustq295Iz2OSuvI6IYDnM1rnjSYo/Ldtw/PH95OflSh1uR5yy9eRGUt8pxJVkGX2X4xBWYAri/WSiAqYDoA4WxEmlsMnD3pw0uBeRBKRHSDsZoR4micTjuyQbzrO6Uq5GY8njEScWszOg8ngjBLMKhM2Wz96Vv8k2fl5e+P80+ogAeQMDEfX2N5L6ZHm3OuCHEAwyUQHTAVCHnkBTvRchk1qIE8OF6/+urrF9yVGAK8d3Szaakw+R0bLkGbwxw5Zq0AuJGv/njkp/Hm5wPkbWHJKfZYlURpTuxQETEHK9hZkHMb9TqmA6AMrjinHv/aXgizg57AdWIxKHtJCQlu4AHNsp2WhmPkQ0fkjy+Ov0kzuByS08K3VgZupV2cbPHZb+TKHN/b8z0B1RanwUId5TTAO7WvE5pnS94pgOgPJ0o2g2hrEgPPF5iHvE91BX02C/1IFXju8iJz1F0th8OxQrX0OuHkArTFEgJakHNJA62N2nQGkDt5CenMj5Y3vkTLFP1gLuTgiiZO40MBfx7BWGvKOCUhnorPciihqmA6A8L+i9AA0og0gkiuOfpEGlXzqbpA605ecRv2e1ZMOZeVD3oT73/sE7Y0FUVZgowzA5g0OrSfYdADj290rsNlnN69RQJopCyOfGIUrmSqtgw2jcD+9WTTFDKsoSDsiqIwNwcnWnUvv+hDXtQUB4Ddy8A8hKTeTy4a3EbZ7PqQ1zyM+W3DVXSW4kDT6K6Oo1DpgBXFNg7lOIqoSyUgaf37mCck26SzKcmW8nqsOTrJz0AXa75E7LPRACKzFSJzABoBqi9l8yVZt2lLWAY9tWyhl+Ehm6Fv/BB9GBbwja5+TcFRd3T2q3eZwaLbsRWr0RXv6BZKYlceHYPvav+Z3tC38mL0d2N+TmiIoAo2kqFFqKYqhIT4Yi1MkkE1y9Kc3emo5XiTtXvmSnXSV25RRiFk8k9YLhOgCnIk4m45Bf+jQDeELKQK+gsjw6Q5ossJsTVPS1MH5QC07u/kvSHNeZCjwlZwIT5iAcTEmUr9ucwRPWSzZut9v5+OHSpCZKVvJV4hmoitj0+2KwyqLAspVo3H0w9Ts+hYfPnXthJcXHMWt4b07v3yLX5AvAD3InMRGYVwDK0kbO4NL12tP285V33fwB3HyKUa37a3T9+ShtPllG2UYdsVgNI+bni/iSHkIkJPVAeqRpg9RFpF8+S9JpaXmEOfmQZ5N9DQDihW22OpXOA4jnRzKNuj4nawHxsfvlbP4g/Rl2QTg+6xDfpecxyOZvtTpRrXlnBny3gjfnxtCs9yt33fwBAkLKMXDcGio1kC0xordGSZHCjAAoyyUkqul5BZah04S9uPlIS9y9duk0MUsmcXz5ZLJSLkuaQ0XOA5MQwkgFeZtGIiOKUH/g11Tr9oqksWW8LLjlpvJRh1LkZKZLXQKI+utGQL6cSe5DnBCfXW2pE3j6FmP40vOyhJ3+mvEVi8e+IXk8UAnRStdRSiGqbgZwD7ljrfEOKEGDLs/SuOtA/EtK0+ZJT05kdO+acpyqc0i8FjS5FTMCoBwlkSGlW/3xNyVv/gDewWFEPfMpj848Q9M3pxFURZaYjdKURiQqxQGzEXd5juAFSNb1TTgoPffqWq4ddy9fGnUdKHmO69RDiLGYFIxByNj8Aep3fFquqiOn9m6UMzwXx7ULWgK/I7L5P8BAm39YrQfo/dFMhi06w0ODP5G8+QN4+QfSou+bcpZThqJV3qgrZgRAOaIQJ5YCY3Vypte8K7h4SNI5uSNXY/dwdPF4Tq6dRV62ck1RFOIQIk9gOreqpAUDHyOU3yQ7qX5lIug6WVoAwckCEf4W0i5f4LOuFeQmMCUhkraM3BHOSFRAKFFKVlR0dnXnnfkn8A2St49+3rUCV86flDOFDZiMKJtN+M/f+SKuiYYg7vkNg6uHF3Xa9Sa6xxBKVZblh91C1rUUPmhdHJtNclCsBtqLKxVJzAiAckg+/QeE11R88wcoVrEO0UMn8disczQYNBrfMobqAFwNkcxz/vq/qyGqCt4AjiGEX2Q9nzkZ0tvB5ttFOaBvUCnqd3xazjIAAoBZGK/rohGxIqRfZckpN+jcX/bmDyjRUtiKCOcfQ3S3c0U4g+MQ4ezvMdDmH1Qugk6vfsN7i8/R491Jim/+AO7efgSXl/W/HKTUWu53zDJA5ZD8WbreI4FGLq7e/lTtOpSqXV7mwp7VHF00nrPbFmGX7oEriQ/iBDQESAQClZrYxV1eG4PUXDuezhZaPvkm2//8SU4zGBDXHiOA4bIWVfR5D5kdFZ1cXGkpL8z8f1zcPRWZB6Fp/xXwNgo+40pgdXKmatOORPcYQsX6D2KxqB8YvlfS4D1wqBukyb0xHQDlkKwUkiv/lOEYFgul6rahVN02pCecIWapSBrMTLqkjf17o+iL0bukPEHG1GwI9oCAkDDqtH+CnYt/kbukdxFZ4avkTlRE6Yi4/5ZFvYf7ybqnvplipcJJvqho2blhNn+f4iVp2PlZGnZ9Dv9gbfPqZEZWJItzmPwb8wpAOSQLjiefOUx+braSa7knXiVCqfvUxzw6I45mb8+gRDXZ+kWGo2RNWQdJcu2Qcf3Q327gSNw8ZTf5syKuAiLlTlQEqQbMROY7yd3Ll3YDRyqzIqBCVAvF5jIK4bWb8sTHvzJsYRztBn2k+eafm51Jwumjcqa4otRa7ndMB0A5LkodmJeVzrntS5Rci8NYnV0p37I3HUZvpNP4PVTu8BzOMkPnRsBisUpWAryZ5Bxx2PAPLkvr/u/Lng9xAlxB4ejHrhWlgEVI7PZ3M62ffR+f4sq1qKj14KOahMTVxs3Tm0bdBvLqrH0MmbSB2m174uTiqstaDv31p9ykWlnCDCb/UPifbOPgBKQgStcKTLGKdej43XZDCPrkpKdwYtVUji6eQMpZWZ66bpRr0p2Ww3+XPY/VApX9LDhZRI+Bb/pGER8ruU/RzRxGtIyW36qucBMI/IUCiXAlwqrw6qx9ODkre0X8y+udObRhoaJzakWJsCpE9xhCVIe+uHv76b0cbPl5jOlTh4snJCfxJyPKAM1rAAXQf7cpOtiBR5AoUpF59SIWq5WSNVsouigpOLm6ExTZkCodhxBcvSl5memkXTiO3S6rIYpmuHr50eqDebh6y+sCB+KX6mq14OEMFquV4PCq7FoyVf4iRSZzc2A+YIjGDjoQgFCLrKHEZL0/mkVQaCUlpvoXZas1ZMeiKeTn5ig+txpYnZyp3rIrXd/4nkde+pLQ6g1l6yEoxbLxwzi47g85U2wDflFmNSamA6As5RGnOklcPLABFw8fSlQ1iIiPxYJPSHnCmz9GxXZP4+LuReq5Y+RlKdHrRx2sTs40e3smQVUaKTZnrg2KuYlgWUBIGFfOnyD+uCJRgDIIp3EhoofC/UQZxOZfU4nJGnYZQNNeQ5WY6hY8fQMILFuJg+v+kNMcSnV8A0No1vtVeo2cTsPOz1KsVLihri/WTfuCVT+OkDvNL4iIkYkCGOfpKBo0AWRJhwGUe6AbUc9+jm+pigosSVlseTnEbfqDo4sncOmAZKl+VXB296LpG78ocvf/X8J9LHher5nJTEtiTJ+6JMWfVmr6C0B7REfF+4GqwDJEZzfZFC9dnldm7sXNU3ktjZvZt2o2sz96htwsY4lqla/bnOgeQ6jeoqvi1x9KcPnMMZaMfUOpa5T6SBRcM7kV0wFQFitwAgiTPZGzC6HRXYnsOJiSNR1VztWWpFMHOLpoPCfXziA3U9+oQFCVxjR9fYpqYke+LlDW+5+vS9zBbYx/rplcbYCbuYLofLhCqQkNyiMI9Uf59zOIiM+QSRsoV0ObqFnC6aPMHvkUZw7+rYm9O+Hm6UPdh/oQ3WMIJSsYqjMwILoonty9ni1zx3Fw/QJs+ZIVvW/mGKKCxrhhmEKG6QAoz3vAR0pOGBBWnYiOg6nwYB9VFAPlkpuRSuzqacQsmkDymcOa2vYMLE3UM59SoVUfUDHcaQEq+Flwu6luRoFGMf/FBnyOqIVX5I1pIJwQ/SDeRcH3TpsBH9B2wAilpnMIu93O7mXTWfrDO6Re1lbdObh8tf8n9akd8ZBCVnoqu5dOZ8vccVw6pfi74C1glNKT3s+YDoDyFAdOoUBJ039x8fAhvGUvqnQaQkC4IleninPl+C4Ozx/Lqb9+w6bc6fgWrM6uRDwyiLpPfaSZU+TvCqW9/vnK2O12przWiSObFittaiPQGyEVWxQoj9DDb6HkpFWbduSpLxdgsepTzZyblcG66aNYN/ULuWVtd8VqdSIi+iGa9nxZM6W+gnI5LoYdi6awbf5EMtOS1TCRgniO7veqGUUx3pNUNPgEcdJRjZI1WxDZcTCh0V2wGvDeL+PKBY4tncSxZT+RcUXZU1JY0x7Ue/YL2Up/Uqjoa8HtptTZjNSrfPtkPa5eOKW0qRSEbPA4Cm8rYSvwIuL7oKi4RHD5arz481ZDnIKvnD/JkrFvcEBedvst+AaVolGX52jYZYAifQ2UJj83h4Pr57Nl7jhO7lE9H2g4okGYiYKYDoA6eCESulTfoTwCSlKxTT8iOw7Gq4Qy8qdKYrflc277Uo4s+I4Le9eAjCxqv9AqNBg4mtL12im4woLx31wAEElOPwxoQnrSZTVM7kH0SdimxuQq0gT4Gmig9MSefsV5acrfFC9TQempZXFi13oWjh7KheP7ZM1TJjKKJj1fonbbXoZM6ktNjGfXarXl7wAAIABJREFU0mls+f0Hki+d1cLkaUQDpXQtjN1PmA6AejyMUDfT5DO2OjkTGt3letJgC1Xvw6WSHHeIo4vGc2L1dHIz/9sB+M64+wVRp99IKj/0rO5CSRYg7KaKgBucO7KTCYNbkp2hSjKkDfgV+BQhIGRkIoDPgK5qTO7i7smAscsJry252lZVbLZ8/p4/iRUT3yc9OdHhce5evtTt0JfoHkMIDjdMc8D/Y7fbid25lq1zx3Fow0KlkvocMg20BVZrZfB+wni7RNHia+BVrY36h1YlouMgKrZ+EhdPX63N35PczDROrJlBzOIJJJ26c+WbR7EQIh5+jqpdXlZE1EcpPJ1FWeB/id25lslDO5CXo1pfBzuwBBgJ7FDLiETqAkOBXqjUZMzJxZWnRs0n8oEOakyvKJlpSWz87Vu2zZtA2tU7N9sKqViTxj0GU7d9HyV6TShO1rUUcdqfO06ufr9UPgWG6WH4fsB0ANTFBVgKtNbFuIc35Vv1IbLjYALCFRFbU5zUC7Gc37GMpNOHyMu8BhYL/qGRFKtQm1J122B11kev/F6EelvwuU10du/K35j1/hPYbaqqJtoRYihTgXmA4+EUZfEBugPPAqp2k7I6OdP389+p3ryLmmYUJz83h2N/r+T8sb0knDoCCF3+kIo1iWjc3nDXGDeIj93Plrnj2LN8plpRLUdYAnSm8ObAGB7TAVAfT2AlKr8g70XxSlFEdBhAhdZP4mQQWdDCjJuTSAi8HXtX/sZvH/bTSjo2AyEn/BuwHlD7be2LcGi7At0Qz7eqODm70HPENGq37am2qfua/NwcDm34k23zJxG7Y43eqofbEM+Zee+vIqYDoA3ewFxAv+y163gEBFOxzVNEdByEd4lyei+nUBPsaSHQ7fZ/d+zvVUx7q5vWp6c8YDuw7vo/e5HfOjUYiALqAQ8C0agU4r8dbp7e9P3sdyIat9fK5H3HjaS+zXO+JyXBEJWnaxDO5f0mj605pgOgHa7AeOAZvRcCIqRatlEnqnV/hRLVdA1OFFosFqjg+29xoJs5e3gHk195WK3qAEe5AsQAR4GTiOuCa9f/nXT9Z3wAN4Q6X0mEkmUoUAkd2xZ7BQTRf8wSylatr9cSijSn9m5kw6wxHN6wEJvNMFH28cDLgHoiIib/x3QAtKc38AMKSaEqQZkGDxM9dCKexY1Xa2x0PJ1FVcCdvkiXzxzjp5faq6ETUKQJLFuR/t8sJbCs8t397ndSEs4x99PnOLplmd5LuZmrwCBAfg9vE4cxuwFqzwFER6tARCc03Z2w1PPHObF6OiG1W90XTkBWSiJXT+zhSuxuMhLPY8/Pw82nmKTSyVwbuFxvF3w7vPyKU/+Rp7hyLlYNadQiSdWmHen/zVL8gkqrMr/dbudyXAznY3YTH7ufjJSruHp44eKuejqD7pw9vINxA5sTL1OrQEFsCJXILphNfjRH983nPqcq8DbQE1ExoCuu3v48MvZvfEsXvVNXfm42J1ZPI2bJJK7G7sFu/3eWvrtfEOWadKdqlxfxC61SoLmdrl8FuNxFkdZut7Np9liWfPdmoekrrzVWqxMP9n+PNv3fV0XeNz72AJtnj+XA+vlkpPw7NcJitVI6oi6Nug0k6qG+OLveIbmjEHM5LobvnmmkllRvQckFZgJfIK6nTHTAdACMQSngOWDA9T/rRrEKten4/Q7dBXcUw27n1IY57PzpLdITztzzxy1WJ6p2HUrdfiNxcvNw2IyPC4R6We75jYo7uI2Zw3qSFB/n8Nz3AwEh5ej5wVTK11W+82VuVgZLf3iHzb9/71B5pn/JUB55cRQ1Wz9mSN19Kdjy8/imbxTxsfv1Xsp5YBLwIxCv81rue4rIW77Qk4Yo4foOcUUQhAIthaWQmXQRr6CyFK9UVw/zinIldjd/fdqTQ/PGkJue4tggu53LR7Zy6cBGyjXp5nDJZI4NrJZbFQL/i3+JMtR7pB+pifFc1P9lrDsWq5XoHkPo98U8gkKVb+WcmZbEjy+158DaeQ7LUGddS2H/2rnE7lxLqUq18A0MUXxdWrP1jwnsWDRFL/N2RFXKG8Dg63/Wt3+4CVC4IgDBQBWgLCJr2QfRMCULOIHoFX1nya3CR1WEBnxfRO21ZgSE16DzBMPcERaYzKRL7P7lPWJXTLkl1F8QAivXo+1nKx1WIbQAoT4WvB0skju1dyN/fDGEiycOSl5jYaZ46fI8+t5PVIhqqcr8mWlJTBzyIOdj9kiew2K10qDjM7Qb/DE+xYIVXJ22jOoRweUzx7Q2mwJMRzS0OqK1cRUJBiojuhO6AX6IQ1wKooPnYeSX32qCkR0AD4QK1MNAS8CRjKA4hELaImAxwjko7PgAfRDOQHWtjHb/5Tg+IcZUKbsTtrwcDs//ln2zPiE3Q5kS4qAqjWj72QqHWw47W0U+gLOD3yxbfh6bf/+BFROGk52hl6Cftrh5etPsiddo1e9tnFUSpcq6lsKkF9pw9rAyisnu3n60fuY9mjz+Ek4uxlSnvBOXTh3mq8eraWlyP2LTn0nROOl7AJ2AR4DmiEPovTiD0DNYDizEoHuRER2ACsDrwBOIzU8qKQh1tPFA4T3O/ptmCEegGyonDTZ7eyblW/ZS04SinN22iB2TXif1/HHF5w6u3oQ2nyzD2d2xjrbeziISUJAvV0rCOVZMfJ/dy2aQn1c0S6CdXFyJ7j6Y1v2H4+lXXDU72Rlp/PhCW+IOKt9AMbBsJTq9MpoqTR5RfG612Ln4F2aPfFptMznAH4iNf6PaxjSiLuLK4jHkRWGTgVnAV4Ch6oGN5AAEIxo/9EP53ITNiNr7eYgHtbATgtBfH4hjkZECE9X/M2o89pYaUytKyrkY/h73Mhd2rVTVTsmaLWj98WKc3RwrFQt0h2CPgn+9kuLjWD/jS7b/OZm8HEMeGgqMs6s79R5+khZ931Rd+z474xqThz7Eqb2bVLUT0agdnV8fq0regtKsnvwRKya+r9b054CJwE/ARbWMaIgbYsMfAjRSeO5cRP+OdwFd1cFuYJQkwH6Ixg+NAeXrf4SqWXdEpr0/cJzCLTN5DdgAjEWE28qhsGJbSK0WBNdopuSUinN85RTWjuhKyln1q4iuXTrN5SPbKPdAF5xc7l0ilpEHrlYL7gUUzfXw8afKAx1o2PlZAC6eOFBoywY9/YrT/InX6P3xLGq37YmnbzFV7WWmJTPltY6c2qv+AfTKuRPsWDQF/+AylKpUS3V7cojduZaTu/9SetptCMW+IWjTg0JtwoC3EDkLfVBHAdMJEVV4BlEBoXsWsN4OgAdCFOd9QIsONd6IMPpLQB2E+pShQjIFxAmhz94d8VkqRnjzxyleKUrJKRVl9y/D2TnpdWwahsuvXTzF+R3LKNuoo0Ntlq/lgoezBVcJ3zI3T28qN2rLA4+9SGDZSmSlp5B86YzDmex6YbFaqVC3OW2efZ9Hh/1ERON2uHmo3+Y2+eIZJj7/IOeOaKclk5+Xy8H1CwCoENVCM7sFJT72ADFblys9rSewGyHeo2rrSxWxIvqzjAa+B5oCjt3zycMT0UwrFFiF6OGhC3peARRDJEfoLUR/DJEn8Avirqaw0A4Yg6iMUJwOYzZRomq0GlPLJnbVVDZ9pfqd5h3xCipL648WO9Ri2ckipILdFXC1ky+eYdey6exeNkOv3ux3JDi8KrXb9SLqob4EhGjbZOp8zB5+fvURUi9f0NTuDSwWCz0/nE7d9k/oYv9exO5cy8QhD6o1/WHgFUTH08JCMeBphPRwRZ3XsgmRXOhgnbKy6OUA+CHCRrV1sn87MhCJGuMA6XVD6lMZ+Brx0KiCq3cAPWdfxOqsuzjhLWQmXWLeUxXJy9K3S6irlx8th88lpM69X6zOVijvc3elwIJy6eQhjm5ZRszW5Zzev4Xc7EzlJncAdy9fKtZ/kIhG7Yho3F7zTf8GMVuXM/2dx3SvoHDz9OGdBSfx8g/UdR23Iy8nmxFtg9T+jBYikreVz8JVjnqIK4ueKBwxlcluRCRX8wOoHg6AGyLs0VQH246yFZE0OBfI1nktN/AD3kNcX6hah1S161AaDBqtpgnJbJ/wKofnf6P3MgCwOrvScMg3RDw86J4/6+4kIgFOKnzj8vNyOXd0F3H7t3A+Zg8XYw9w6fQRxXIHnF3dCKlYkzKRUZSuEkWZyChCKtbA6qRZV+BbsNvtbJ7zHYu+eQ1bvm4R1H/RvM/rPPLSl3ov47Ys+OolNs/5Tm0zOcC3wMcYJ8fKHZHU9zzQQOe13I01wENo3AVRDwfge8QvozCQAPwMTEBoDOiBFZE08glQQm1jrl5+dJ18BI+AkmqbKjC2vFx+7VGc3Exj5RuFN3+c6KET75kXoKYT8F/y83JJvniGq/GnuXrhFGlXLpKRnEh6yhXycrLJupaM/Xo+gZunD04urnh4++Hi5oFP8ZL4lwwloGQ5AkLK4RMYgtVA0tCZacn8/nF/Dqz7Q++l/At3bz8+XH3FUJ/VDVIun+erx6qSla7JvnwJGAZMQb/8gPKIKqlnEI3XCgM/AC9oaVBrB6ALMF9jm0qQj6hSGIeIXmj1UDdFeNR1NLJHs7emU76VMe8yLx/ZxpKhxsxL8C1VkRbDZlOs4t1/VVo6AUWRs4e2M2NYT8O2V3556g7KVKmn9zJuy84lU5n94VNamtwFDEXcc2uBFWiPCPM/hDoVZWpiRwjfadanWUtX1RuxiWoqa6sQViACUR7SGyHCcxT11J1CEQ0zvkTU/GtC3ac/IbLjEK3MFZjTG+aoXu8vley0q8SumoqbTzECK9e7Y2vhPDtcywM/VwtW0wlwGLvdzqbfvmXm8N63dPIzEsHlq1GuutLl48pQqnJtrE7OnNi5TjOTiGS7SGA76l0LFEecnKdd/3dljKVx4ygWoAVCV0GTqwAtHYARCO+msFMckYH/EiLMdB7lulp5Iu75f0UkSGryELt6+RH9yo9U6WTsm5mTa2aQeEyxMq9sQNFLbLstn3Pbl5JwaAtBVRvj5nP7uvc8G6Tngq+L6QQ4wuW4GKa93YNt8ydit+WrYUKxZyGwbEUiozsoMZUqlK/TjOKlyxO7Yy15uZqkN1kQEuYDEblL21Fuc2uAuBr9GXHiD1BoXj3xRRwsN2hhTKsQiT+F597fUTwQ90s7EaIYTyJdy8AC9AJiEJoI2mSoWiyEt+hJ50kHqPBgH01MyiHt4kmlppqDiOi8jgi7KcqFPav5c1At9v/22R11CjLz4WSanRxV9rOiQX5uDqsnf8ToJ2qpIWQD4nf/MuJZ+F2JCa+cV+wZVY2oDk/y2m8HqdXmcS3bHXsCHyAipz2RfrjxQEQVdgB/I0TktNCQ0ZI3EHum6mj1238b+EwjW3qSyD9Jg45eUtYDvkFjPYTilaJoMGgMwdWbaGlWFn/0jyT1nKyOZnsQd5I3e9eDEMk3qjjDAeE1iR46kaDIhrf9excrhHoroxNQlDi9bzNzPxvIpZOH1DKRjziVTr7pvzVHfBcllyeXCKvCG3MOy1yadpzau5E/Rw/l/NHdWpvehPgu7nLw5ysgvqvPIOr4izqvIJ5FVdHKAYhB3MvIxj+0KsUrReHqE0BO2lUSj+3URAq2gNiApYikwRXcPmmwJP/0PtAsWcUjIJi6T31MxXZPY7EUnhwZu93GjI5e5EsPW76MqEC53e+iLyJjWZVt2GKxUr7VE9R5cgTeJcNv+XurBcp6O95GuCiTeDaWlRPfZ+/q2dhtquXa5iK+d7/e5u+cgBcRIlsFxsXNg082pGt5spaN3WZj+6KfWTH+PdKuatpR3Yb43g3j9q3crUAHRFJfOwyW1FcirAplq9bD06846cmJnDuyi4TTinU9PoaITKmKFk9pfcS9jyxCo7tQp99IAsJu7YibcuYIMUsnEbtqKjnXDCfmdwIREZiC6BHthtiM3kNet8MCYXV2pWrXl6nVe5hDMrZGIz3xHL8/ESp1eD4iBHm3wvgeiPalqmksWJ1dqdxhALV6vYtHsX/ndlosUMrTgn/h6jSrGCmXz7P6p5HsWDRF7W6I2Yi68IV3+Rl3IB2JG87wpRfwDdQsd1cxstJTWT35IzbNHqt1/4lUhHbAt4jvaCDQHxGhudVj1hEPH3/qPfIUjboOpERY5C1/Hx97gOXjh3F44yIlzNUEDigx0Z3QwgF4D/hI6mCL1YmGz48l8pHB9/zZvKx0Tq6bxdFF47l6Yq9Uk2qRhRAWaoTG8pNlG3ei/oAv8S1dSUuzinLp4EaWvdZc6vAziIZJ96INIj9A1fs3ZzdPqnR5ieo9XsPN999tcYu7Q0kJXQQLK9eSElg//Uu2/P6DFmqGVxCO3noHfvYcEjttPv/TZsJqGrNc1RESzx5n0TevKbWJFYTjiJyqrhjsXr90RB0a9xhC3Xa9cXG/d0fQzXO+Y+HoV7DJS1odhogSq4YWb5pVQGupg+s/9xXVur9a4HEJh7dwdOE44jbNkxM2LtT4h1alwaDRlIpqq/dSZHNi9TQ2fvmU1OF/IcprHCECWASo7i05uXlQoVUfqnR+4V99BbydoYx30dYKOB+zh81zvmPPil+1ant8BOgExDr48xsBSQkyvUbOMGxfgIJw7O+VLBz9CpdOFZ6cBiVxdnWj5oOPEt1jCOVqNC7w+HVTP2fpD+/IWcISVJR8B20cgERE6VyBCarSmIe/2SzLeFZyAseW/UTM0kmkJ5yRNVdhwc2nGLX7fkDEI4N1lWtVkr3TR7B3xkipw39BZA47SjFEJEC1Dir/JaR2K6p0foGyjTthsVhxtYq8gKKUHGiz5XNo/QI2zR7LyT2aVDndYAXwOAVruDINkRtSYNoNHEnr/sOlDDUctvw8tswdx8pJI8hMS9J7OZoQEBJG424DadCpP14BQZLnsdvtfN+/MWcO/i11iniEloJqqL07FEPi5g9Qs5cs7wkAd/8S1Oz1LjUef4uzfy/m6KLxXNi9yvBtVaVgdXKmcofnqPPkh7eElgs7aRdPyxleUNm4qwhFsbHAve+eFCB+71ri967Fu0Q5wlv0JLz5Y+RWrENJTwvF3LRYgXqcPbyDfatms3fVbFISzmltfizwKiIPpCBIruczqkqhFKxOzjR5/CXqtn+C5ROG8/f8SXLD2obEYrVSuUEboh99nsgHOigi52yxWGjV7x1+eaOL1ClCEO2JVet8pnYEoCawT8pAZ3cves1NxMlF+bdf6rljxCyZyPGVv5BzrWh4tSF1HqTBoDG3TZIsCix7rTmXDm6UOrwvMEPi2GcQm4gWfcL/hW/pSoQ3f5zqDz5Gjeo1CtWVwIXj+9i3ajb7Vs3WqzY+jX/U4aTQDxE5KjAVolowaLxmanuaEh97gIWjhxK7c63eS1EED58A6nd8msbdBxNYVvnUrNzsTIa38peTVFkJx6+tCozar5RGiM56BSYgvCadJ6ibyJeXncGpdb9ydNF4rsRqXgerCD4hFaj/3JeERkv2MgsFvz8RSnqi5NNjE0DOXVIEomRMs54M/8W3VEUq1WtJZINWVKjXEp9iwXot5bakJsYTu3MtJ3auI3bnWr1PwTsQkt1yXpzNELkjBSYgpBzv/nlahmnjc3D9fBZ/+3qhED66HWUio4juMYTa7Xrh4qau7tqoRyO5HBcjdXg9HNdKKDBqOwCSv0Qlqj1Ah9GST3wF5vKRbRxdNI7TG34vFEmDLh4+1Oz1DlW7vaJKlMRI5OdmM6OjF3a75Lrw0sAFmctwQ4hZDcUAOuPB5atRsV5LIhq3p2K9Vqq/xP5LblYGx7av5ti2FcTuXKdk/bMcbMBXiMojubWEZRHVIwXGanXi002ZODm7yFyCscnLyWbjr2NYM+UTsjOM1aHzdji7ulOr9WNE9xhCaPXbC3Opwde9anDxxEGpw+sjKiNUQe0XWRQSF+8TUoHuvxxXeDn3JivlMseXTyZmyST+1955h0dVrH/8sykkISTU0ASkIyggVaqCCIgUG/Kzi2BBLBQL6sXeEAVERUCaiqAioBSRXkQ6oTfpPYRAei+7vz+GKCVtZ87ZczaZz/Psvc+97JTd7Dnznpn3/X4TI497fPz8cDh8qNX5cZo9+dE1teSFlbjT//Bb//qyzVMRGgBGJX10Q6g92sYvOaB4CG3/70U6PPoKQSHmyqEnx11k1Q8jWT97HOkpph1NynAWsW2/3KD+fIBkRODnNq/PPUzZKrUMmoq9ib8QwZ/j3iB80Q//WkzbiTKVa9D6/gG06NmP4FKedQZ2uVy81TFUJUBqDOwycEpXYHYAUAvZbTiHgz4/nqR4OalSXGWyjV0OLBjP2fClKk+fhlG+QRtaPjeGcnVbeHzs1LgoTq6fR9SBTSRFniAjNZHAkmGUrn4TlZveQcVGHXJ1wFPlzNbFLPuftMHKAUA6esiFUsAI4GlspE5WqkJVHvnwJ6o3NkdV+kj4ama+/QjxUaqbKYbiBMYjaqbdyfIvCAeRLAd9+qul1L2ls8HTEbicTg5vXcnBTcuIPLaPxJjzBAaHUrri9VRr2IqbbrvH4wsdCKvmeaMHc2K31KmvoTh8fKjXqqtI6mvdDYePNZfpqX1b+LJvS5UuKgDnDZrONZgdABRDZDBKVRs06/8JDfsMM3ZGEsSfPcw/CydyeOk00hKiPT5+cLkqNOv/CTU7PmzaIpsbyRfPsnPGhxxaMhVnZu6JLKHX1aFp3w+o3v4Bw+d4YOF4Nn4l7SX1J0JO1AzaIKw7bZN56VcskCdHzTd88TmwbhHfvXavpxXi8mMnQi1Ous4qHxYjJGjd5v43JtLq3mcMnYzL5WLH0p9YMuGtPM/e/YoF0KJnP+7o/5bHFQldLhfbF89g0devExd1xqNjAxQvWVYk9d03wBY7MLM/foZNv0+SbZ4ClCBn+XJD8MRqIu0DEBBShnsn7yOwVHmDpyRHVloKR1dfSho8ZFpexr/4BgRxU+9XaNjnNfwCPZuEnpWeyt65Y9j98ydkpBR8++r6dvfT7pWp+AcZp3K8dfIw9vz6mWzzcYhscLPwR7gKvoWnXBzzoVhQMIOnbyOsmiH2G0Qe3cvYJ1p4QqmvoCQj7MXHAJkmjjMeYUDjNh2feJ27njfO/yw1MY6f33uCvWvmFbhNQPEQOj35Ju0fGoJfMc/mCaWnJLHq+xGsmTHKI7+bqg1aiKS+Lg/iV8weIoJnDmzjy74tVcomNyES6U3DEzIjzZF018pKTyHqn83U7PCgLQRtfPz8KVu7CfXueobrWtyJMzOD+NP/4Moy/h5U/dYH6PTe71zf5h58/DwrEH9i3VxWvncvJ9bOyfOpPyfiTu4nctdfVL+tD77+xsz74KJJxJ6UViObhWQlSgFxIpzNpiP8yBti8bFAVmYGp/eH06JXP2VTGpfTyZTB3YmNtIWIVibCU6M34unc7HO5GxHy0G5Tsvx1NOrU25BJpCbG8e0Lnd0uvcvKSOfQlhXsWDKTUhWrUb660SdhuePrX4zazW+nabdHiIs6a4qaoF+xQJp2e5Teb35Ll6ffpXLdm22xToDIi5j0YhdV8aR5CFM50/BEAFASkK5RSzp/gojty6ncrDPFgj1ikVwggstV4fq291Cv+7MEhpYlPuKIIUZEZWo3ocObP3NT71c8/nljju1izScPs2fWSCV9hKSoUySeO0b19vcbMq/dv3xKSnSEbPOJCBlYs4lDXLCzEVUH1zqFeJC486epdtMtlKuqpmi876/5/PWTlDGekbiA3xAL/1SEeYwnqAw8INOwWFAwt9zztCGTmDH8YQ5vWSHdPiUhhp3LfuH4jr+pXK+JR0tIg0JK0fiOB6jdrCNnD+4g4eI55T7LVqlFp75v8tB702nS9SFKhlmTJ5YbZw5sY9KLXYmJOKHa1QeIPBTT8MQRQDlEhq5STYxvsUDqdR9A/bufJ6SS9Wc7V+NyOTmz5U/2z/+Gs1uXuJ00GFiqPE37fkCdO/t73KY3Ne4CO354h38WfYvLQJWvTu/No2qrnsr9zLy/rEpA0hTYrjwJ92mNKBuUdjBSpUabu+k36nclOeEpQ7pzYJ2pDyH5sRJ4AwMcRSVojtAUcJvg0mG8u0Q9d2vXil+Z/kYf5X6y8fH1o9W9z9D12fcpXtKzaqFOZxab501h8YThJMVEudXW4ePDDW3uok3vgdRr1dWypL68uHDqMKunj2TLgmk41XeFk4DyiOMu0/BURtkCDDI1cDh8qNy8Kzf0fI4qLe+ypad9QsQR/lk4kUNLp5EWfzHP9/oHhVCvxwAaPfQmxYJLemiGAmdmBgcWfMOOH983RRGxTO0m9BqnliuRnhjLzPvLqHRRGrDSI7otQor2Hjx8NOBfPJSH51zguhB/SkucxmSmp/FO57JWlPtlIZ74RwEbPT34ZZRFeJlI8eHqeAKKq+XCfP7gTUQe3avUR04EhZSmyzPv0qb3QI9vm6ckxLJi2kdsnDuRtOSEPN8bXKocLXv1p9V9z1Kmsq2cgQER1Oz/+w82zP6Gg5uX4XIadio1FWGJbCqeCgC6YcJZRomKNajX/RnqdO1PYEnPl73kR1Z6Kqc2LeTM1iVE7lpDavxFMpLjCQ6rSukaDanc9A5qd34C/+KhHp/bma1L2DxxKHEnzd0dv3vCziuc7twl+vB25j/fTLZ5DMKPwg7URogI9cWDssK9vz9CiYo1CAuE8m7aDF84dYhP7zcmkbCAJCJufGNR0OI3mFjEMabbDJ25k0q1G0kPbEAJWb5UqNGAXkPHUPcWzzuGpibFs3XhdxzesoKzh3YRd/40AcVDKFGmPDWb3Eq91ndSv+1dtknqu5ykmCg2z5/ChrkTjNjqz4mWSO4+uYOnAgAHsA3JZMD88C0WSPX2D3BDr4GE3eA5hSdvJP70QbZ8+wqnNi30yHi3PPcF9e95Sbr9iXVzWfW+dDJVOGIb106UQegH9MUDeQLdx27495qoUNxBOTeSwY9JkOYGAAAgAElEQVTvWs+4p8zRFLiKfQjd/cmIoM1ObEfyvtX3s9+58ba7pQdePf0z/vjqNen27tCgfU96Dh6lnDNS2DmxewPrfx3HrpWzyUw3TTF2EdDdrM4vx1N7Py7gdUTmruFkpadyZMV0jqyYTtk6zbihxwBqdHwIv4DiZgznlaQnxbFzxofsn/eV25n9KsSdktbABiAhQulB0I62bNHAp5detyCMih7CpJ2Ky//W55NdFPNxEFrAbByTa/4vIPwVfsBEqVMDOIZkAKDqh6CgH+82+9Yu4J+NS2j/4CA69RtOYLDndyXtSnpKEtuXzGTDnPGc+cf0dKIshKiVR/Dk4c8SxLnevWYOcvFQOOvGPM2WSa9Rp+uT1OsxgNDKxrs8eQsul5NDi6ey7bvhpMaaJiiVK+lJasfviZ61AfY0my69XkZE/A8BXQBT7r4u4Gyyi+IhDvysSZ2JQ9wHZiKeclT1+j2B9G9INQBIMaCqyB2yMtJZPf0zwv/4gTsHfkSLHk/aMtnOU0SdPMiGOePZuvA7UhI89rf4EjDXBe8yPF00+RxCPc30OpT0xBj2zhnNvt/GUqPDgzTvP8IyWWGriNyzlk3jBxN92IokeIGv4i5Mwjmlm6jdA4Bs0oC5l17FgPaIgKAHklK0uZHlhHMpLqoEe0xR8gCwELHg/413LPqXI/0bUnXKCwgqodReloToSH798CnWz/6Gu4eOpcbN7SyZh1XEnT/Nwi9fZefyWUYm9RWE/QhBMY/h6fAuEngcsc3hEVzOLI6unMG8AY05G77UU8NaStL5k6z+6EH+fKWDpYs/QFBpNc+cxKIRAFxOOrACUTlQ99LL0EzNuAxIM/8K3ItIfKwPvAqswvsWf7BwByA0rLJSe1XOHNjG+Gdv5cf/PUjsOVsIQZnOPxuXMOqhRuxY+rOnF/9EhM6FR0turNjfWQoM9PSgaQnRLH+7F2e2mpKGYAsy05LZ/sO7zH2qPsf/mgU2cOYKqaRQuuNyqToyemMAcDWHUChFyxEXXEgz/bcRBRwxexAPIP0YHxNxXMkdzw5lby6Xi53LfmFkn/osnfQuGammlqVbyoF1i5g2tKeqep8M6QjBKePlEvPBqgOeb4HXMM6itUA4M9NZ88nDtrT5VcLl4uiqmfzW7wZ2znifLPtothNSUf4mlhwdQVZ6qmxzJ3BcevBCTnw6OK2PD72B40jep9JTkkiMkc+7sUMAkE1GajLLJr3HyAduYPuSn2xp+6tC9NljzBj+EFmZHt+kSgcexaQE+fywMsPjM+AZzDXzuIb0xFi2THzFk0OayoWDW1k0tD1/jXiUpAunrZ7ONZRQCAAUKwDOIs7WNTngdEGiN27Ie54UQFq/VuUYwE4BQDaxkaeY+dbDfPNMe04fMN8QzVPMGzWI1CRPKUz/Szwi1+dXTw+cjdUpnpOBDsApTw56Yv1vxJ82VWLZdFJizrFuVH/+eKkV5/ett3o6OeLj50/xclWk2ydGFrnzf4+SlFm4nuJMRD4P4Iz8z7BUxWr4+HjCrsV9ju9cx5d9WzLrw/6G6Ptbybkje9j/t2d0US5jJ6IMeLmnB74cqwMAgHWIOttJmO/uJbi0Ze6NZGWksXvWp8x9sh6Hlk5z23PAkwSHVVWSGS2CCYC5YYodZIq5iYCe9Z81F4VEQPldLF8/f0pWkA+gzcbldLJl/lRG9q7H6ukjzdaNMI3tSz16pJGO0ABphaiQsRQ7BAAgxFGeQRioLMIDuQHndq81ewjDOblhHvOeaUj4lDfISMlbQ9sOqGz/AyQUbg2AglAcoZBnirxlhrkBQGuEdW+QqaN4BulVXGUHAOx5DHA1qUnx/PHVMD5/8Eb2/jXf6um4zdHw1Z4Yxoko822EEMWTTm4yErsEANlsRpyJNEXcPEzLZks4c8isrg0n9sRelr7ehZXv3kv82cOeHHoPCltUIRVrKg2umANgFy15WeoijHCeMGuALJfpkXZfxGfwqKGACVhWCljmOqVraCniGvYIF04d5rtX7mbSi11MMTAyi4unTS1WSUYcdd8E3A94Tt6xANgtAMhmB9APqIKoITb8L5SR6nGHM7dxuZzs+ulj5j/XhLPbPXpUdBF4AWiCQglaiYrVlSZRhI8AHkAYgci7KF3CPyh3NzrXv/+RMwHBak52l2iE+CzShg42wLoAQG0HIApxDb+AuKY9wsFNyxj9yM2s+n6EV1QLpJuzFhxCKHxWQXh/mOu6JoldA4BsooHPgeEYnNHtb5HKVkHJSkth+fDubPtuuBHe0gUlE/ga8cQ27tL/lr4DqZQAOjPTSb54Vro93hkAFEM44c3CIDng4PLV8vz3vG7PpSpUNWIKID7Lr8AYoIBOBLZC+rcUG3lK6fpVDABqIK7hcYhr+ms8VHXlzMpk0bg3mDq0h5mmOYbgb7xnTCpizRqN/cytrsDuAUAQwizkJwxOKgqxsz+Ay8Xfo/tzZusST466DJGM+SIi8MpG+g6kkgOQGHkCl1P6kDoNUQboTVQF1gDy1olXEViqPAEh8h5DwaXCKB5qqEfRYMRnNCyy8BCnkVQxdGZlEhspX+RkQACQTTTi2r4Zca17hAPrFvHrh/1tvRNQrprhDoiBwC+IY2z7eRlfhp0DgAoI+dDHzOi8YqNbzejWEPYvGMex1T97arjDwN0IE5qrD+5KAOVlO1bZAVDc/j+BpypKjKErwi67lZGdVr/1AaX2DoeDRneo9ZEDrRGf1fMG9PJkAdJauCqeAIoBQEWuTcLci/ju70Zc+6azbfEMNv420RNDSVG7WUezuu4LrEThHmo2dg0Ashd/U7KfcTio2eEhU7pWJTM1iV0zP/LEUPHAMOBGILfU3eqynfsHlSCwlPzvvoiYAPkC7yEqX8oZ2rPDQe3Ojyt307y7KTmI5YA/gXex7z3oaizJAwgpWxH/QOktage57+DNR1z7wxD3AlNZPvl9MmykUHo5N3d9CIfDNHOs1oggIMysAVSw48UXisg8r2/WANXb9ya0ij0Tkw8tnUZKTKSZQziBqUA9YCSiLjU3pFOQ1UsAldZwb6gACEPIf76NCddh7c5PUK5uC+V+rm/YmqZ3PmLAjK7BB3gH8R3Y8uZ4FfKlgAoBgMPhoEyl6tLtyfsILx1xD6iHuCeYtmsWfyGCrX98b1b3SlSo0YCbOpjqUn8j4tjFkKxaI7FbAOADzECUTJhCQGhZWjw7yqzulTkbburx3DqgJdCfgsmbWnL+D4W+AqAtsB24w4zOg8tVocUznxvWX6+hX5jpTNcZcSTQxqwBDEL6NxVjrRZAQRqfQ9wTWiLuEaZwcKN93Vh7Df2CoJDSZg7RGJiOzdZcW00GUTbRw6zOfQOC6Dh8FsEK8rSm4nIRuccUgaJTwEMIn3l3BLwtqQCAQhsAOBA2v6uA68wYILh8Nbp+tlIp+e+aPkuV47kJq42sCriaKsBqYAjiO7IjFmoBmB4AZBOOuEc8jAny7Ee3/2XbZMBSFary+Kez8Stmas7e3YjfuG2wUwDQAPjArM6DSlegy8eLqdjYtIQPZZKjI0hPjDW0S8QZ8w3Az7iv+yK/A1ChumxToFDmAJQEZgOjMKkUrkytm+n2+WpCTahwKVe1Ds9NXEPlOo0N7/sS/oiyqV8xqATSYLxVC8DdYzwXourqBsS9w7CD++S4i0ruiGZTu/ntPP3lYoJLm3oi9SHiu7UFdgoAxmCGfrjDQc3bH+HuibuocFN7w7s3EkXlu8txIRb8+ohEK1kTb+kcAJUdgIzkeNLilXRL7BYA3AxsBe4za4A6d/an+5h1yoFXXpSpXIMXpm6gRa9+po2BUEvbitgytRPSv6nEmPOkp8iLzSiqAcpeiMmIe8cNiJI2Qx7doxUqIjxBzaa38crPe2jS9WGzEgMDEYGuLbBLANAZE8qCytVtzl2j13LrsOkElrR/npGi+1024cCtiC1/6dKlS1SXbViikvxNS/HpP44rdQysph+wHjBFeMIvoDjtXp5K2yGT8A0wX3bfPyCIPsOn0OetqfibN14dYAPiu7MLUYCUAYfL5bLSFljVTOAk8CBwGyJXQwnV3RBPUKJ0eR7+YAYDv11LlfrNzRiiG3C7GR27i10CgNeM7CyodEXavjyF7l9upHwDu+cW/Yfiufd54ClEIs/fBkynPEIHQAqVJ9HEwuEBEIQQApmCSYY4oVXq0n3semp36WtG93nSoueTvDhtI+WqGi6ikk0Q4rubin0MhSw5BlAMAEKBsiodXGIt0AIhaxsl24k3BADZVG/clpembaLPW1MJKVvR6O5fNbpDGewQADQAOhnRka9/AA37DOO+af9Qp8uTOBx2+HgFR9H97hvEDdOoUh7pu05gqfJKUsuF4Pw/28inr1kDVG/fm55fbaZ0jUZmDZEvlWo3YtAPW2l4+/1mDvMkYjfAtEjDDSwJAAKDQyleUmkNN8pS0Ikwtpkg24GqO6Kncfj40KLnkwybc5COjw/Dr5hhp9RdEeWXlmKHFfL/MCDzt+otPbj729006/9JngYodsZmme8WVgAcV2lu9R2mN8L8xpSV2cfPn5YDxtBh+Cz8i1ufKxcYHMpjn/xKryFj8PUzTea/MSIvwNRIowAUlUTA/LDse7CKgOIh3PXCCF7+aQ/123Y3oksH4mjFUuwQACglRvn4+tFm0AQ6vT/flOxnT6KYBGj0leWtIkBW3WH8EYmspmWxB4dVpdvnq2lw7yAzupfG4XDQ/qHBDJiwmpLlTSuxtYOhkPzCp5j8ZnEewNVIfw8qssh2oFzV2vQbs5D7Xh+Pj6+fandWB7SWBwDlESpJcjgctHv1e+re9YxxM7IIG7rfye8AKCQAgu12QgpCtpHPYLMGuK55V3qOCyesfmuzhlCmeqM2DJm+jbq3mCbz70B8x6sR2gGexrIn37LWVALkhvSHiTt/mqxMKV8lW9H6vgH0eWuKajc3YUx+hjRWBwBtUNj+r3vnU9TsaE9Nf3exofudNRoALhcJatUQng4AuiCyo01ZmR0OH5o8/i53fPgHgSWNtQswg+DSYTw19k86P/0ODh/Tbi9tsMZQyBI5YLDdDsBp8pYQzxVVd0Q70eyux1W9MhwYbADmLlYHANKCCL7+ATR54n0j52Ipik+9xzFex7u6bEOVHICUmHNkyZuGuBDfhSfwQdRJ/4nRRj6XCCwZRueP/6TxI297VUKrw8eHLk+/y1Nj/zRTVCUM8d2/g+fuY8eRrIdPS04kKUY6eV5VDbC6SuMcUHJH9NY8gJzoNvBj1dwXS0WBrL6rSO9rVWnZnaDSFYyci6XY8Nxb+stVyQFQ/B4iMFC5LA+yjXxMW3zK39iWnt+EU7lpZzO69wh1b+nCkOnbqN7ItFLcy4MwTwh9JCHKbaWwsBTQDDvaIpcImBOhYZW5oU03lS5qGTUXGawOAKTdFyo0bGfkPCzHZpnvQchqADgcBIfJa8Z7wfl/9vazOSuzw8GN9w3hzpEr7etZ4QYly1dhwITVtH9osJmWq9nHMJ4Q/bBk4StVoZp0W4QMtXLG2lXoAOAS1RsrrUWmOhDlh9UBgHSxePGyprmTWULCOVtVAEjfLHz9A/BR2BKz4U5INg6EkcdqTEpAKxZcko5v/UqLZ0cpfYd2w9fPn15DxvDYJ78SGGxa6WK2odBgzDUUsiQD3q9YgEpOhQM7BQBeXglwNaHlKqk0DzZqHjIY/aNwF6lEEhDJJEbjzMrkwoFNxBzfQ3pSLL7+AZQofz3lb2xLYCkzdtH+w2ZPvtJpus7MDLLSU/GVdNWKP3NYdmgwLwAIRSjSmVa2U6ZmYzq89avXl7LmRcPb76dSnUb8MKw3EYd3mTFEdilmO4SMcLwJY0j/xi6clv9tpyUngpqTntGp97beAUiIjuTE7g3ERJwgMz2V4qFlqFi7IVUbtMDHx9fQsZzyydtg/N/FLawOAKQdMuJOHjBsEikx59jz6+ccXvodaQk5yMg7HFS6+XZu6v0K1zXvati4l2OzJ9+0Sy+3Za9czixiju2iXL2WUgNH7d8g1e4SZjxaNEbUn5umRFenaz9aPf+VR7T8raZc1Tq8OG0jv418ni0Lppk1zP0IIabegNGRhvRv7NTezdKDnj24Q8VKNwmRuGck8hURJqoB7l/3B2t+HMXRbatz/L6CS5WjefcnuO3RVwyT9408uk+lubxLlAFYfQRwWrbhib/nKg+elZ7Krp8+Yk7fOuydMzrnxR/A5SJi+wqW/a8bK9+/n/TEGOWxL8cA9zujFz4XClm+R1f9LNXu4uFtxJ85JDsswBGVxjlgqgytb0AQbV+eQtuhk4vE4p+Nf0AQfd6aSp/hU8w2FNqI+BsaifRvLPLoXs4d2SPVdvuSmbLDApxQaZwLSu6IacmJRs6F5LiLfPfK3Uwd0oMj4atyDZaSYi+wZsYoRtxXmxXTPiIzPVVpXJfLxZ7Vv6l0Ib0GGoHVAYD0whV7ch8n/p4jPfDxtbP57akGbPvuLTJTCx6EnVz3GwsHtSb5whnpsa9G8ek/FjA2IhFI71ceWjyZpPPuxw87flQq63QBu1U6uIwgxJa/aUY0odfVocfYDdTpYvT65D206NWPF6ZuMNtQaCrGGjLJreCIxWLZ5Pfcbhd99hjhi36QHRYUruU8uICkOyJATMRxwyYSe+4kY59owd6/5he4TXpKEovHD+ezPg3YvVJ+Hdm14lcunFJ6aDHjb1NgrA4Atqo03jjuJZIuuBdARR/dyeJXb2f1h31IjDwuNW786YMs+183twKHvFB0vzNrP22jbMOMlETWfvYEWW5E1wfmj+PUhoJfwDlwHBEMqZJtRWvaynx9u/vp+fUWS4187ELlOo2FoVBHJUXw/OiHcTs5FwDp6H/Xitlsnl9wBbmMtBR+evtR0lOU7jWbVBrngeWSwGnJiUx6qat0XkH02WP88HpvJjzXkbOHdrrVNvbcSX7/7EWpcS8jXLUDFawOAHagcAaSEh3Bktc6EX82/yAqNS6KDV8+x4Lnm3Nu12rZIf8l5vgewqe8odwP2O78PxslS+Fzu9aw4p27SY3LR/zE5WLv3DFs+kZZ336lageIs+OtiHN/wxFGPqPpaBMjH7sQGBzKYyNm03PwaE8YChkRaaxQaTzn42dZN+vrfN+XFBPF5Jfu5Piu9SrDAaxT7SAXLE8EXPjlK5w/rp4PdiR8NWMfa8acEQMKJNgUdfIgE57rSGKMtCwEiAcWo3YtpTA2HdJ9nEBThCWwFGkJ0RxaPAWXy0mpqjfgF3hlVUVqXBR754zirxGPcn7vOtVM2iuIPryNGh0fIiCkjFI/x1b9xIV/pBOEFgFLlSaQM6eBgUBx2Q4SIo5yZPmPOBxQsko9/AL+68rlzOLMlj9ZN+ZpDv45CUmBtcv5CNgv2dYf+BwYDciVL+RDcLkqdP7wD6q3fwDMq4d3m7BAhy2m43A4uL5ha2q36MTBjUtJSzIjgZ8AoA+iLn4l8uqZAYgEQylcLhcH1v/J0W1/ERpWmdKVrr+ixC/+QgQbf/uWH9/8P86fUF7cohClkUYrhQLcgqSUbfnr61Gv9Z1Kg0edPMivH/RXSY68ApfLxen94WyaN4mszAwq1LyRYoFX3v4SoiP568dR/PTOYyQqKDte4ndgtmonKtjg0qcP8IsRHfn4+VO6ekNhRuNwEH/mELHH95hSMphNwz7DaNb/E6U+lr/Vk9Ob/5Bt/gIwTmkCuTMJeMqQnhwOSl5Xl4CS5XBmpBN7cp9hRyiIHIjrkFMBrIL4/ZkmIlO5WRduHTadwJKeEKtzj/qlHPjY4S5wGUkxUcx8+xEOblpm5jDrEVbkMklYwQjvDUO2cQKDQylXrS7FAosTf+EsF88cxeU0bL2eCAwwqrOreAkYK9Pwxlt70ffzeUqDL/zyVdb8+LlSH3nh4+tHpdoNKVulNi6Xk+gzR4k4vNvI9eReRBBgGXa49AMQ57fG1GR4mNI1GnH3hB1Kffz+9E3EnpQuJbkLIYVqBk0QCmt2ZyxyTnydgRmYJCPrcPjQ+NG3aPzIW7bV8rdjAADgcjpZNuV9lk/5wMjF8GqigEcAmUjjG+A5Y6djCo0xvhQymx7AApmGlWo3ZOhMtWl9/n83EnlMqQTPSs4gpPCltXCMwA53pTTMe4I1HeUdBnu7323HmLN1M0kHvpBoNxgTNeQDS4bR+aNF3PzoO7Zd/O1MtqFQ/y8WEVzKNBfEbE+H1yTajgHM21o0huWYt/iDhTkAmempRhyPWMmXWLz4gz0CABBPcJFWT0IGl8tJWvwF6fYGuN+ZUeN7OW9gwAG9iUzGPQdAB/AV4gZuSg5M+QZthJFPM0+71RY+6rXqyuDp27i+oSluyyDugZ8ijrvc+T0cAkxTMjIAJ+LaNZPjKLgjqiTQJcVeMHNnyGwigPFWTwLsEwAkAMOtnoQsPr6Wad97wv1uM/CjyWPIch7hyOcOoxF5E8bjcNDg3sHc+dmqQmHkYxdKVajKcxPX0P5B5UqRvHgKoRfgzj1xOKCk4GUiP6BYZl0A1NwRFRQBvdwrYxgKGgpGYpcAAIRgx3KrJ+EuPr5++AeXlG5vMw+A3BiMQu2zibyAqMsuKC8jlyuQL/7FQ+k4fBYtB4z29puTLfH186fX0C/MNhR6AhjlxvvPY9LvSZHTCOMqT2DJMUDx0DKGa/p7iMXY6IHKTgGAE3EByu+nW0DxsKr4+MpbKthUA+BqooHHsNi44irGITT6C0pHYIQZEylTszE9v97C9e1M8wrSXKJRp9689P0WKtU2TURpMCIxsKD8iDiGsgsZiGvVCFGsgmBJAODr509o+euk21tEBGKNs82RqtVmQFdzFrgHkZXrFeLoIRVrKLVPPHdcpbknjbVXIZ64J3pwzNxYhXtPOCHAd5jwe6/T5UlavfC16Vr+6YkxnN22nOiju0iNi8LXrxjBYVUIa9CasBtaeXzXISsjnRO7N3Bi9wZiz5/GmZlBcKkwKtdtTJ2WnQkKKWXa2GHV6vLitI3M/XQgWxd+Z8YQExFlggW9vl4A6gHtzZiMmwxE2CJ7CgVTIDU1wDKVaxB7TtqyxNMkIUSolJSDjMZuAQAI1aqHgVkIgRZbU0IxAEhQkwH2tLH2t0BZ4GMPj3s564FeuLcb8RFQzchJ+AYE0er5r6jTtZ+R3V5D/JlD7JzxAcfW/IIzM+ePXLxsZW7oOZAb7xtieiCSkZrMmhmjWD/7GxIunsvxPb7+xbi584Pc0f8tylU1x97YPyCI/3t7GjVubsfvn71IhnwibU4EI5K0CqpUk4YoiVsGyNlgGsMwPL8bYVklQJnKNTi6bY1SHx4iHXgABXl1s7DTEcDl/A7cDSRbPZH8CKlYXam9l+QAXM4niKdvo+1FC8JixE3ZHSux2hgshBJ6XR26f7He3MXf5WLfb2OZ99zNHFnxY66LP0DyxbNs+244vz1zExcPmSctfnLPJkb2qc+SiW/nuviD2B0IX/QDox9uxN+/fGmYUltOtOzVnxemrDcj0OiK0NgoKPFAF+Q0BVTJAl4ERlowtqUBgBeQAHTHPK0WJewaAID4wm7D80+5bqGyA+DMzHDbzOgqrAgAQNTd98AcF8KccCFKRXvifvbs2xi4k3R92/vo+fUWytQ0xS4AgPSkOFZ98ACbJwxxq0Q08dwxFr18KxHblaTqc+SfDYsZP+A2t7ZcM9JSmDdqENNf701qYpzhc8qmct2bGfS9KYZC7+GeWFoc4mb/NZ47570IdLs0phVI34NiI08paah4QQBwCLgVGye32zkAAFHG0hSRaGObxInLUckBSIo6icsp/SCdjrWZ+YuBRoC0hnEBOY24wQ3GfeGVCgi5V2V8/Pxp8ewoOr71q6lGPtFHdrDwhRacWDdXqn1WWgor37uX+NMHDZtT5LF9fD/sfjLT06Ta7141l7FPNHfbbc0dAkuUvGQoNMpIQ6HmQDs322QgnsZ7IHKazGQB4hq0Ytchm1NICiJlZWYQd17+AcjGAYALUVLaFGF4Z1vsHgCAiKofQ2RxmyFLq3RXKlGxpnRbxQqAk1izDX85pxE3uvsBozU5ExFPYPWAJZJ99AWKqU4kuFwV7vxsFTfeN8RUI59DS6byx5C2BXK3zIuMlET+HtXPEOMrl8vFL+/1JSNV7TTuwqnDfN2vNVvmT1WeU244HA5ufXgoA8avomSYYRnisl4Yi4C6wAcoOJ7mwm5EsnQvzA8y8iMTEQRIoXIMUPY6+XvvJcyISDcBbRG/G3eOKi3BGwKAbNYAzRBPg0tQW/wyEU+ud+Beyc8V+AUUJ6hUeelJeOH5f27MRTyJ9EY8jahIdB0FXkck7b2LWh6ItGNbNpWb3EHPb8Ip38A0ryCy0lL4e1Q/1o1+SkUV8grO71vPKXmDqX/Zu+Z3Tu3bYsCMxJHArA/7M+uDfkYn7V1B9cZtGfLjduq0vMOI7u5B/ggpCXEEVQ2hyqdynOlEHIveA9wMqDnpGIv057qoUAkQUq4SfsWUzDsfRORtLEJN1jkTWAh0QrgjblCZlCfxpgAgm+xEsKqI8pu5FKy04jzCenEgwjmuB8LXW3ofqUTFGkpPhAkRSmu43XIjsoA5iAuqGvA0opLjCHkf38QhzsjeR2RQ10JIs6rmF1RCBIzS1Or0KHd8tMhUF7/40wdZOKg1h5d+Z3jfhxarP21vnjfFgJlcyZYF0/jqyVZcOHXI8L6zCS4dxlNfLqbVfc+qdhWKeKJTIRqhQVELaIH4rS8n71p9J3AQ+Anoh7hn3YVY+O2mgSufCKigBuhwOChTubp0e8S9fxkib6MKwtxpFqJePz/OIFxEnwMqI/KT7O6bcg12LAMsKBEIMZhsI6FyiC23skAJxEWSgnD8OkTuAkPSAYC6BkCh2QG4mjOIcqTskqRgxA2sHFAcUTYVjzhCMEtKtS0KbpflG7Sh7ctTlUSe8uP42tmsG+a4opUAABpoSURBVP0UGcnxpvQfsX0FLmcWDknFNGdWJofDVxk8K0HE4V2Mfbw5fd6aSsPbzRFQ8vHx5b5h40mJj2Hn8lkqXbXHuNr6rVwp0VsGsfgUR9y3EhH3qjOYL/NtFJZWApw/Lm0KdPkNPBKYcOkFUBqxnpRG6IiASEC+ABzGc0JLpuLNAcDVXEBORVBtB0ABL1EBNIIkxNOMcZlp+dNEtqHD4UPboZNNW/ydmRlsnfwa+36TslIvMBkpCSRGHiekUi2p9hdOHVY++8+L1KR4pr/xAO0eHET3F0cambz3Lw6Hg/vfmMChzctJjo+W7ca8kg+xOyA9MZvgraWAeSURxCDO8ws13ngEYDTXyzYsUfQ0ALyJG2QbVmnVg5JVpZvnSVLUKf58pYPpi382qXHyytoKC2aBcblcrP3pCyYM6KCUEZ4XQSGlueXeZ1S6MOfHUHjw1gDAUHEwb0QHAAp+8CGV5LNQM1ISSI2Lkm6P/XIA7IZ0Gni1Vj2NnMe/nNu5ioUvtiRqv+dyhJyZ8pbjWRmesys/vms9Yx5twj8bFpvSf4N2PVSay2f6Fg2kV/HE6EilXSbFAKCsSuPCgA4AFH4ExctWlh5U8ek/HvvakNoF6b9rmVo3GzkPXC4nO6a/y5JhnUmJiTS078JEUuwFpgzpztJJ7xru9V6xdkOV5qWNmkch5TySpY4ul0tpFyA0TP4ejMi/KNLoAEAhUczXP0B60CJ0/m8V0l6hxUoYd79PjYti2Zvd2PHj+7hcdkveth8up5Nlk95j8qBuJMUo7ZBdgZ/CtYpNRchshAurXAH9lWQ+ivz6V+S/ABQybVWe5uJOSWeugg4ACoL0apuWYMzmyvl961kwsBlnt1kp1OadHNy0lDGPNeXEbmOOS+KilEQz7WSDbVek70nnT/wjPWhenhQFwFuqLExDBwCiDl2KqP3y5k7n96yTbosOAAqCdPZb9BFF9U6Xi71zx7D41Y6qXg9Fmrjzpxn/7G2s/ekLZUMhxUDCVhauNkX6nnR8x9/Sg57crWSwZ55BhZegAwAhVCPFoaXfSWn5J188y5lwWXVbMbRK4yJCQcQ8cuTY6l+kB8028tky8eU8Hfw0BSMrM4P5Y4Yw/Y0HSE2S10vYuvA7lWnoKC5/pO9J+9cvknqSz8rMYIva31VNc7sQoAMAhdr0xHPHODB/XP5vvIrwKa+rLg67VBoXEaS9CSJ2rOS0hIxu9NGdLHyxpbSRjyZ3dq+cw9jHmxNx2P2f/v6/F3Jos5Ih226VxkWEPbINszLS+fObN91ut/anL1RLRz2pS2JLdACgqNu8dcrrRO5ZW+D3H1jwDUdW/KgyZAbmmFgUNpSMo/4e1d+tPI1DS6byx+A2xJ/RmzNmceHUIb56shVbFkwrcJvIY/v45f0nVYc2xgyhcLMDBX+WLQumsXHuxAK///DWlSyZ+JbscNl4jWa/WegAQKg9Sbs2ZaWnsvTNOzm87Ps83decmRls+244m8a9JDtUNhvwApcpG7AWhUTA1NjzLH61I2e25l2XnhZ/kbUjnzDUyEeTOxlpKcz6oB8/v/tEvkJF+/9eyPgBHUiKlRdDQmS4r1DpoIgQC2xW6WDuyIEsmfAWzqzcfXlcLheb5k1myuC7pO2pLxEHhKt0UBiQLpUqRDgRvs0NZDtwZWVycv08zoQvwwEEhJbFLyAYlzOL+LOHObJ8OmtHPs6pjQswoKLoa2C9aidFgCT+M42SIjM1iaOrZnJ+73p8iwXgXzwU/6ASZKYmEXN0J/vnfc3fo/sRdUApESk/ZiO8EyrJNK7T9UlKlM9d7DIs0JGrn1VMxHG2/vG9zLAgbq4bgfqyHeRFxKGdbJk/leS4aAKKhxAQHApAfNRZ9q/7g/mjB7Ni2sdGSBlvBz5T7aSIUAHhiCeHy8XR7X+xffEMXC4XQSGlCCgegsvpJDbyJDuX/8pvnw5k49wJOLOUndDnIq6tIo155ubeRQ9ggaE9OhyG+LFfRSZCvlI6wa2I8RLgGc1d48kAXkXM/y+EIY3bdBu1hgo35d60fikHPrncBY6Er2bCcx1lhgVhnnM7MBjh7mi80L9nGAqMsXoSXkJV4DjesbPcBeEEWKTxhj+UJ1gMnDC0R+MXf4Df0Yu/O3yPdx6XnAJuw3uDl2xciMWzA96ZSZ8EFDzhQHMKcD971vMcRh/rADoAyCYT+MTqSeSDC/jY6kl4GXHAJKsn4SZLEEdShSlBaT3iM3nbE9dEContqwf5yOoJFIAPUcgPKkzoAOA/pmHvutBfEOeRGvf4CO+4iTuBd4C7UBAxsjFRiJyM9/COm28M3rGY2Y1NiPN1u7IfmGH1JOyCDgD+Ix0YgD11v+OBl62ehJdyEVCuFzKZ7MXxfbxjcZTFCbwLdMP+Qc6bgPl+yIWTIUiaA5mME3gGseOrQQcAV7MCe24ZPw+ctXoSXsw4QEkJxkS8dXtchaXY+5hjCWL7XyPHSWCQ1ZPIga8Aed3hQogOAK5lEPYS/pgCKCkHaXABT2CvRDRvT5BTJTvR8QurJ3IVJ4C+2HMn0JuYAky3ehKXsR54zepJ2A0dAFxLKnAfopzFapYDz1k9iULCWaAnkGD1RBDJib0RJWZF2TAgA7Fd/ADimMtq4hElwUoWc5p/eRpRDmo1hxHXW7rVE7EbOgDImdMIQQsrn8xWAfdStBcIo9mBOH+20gVsJ9ACeydKeZrZQHOs9biIQdSGS2vaa64hDeiF0LGwimMIPQpdPp0DOgDInaNAW8Si4WnmAN3xzhp2u7MOEdxZkVMxFWiNdnPMiUNAK+A7C8Y+hVgkNlkwdmEnARF0/27B2FuAdoi/ryYHdACQNycRP6CZHhovA3gDsSWqheXNIxxoBqzx0HhxiByE/ui/a16kAE8izuA9dSSwHPFbsCLQLyokI45Vh+O5DPzvEDkmOnk6D3QAkD9JwCPA/Zh7NrgNaAmMQCcgeYJziKe+lzA3L+BPoBHwg4ljFDa+BxpjbmVEHCK/pguiDFNjLi6ErsItmBtsnUEcOzyJDrbzRQcABWcuUAdRU27kGfIRxNNhC/RTiKdxIkqD6gFfIhJAjWIrYnG5C7GTpHGP44jvrxvGCmAlA6OAusAEdLDtabYhdlyeRByzGkUMYve0Lkb7uhRidADgHokIGckqiAzXjcgJt6QhfqT3IX6wP0j2ozGGCET55/UIA569kv3EIkqf2iICuqJU228WixGaAbciFNxkg++diIqDasArwHlDZqeRwYnYoq+DuAcuQNwTZfpZB/RD3JNHIAI8TQHxs3oCXkoiMPnSqzzQFZHAVB+xoJcESlx6bxIQiShF2YXwqV+DtZnompw5D3x+6VUd6IzITm+EuMGUAwIvvTcGUSVyGPFUswHxt9WlRuaw9tKrGCIYaI14kqwFXAeUvvS+FITK4EnE9bYVEYjpRDD74QR+u/QqiTizb4e43moDYUDopffGXXodBPYhHr6WYX9FSVujAwB1ziOe+q4WvXCgtxe9meMIVUg7KkMWZdIRiXt2VXbUyBEHzL/00ngIfQRgHnrx12g0Go1t0QGARqPRaDRFEB0AaDQajUZTBNEBgEaj0Wg0RRAdAGg0Go1GUwTRAYBGo9FoNEUQHQBoNBqNRlME0QGARqPRaDRFEB0AaDT2phJQ1epJSFANqGj1JDQaTe7oAECjsS+3IqyLq1s8DxlqIvT377B6IhqNJmd0AKDR2A8HwtlsJWIHQL4jh/wl7vBRvj2UR9ghD1XtSKPRGI/2AtBo7EUZhDtkdyM6CyxVXrptidLybS/DD2G/Wwp424gONRqNMegdAI3GPrRAbPkbsvjjcBAcJp8+UKqCoakHw4E7jexQo9GooQMAjcYeDETY3VY3qsOytZrgWyww/zfmQrGgYCrVbmTUdBzAx0Z1ptFo1NEBgEZjLSWAmcA4IMDIjmt2ekS5j6bdHjVgJv/SBGhoZIcajUYeHQBoNNbRANgMPGR0x8VKlKZWJ/XFu1n3xwksUdKAGf3LLUZ2ptFo5NEBgEZjDY8Am4D6ZnTe4tnPCSwZptxPSJkKdH9xpAEz+pdSRnam0Wjk0QGARuNZAoDxwI+I7X/DqdXpUep07mtYf7fc8zRNuhi2SRFjVEcajUYNX6snoNEUIWog6uJ7mTVA7S59affylALX8IcFOnA48n6Pw+Hgxg73EHP2OBGHdqpO8T0gQrUTjUajjg4ANBrP0BOx+Ncyo3MfXz+aPvkhLZ4a6ZaAT0ECABCCQjfedg9+xQI4Gr4al8slM839iHJAjUZjA3QAoNGYiy/wDmLbv7gZAwSWDKPjO3OpfcfjFGg1v4yCBgAgdgJq3NyeWs06cHDjEtKSE92d6lPAP+420mg05qBzADQa86gErEAEAKZcaxUbdeDuiTup3MRzkvs1m9zKoB/Cqdn0tgK3ufXhoXy22dVp4laXv4lT02g0buDe44JGoykoHYCfMMsRz+GgYZ9hNHnifXx85RW965dy4CN5F3BmZbJs8vus+n4EWZkZOb7H18+frgM+oMNjr+EQWw1/+fnw4JDmDp0HoNFYjA4ANBpjcQDDgA8wyWujWInStH/te6re0kO5L5UAIJuoE/+wYc54DmxYTPSZowCUq1qHeq270qb385Stck3aQxQOHn61hWO52sgajUYFHQBoNMYRCkwF7jdrgLK1m9Jh+CxCKtU0pD8jAgBJsnDxYVJL3n/X4XBaMgONpoijAwCNxhiaAr8CxqzMOVCr02O0GTQB34Agw/q0MAAQOPjDN4PHh7ZxRFs4C42mSKIDAI1GnceBCYBxK/Nl+AYE0er5r6jTtZ/hfVseAAhO+jj5v5dbOTZaPRGNpiihqwA0GnmCgCnA95i0+JesUo8eX24yZfG3EdWcPqz+fLNrkNUT0WiKEtbH/hqNd1IPmA3cZNYANTs+TOtBE/APMkUxGLDNDsC/uGBGcDADnr/R4bbIgEajcQ8bXfoajdfwMDARk7T8ff0DaNZ/BA3uNf+B2G4BwCX+wUHvV1s49lg9EY2mMGO/S1+jsS8BwGhgoFkDlKhQnQ7DZ1GubnOzhrgCmwYA4CLRAc+8covjpxz+1R8hrXwbQmwpDSEz/Duwz3OT1Gi8Gzte+hqNHamOyPI3bWWueksP2r36HQEhZcwa4hpsGwBk42K6bxbPDm3jSLn0/9wDfAVUyaXF78CLwGlPTE+j8WbsfOlrNHahEzALMGVl9vH1o8kT79OwzzC3tfxVsX0AINjm5+CBIS0cvYFPC/D+88C9wHpzp6XReDemKJVpNIWIZ4BxmHStBJWuyG1vzqRiow5mdF9YaLp9xdzdFLzSojywElGeOcu0WWk0Xo4OADSa3Hkesd1syjNyxUa3cdsbMwkqU8mM7gsNWRnpzBs9yF0nxQBgBuBCHN1oNJqr0AGARpMzj2HW4m+QkU9RYf+6P4g7L3Wk74cIAuKApYZOSqMpBOi7j0ZzLU0RZX6GL/7+xUNp9/IUrm9nml1AoePotjUqzf2Bn4FbgEOGTEijKSToAECjuZIQYA4mKPuVq9ucDv/7hRIVaxjddaEmNvKUahelgV8QQUDOvsUaTRFESwFrNFcyAlHyZyg39HiObqPX6sVfAn9jzI+aAG8Y0ZFGU1jQOwAazX80AgYY2aFfYDBtBk2g5u2PGNltkaJiLcPUlv8H/AAcN6pDjcab0TsAGs1/fIyB10TJavXp8dUmvfgrUr9dDxzG6CMUA94zoiONpjCgAwCNRnAjcJdRndXs+DA9vtxEqWoNjOqyyFKx1k00aN/TqO4eAa43qjONxpvRAYBGIxiIAVn/vv4BtHrha259/UdTXfyKGve9PoGQshWN6MoXeNaIjjQab8f+IqAajfn4AhFAmEonwsjnF8rVbWHMrDyAl0gBAxB18iDfvtCZ2HMnVbs6A1RFiARpNEUWvQOg0UA7FBf/sPqt6fn1Fq9a/L2NsGp1eWHyOirUvFG1q+sQWg8aTZFGBwAajbCVlaZ0jUZ0HbGUgNCyRs1Hkwsly1dhwPiVlCyfmxlggelsxHw0Gm9GlwFqNNBStqGPrx+3vTEDv8BgI+dzBemJMRxZPp1TmxcRe3wPyRfP4usfQImKNShfvzXV2t1LlZZ34XB4Jp53OrM4sG4Ru1fN5eSejcREnAAguHSYSNhr14ObuzxEUEgpU8YvUbo8D38wg/HPKsVteqtGU+TxktM/jcZUjgJSCj21Oj1G+9e+N3g6AmdmBrtnfcqeWSPJSEnM870lq9Sj5XNjuK75nW6N4W4OwP6/FzJ/zFAunMpbVTcwOJSOT7xOh8deNc3vYMqQ7hxYt0i2+WGgjoHT0Wi8Dl+rJ6DRWIwvMBLJa6H5U58SWrm2sTMCEs8dY9n/unF05Qycmen5vj8t/iJHV80kIzmRyk3vKHDdfFigg4K81eV0smDMEOaNGkRyfHS+78/MSOPwlhX8s3EJdW/pYspugH9AEDuXS7v9BgEfGTgdjcbr0DkAmqJOKYRhjBQVbmpn4FQEpzYuYP7zzblwcKt7DV0u9s4ZxaavXzR8TnM+eZa1P491u92pvZv54rGm7F/3h+FzqtWsg0rzICDUmJloNN6JDgA0RZ0A2Yb+xUMNPft3ZmUSPvVNVrx7D+mJMdL9HFg4nkNLpho2r03zJrNp3mTp9snx0Uwb2pM/x/8PpzPLsHkVDy2Dr38xlS50DpSmSKMDAE1RxynbMCs9FVzGlJKnxJxj6eud2f3LCEP63DrpNaUg4t95JcTwx5evKffjcrlYOe1jvn2+MwnRkcr9AWRlZuDKUgoodA6UpkijAwBNUSdWtqEzM52Ec0eVJ3Bu12rmP9eUc7uUfO+vIC0hmoOLJin3s372eFIS1AOJbI6Er+KLR5twdPtfyn1dPH1YZUfBicLfXqMpDOgAQFPUSQXiZBufXD9PfmSXi92/jGDp611IiTkn308uHF39s3IfO5b+ZMBMriT+QgQTB3Zi9fSRuBR2O/auUfjuIQow7jxCo/FCdACg0cB+2YZ7Zo8iMzXJ7XbpiTGseOduwqe+iTMrU3b4PIk5uouMlATp9ikJsUQe3WvgjP7DmZXJH18N4/tX7yElwf0H8bTkRKmkxMs4oNJYoykM6ABAo4Fdsg1ToiNY/8Wzbp3bXzi4lfkDm3Fq00LZYQuEy+Uk6by8bn5MxHGlJ/SCsPev+Yx9vBlnDmwrcBuX08msD/qRcFFp12SnSmONpjCgAwCNBlapND66aibrvnhGJAXmhcvFgfnj+HNoexIjj6sMWWDSE+WPuVOT4g2cSe5cPHOUr59qy4Y54/MNODLSUvjl/b7sWvGr6rCrVTvQaLwdHQBoNLASxfPgQ4unsOD55hxb/TNZGWlX/JvLmcXZbctY9PKtbBz34jX/biYul3SRAy6nfFt3yUxPZe6nAxn/7G0c2rz8mrEz01PZvmQmYx5tQvii6arDpQMrVDvRaLwdXQer0cB5YCnQTaWT2JP7WPPJw/gFFKdsnaYUCylDRlIcsSf2kRoXZcxMCznHdqzl2xc6E1yqHBVqNCCwRElSEmI4vT+cjLQUo4b5A/DM9oZGY2N0AKDRCKagGABkk5mWTOSev43oqsiSFHvBkFLBXJhmVscajTehjwA0GsHvwD9WT0JjOvsQOwAaTZFHBwAajSAL+MDqSWhM510U1B81msKEDgA0mv+YiUgILDJkmVvlZzfWALOtnoRGYxd0AKDR/IcLeB5ItnoiniK16GjhJQHPIP7GGo0GHQBoNFdzABhg9SQ8RXJmkVkPnwYOWj0JjcZO6ABAo7mW6YCSzqyBuABpPd/8hICS8lAhzsxP2ChvErHP0/bngPGmBhqNl6MDAI0mZ4ZgfblYDHA3sEy2g8Rzx/L895RMSM/lGCA+6qzssCCEdu7Bese9SYC6n7FGUwjRAYBGkzMuxLbxNxaNHw40AxYgnOukOBOef+wQm57zg/qRbUr2xBeA+YjPUHChf2MZizjOsctOhEZjK3QAoNHkThYiKXAQkOGhMV2IoKMtkP34fkS2s7PhS4g/ezjP90SnXVsNkJIQw76182WHBThx6b+PIj7LBJXO3CQNGAgMRpf8aTS5ogMAjSZ/vgRuAfaYPM4Z4C5E0HG5YYC0W6EzK5Mt376Sp1thlksEAZez9Nt3pWx6L+Py7yoVeA7oDkSodFoAdgItgfEmj6PReD2+Vk9Ao/ESziHkgqOA5kCwgX0nAZ8CDyOU6q4mFngZyYA9/vQ/OHx8qdjotlzfk5IFJYs58HXAtj9/5M9xb8gMdTmvcq3e/iHEmbwLcTTgrzrIZUQCwxBb/mYHGRpNocBh9QQ0Gi+kBPA4Ypv5RoV+TgETEYvi+XzeuxGxCyFN/V4v0Kz/J/gF5hy7BJLB0TkjWDb5PVUnwH3k/71UQORYPAtUURhrNzAO+BERSGk0mgKiAwCNRo2GQE+gI+KptnQe700EdgB/IxLkNlHwM+o3gY/kpykIDqtKve7PUKVld0Kr1MWZkUZi5AnObl/OgQXj860aKCCfAq8X8L0+QCvEd9geaIwIsHIjGtgKrEJ8hzntmGg0mgKgAwCNxlgqX3qVuuz/SwROA2eRT0q7DpFY5w3Hdg2A/ZJtfRHfXxWuPGaJRhzDKNUmajQajUbjjfyGOD+382u1WR9eo9FoNJqiShPEDoLVi3xer06mfXqNRqPRaIowv2D9Ip/bS1qxUKPRaDQaTd5UREgEW73YX/1KBW4w8XNrNBqNRlPkeQLrF/yrX0NM/cQajUaj0WgAIUpk9aKf/ZqLrijSaDQajcYj+AN/Yv3iv4m86/Y1Go1Go9EYTAngL6xb/MOBsqZ/So1Go9FoNNcQhDX6AEuBEA98Po1Go9FoNLngQFgWp2P+wu8ExmKskY9Go9FoNBoFWiK25c1a/Hcj9Po1Go1Go9HYDF+gP3AY4xb+YwibXT8Pfg6NRqPRaDQS+AH3A78Dabi/6KcDC4A+6O1+jaZQomt3NZrCTwhi6749wqmvDlCe/8r3EoHziF2D/cBaRHVBvMdnqtFoPMb/A4wKqzhyEqnFAAAAAElFTkSuQmCC;" vertex="1" parent="1">
          <mxGeometry x="548" y="1010" width="42" height="42" as="geometry" />
        </mxCell>
        <mxCell id="r_uU76btIgo6J_0ZWzdS-53" value="" style="shape=image;verticalLabelPosition=bottom;labelBackgroundColor=default;verticalAlign=top;aspect=fixed;imageAspect=0;image=data:image/png,iVBORw0KGgoAAAANSUhEUgAAAgAAAAIACAYAAAD0eNT6AAAABHNCSVQICAgIfAhkiAAAAAlwSFlzAAAOxAAADsQBlSsOGwAAABl0RVh0U29mdHdhcmUAd3d3Lmlua3NjYXBlLm9yZ5vuPBoAACAASURBVHic7J13eFRFF4ffu+mdBEIINfQivffeERQpVqQJAjYUuyjYFRU7TcECgoJioSggoDSRIvWTjqF3Qid9vz+GKCVt79y2ybzPs8/nR3bmTLJ775x75pzz01AoFHmdKKAV0ACoCRQHSgChV36eABwFDgB/AX8Ci4Hzlq9UoVAoFAqFFP7A3cBCIAVwe/hKAuYB3QFfi9euUCgUCoXCQ/yBx4DDeL7pZ/WKBwagHAGFQqFQKBxJW2Anxm381782AfUs+20UCoVCoVBkiz/wLpCOeZt/xisVeA7QLPnNFAqFQqFQZEoksATzN/7rX98DQRb8fgqFQqFQKK6jELAZ6zf/jNdSIMz031KhUCgUCsW/FECU7Nm1+We8FgJ+Jv+uCoVCoVAoABcwF/s3/4zXp+b+ugqFQqFQKABGYv+mf/2rj6m/sUKhUCgU+ZyqiCY9dm/417/OAkVN/L0VCoVCocjXrMD+zT6r13QTf2+FQqFQKPItnbF/k8/ulQ7UMe23VygUCoUin/IH9m/yOb1mmvbbKxQKQ1HdvBQKYwlGKO2FX3mdARKBf4BLEvPWADZKr858UoGSwBGd432vjI8FYgAfRM7DMeAgcMiANSoUCpS4h0IhS3ngZqAFIvxdPJv3HgbWIs7x5wA7PLDTX+8CryaieEUqdR1K0drtCCpYFB+/AM4d2smBP+exc95ELhzfL2vCF7gHeCuX7/cBGgNdgWYIRye7DoNnEP0PliL+hpt0r1ShyOeoCIBC4TmBwL3AYOTOvLcAE4HPgYs5vHcXUE6vIZePL7UHvMZNtz2K5vK58Q0aFPO5xNIJT7Fq1sd6zWSwEmiaw3tiEX+/wchVD/wNjAO+BM5LzKNQ5DuUA6BQ5B5fxIb1AiI8bRQJwBvAB4jjguspA+zRO7mmuWjx3NfENeuZ5Xsi/KF4iLgdLPrkRRZ+MlqvORDHAIUQpYHXUwB4CngEY7UETgAvIxyqZAPnVSjyLC67F6BQeAm1EKHnjzF28wch6PMmsA0h6Xs9Upn1VXs9ke3mrwHRgf89C7S97wUqN+kiY9IXqJvJv9+M+B2fxnghoWiEA7UOqGnw3ApFnkQ5AApFzjyMyMCvZrKdOERv/feAgKv+XbfdgPCCVL/r2WzfE+oHAVedCmiaRtdHx+LK7Kgg91S/6r8DgfGIM/siMpPmgmrAn8CDJttRKLwe5QAoFFnjA3wEvM+1G7KZaIjw+AqEQwBQSu9kpZp0xy8oe8G+cL8bTwKjS1agfP3MghG5puyV/y2DyAkYIjOZh/gDH155qXucQpEF6uJQKDLHhUjOe8Am+3URRw5dEUcEuoipmn0ungaE+Wf+swoN2+s1C1AY6AasB2rLTCTBg8AkVK6TQpEpqgxQocicsYhyNjuJBH4k5wqBLAkqmH2CfZAv+GSxPUYVLa3XLEBHoCf2b74DEcmII2xeh0LhOFQEQKG4kb6IMLwT0IBQvYN9/LI/uQjM5pg/KEx34AEgDPs3/wweA+6yexEKhdNQDoBCcS1VEHXl+YLArB7/8x6TgAp2L0KhcBLKAVAo/kNDbP7Bdi/EKvylEv29ihBUPoBCcQ3KAVAo/qMPoqVvviH/BAAA8dn2tnsRCoVTUA6AQiHwAUbavQiryWcOAMAo1H1PoQDUhaBQZNATIeyTr3DlPwegMqK0UqHI96gyQIVCMMiwmTSN0Jg4AsKiSLl0jvOH9+B2pxs2vZE4df8PK1iEImVuIiAknItnTnJw+3pSEmXUlK9hAKK8UqHI1ygHQKEQ7Wlbyk4SFluWarc/SVyzXviHFvj331Mun2f/qh/4e/b7nNr9l6yZPE3ZOi1pP2g0pWs2Q3P9F6BMS0lm62/fs/CTFzkev03WTCdEj4UE2YkUCm9GHQEoFGJDkMqHL99hALdO3EyFToOu2fwB/ILCKNumDzd/+Cf1h4zNsTbfSDRN/yV+9QZsNr7+gdz29HjuH7eEMrVb3GDbx8+fGu1u59Fpf1H35n6y5vyA1rKTKBTejnIAFApoJjO4bJs+NHn0E3wCshe401w+VOk+nE5jlxNaRKrLXq653hnxhMDQCANXkjUFi5XhwU9X0ui2IWha9ocSvv6B9H5+CjXa3S5rtpXsBAqFt6McAIUC6usdGFq4FA0f+ghy2LiuplCFunT7eB0lGpqbi6a5fAgpXFL3+MgiJXPckGW5qcUtPPLleopVyr1cgKZp9HruU8KipFSZq+f8FoUib6McAEV+RwN0P45X7v5wjmp7meEfGkmb0T9QZ+DruHzMScWJLFNd19oyCAqLpHDpKgau6D9cPr50eWgMfcd8T1CY51GKgOBQmt31qMwSKskMVijyAsoBUOR3opHo/Fem5R36LWsa1Xo/Rfs3FhEUFat/niyQWtsVanUwvoV+eHRR7h+3mJZ9npCKMNzUvJvMMgoimfehUHg7ygFQ5HdC9A4MiowxZOMuUr0F3catp0j1ltJzZRAQXpAKneQrGxvddr+sKNA1lK3TiuFT/6JMrebScxUqUV4mUdEF6E+QUCjyAMoBUOR3dKfk+wbq9h1uICiyCB3eXET1O57xKJ8gK+oNflsqATCD4IiCdHnoTel5NE2jdf9nGfzxItmz+39x+fji4+tnyFwKRX5EOQCK/I7u7jJJ5xPA7TZsIZrLh9r9X6XNiz8SEBale57KtzxEuXZ9DVtXg1sH0bD7YN3jg8OjGDB2Lp2GvorLZVzU/dK506QmJ8lMITVYofB2lAOgyO/obgaTfCGBc4d3G7kWAEo0uJmuH6+jUIV6ng3UNKrd/jQNhr5n+Jpue2o8Le4e4fGZfYmb6jN86l9UatLZ8DX9s3GFzPDLwEWDlqJQeCUqCUaR30kGHgGyL+LPAv/QSGJrGF9S7h9agHId+uPjF8DJnetIT8n+YTWiZGVaPPMVFTsP8ugIITpQy9XbNU2jQsP2lKzagIPb13PxzMls3x8YGkH7wS/Se+SnBIfrj2Zkx4IJz3Psn7/1Dv8H+NDA5SgUXodTW4ErFFayAmiiZ2BAWBS3TNxMcMGiBi/pP5IvnGHvkq84uPZnEuK3knLpPJqmEVyoONGVG1KqSXeK1mmnq+tf5QKax4JA7vR0dqxewNbfvmf/1tWcPX4It9tNYGg4RcpUpXLTLtTqeDeBIeEerye3HNqxgff71sWdrltj4Qegu4FLUii8DuUAKBTwAfCQ3sGxNVvT9uW5+PgHGrgka9DjANhN4sVzfNi/Acfjt8tM8wzwhkFLUii8EpUDoFDArzKDj2xcwqKRXUg6f9qo9Siy4GLCCSYOayO7+QMsMWI9CoU342W+v0JhCmHAMXTmAWQQGhNHy5HfeJ68ZyPeFAHYt3U10569nTNH98tOdQgoARhXwqFQeCEqCVChEImAVYBqUpNcPMOeX6cSEBZFoYre4QTkNgnQblZ88wHTn7+Ly+cMibJ8Aiw0YiKFwptRDoBCIUgApIvn3elpHFwzn3OHdlK0Tgd8/PwNWJp5ON0BSLp0nq9H3cvvX72DOz3NiCnTEZ+z7vJPhSKv4OBLX6GwnJVAY6MmiyhZmVbPz6JASXMEdYzAyUcAR3ZvYeozvTixb4eR084Cehs5oULhragIgELxH/uAe42aLOnsSXYv+oLQmFJElnam+qxTIwDr53/J50905/ypo0ZOmwr0Ak4ZOalC4a0oB0Ch+I9/EDKxVY2aMD01hX0rv+dywjGK1m5rmvSvXpzmAKQmJzL7zWEsmPA86akpRk//PjDd6EkVCm/FQZe+QuEIigCbgMJGT1ywfB1ajZxJaJHSRk+tGycdAZw6uIepz/Ti0I4NZky/E6iJaAGsUChQEQCF4nouAOuBuzG4T8bl00fYtfBzIoqXd0xegFMiAH8vn8Pk4Z05ffgfM6a/DNwMSNcPKhR5CeUAKBQ3Eo/IEjdcwSY9JYn45d+SlpxEkeotZPTsDcFuByA9LZV5Hz3Fj+88TEqSKQ/n6UAfJJs9KRR5EeUAKBSZswbRH6CNGZMf/98Kjm1ZRrG6HfALCjPDRK6w0wE4d+IwUx7rysaFX5tlwg3cD0w1y4BC4c0oB0ChyJoVwAmgAya0zb5wbB97l0ynUIU6hMbEGT19rrDLAdi9bgmfPNReRs0vJ5KBQcAUswwoFN6OcgAUiuxZi4gGdEayVXBmpCZeYO+Sr3D5+hFzUxOPpHyNwGoHwJ2ezpLPX2PWywNJunTeLDOngG4IxT+FQpEFDkj/USi8ghLATKChWQaK1+9Csye/ICAsyiwTN2BlFcCls6eYMfpetq+cb6aZ9Yhaf1OyCRWKvISKACgUueMcMA0IBxqYYuDQLv5ZOoPClRsREl3cDBM3YFUE4OD29Ux6sB0H/l5rpplJQE9Uox+FIlcoB0ChyD1pwC/AFqAjEGi0gZRL59i7eBp+QWFEVzYt2PAvVjgAq7+fxJdP9+TSWdP25QuI/v5vID4jhUKRC9QRgEKhj4qIvvJSCoLZUabVXTR6ZAJ+QaFmmTD1CCDp0gW+fW2QmVn+ANsRT/3/M9OIQpEXUREAhUIfp4DPgViglhkGEuK3sH/FbIrUaElQAcMbEwLmRQCOx2/nk4fas2fdUuMn/4+vEMl+h8w0olDkVZQDoFDoJxX4CZFw1hHwM9pA0rlT7F70OcFRsRQsZ7yfYYYD8NcvX/HZiG6cO2HavpwEPA48BRguGKBQ5BfUEYBCYQy1EUcCZcwyULZNHxo/MgGfAOOqEY08AkhNTmLeh0+y4psPjJkwc/Yj5Hz/NNOIQpEfUA6AQmEc4YjGMz3MMlCwXG1ajpxJWKwxfoZRDsCZo/uZ+mxv9m81dV+ei5BrTjDTiEKRX1BHAAqFcSQhogAJiBbChl9fl08fYc+iLwgvXoECJStLz2fEEcC2FXP55KEOnDq4W3o9WZAKvAwMRan5KRSGoRwAhcJ4/gR+R+QFGN7oPy0lifhls0g6n0DRWm3QXPovYxkHID09jUWfvsTsN4eaJeQDcBzoDnyG6O2vUCgMQh0BKBTmEQ1MB9qaZSCmWnNaPjuDoKhYXeP1HgFcSDjO9OfvZtcaU0X2fgfuBI6YaUShyK+oCIBCYR6XEA6AG2iOCQ73xeP72LN4GlHlaurKC9ATAdi7YRmTHmjLkV2bPbaXS9zAhwgZ37NmGVEo8jvKAVAozMUN/IboUd8RUwSFLrJ3yXRwpxNTvTmaBzu6Jw6A2+1mxTcf8PWoPiReMG1fPgvcBbwLpJtlRKFQKAdAobCKXYgEwSZAUcNnd7s5uvl3Lh7fT4mGN6NpuVMvzq0DkJ6exsyX+vHbl2Nwp5u2L69BJE+uNsuAQqH4D+UAKBTWcQb4EigI1DPDwOk9Gzl/eA+lmnTPlbRwbhwAt9vN9JF3smHBDINWmSkfI877lZCPQmERygFQKKwlDZiHiAh0APyNNpAQv4WQwiVz1TkwNw7A6tkT+G3qGINWdwMXgH7AGJSQj0JhKaoKQKGwjyrAt4B8Qf91+IdGctuU7QRGRGf7vpyqAM6fOsqYnhVJvHjO4BUCQsCnJ0LQR6FQWEzuDgoVCoUZ/A3UBwyPrSdfSGDP4mnS86yb+7lZm/9XQAPU5q9Q2IZyABQKe7mAyHp/ANFJ0DD2Lv5Keo4NC6YbsJJrSASGAPcAF42eXKFQ5B7lACgUzmAc0BjYa9SEp/ZsIC05Uff4pEsXOLJ7i1HLASHk0xKYaOSkCoVCH8oBUCicw18IVcHZhszmdnPx5EHdw88eP2DIMq4wF6iJUvFTKByDcgAUCmdxFpEY9ywGZMUnJhzTPfZCwglZ8yCEfJ4CuqFU/BQKR6EcAIXCebiB14HWSPbBd7v1N+0xoOHPcaATosRPCfkoFA5DOQAKhXNZBtQB4m1ehx72AtUBU9WCFAqFfpQDoFA4myOAoYfxFrEf0H/+oFAoTEc5AAqFQqFQ5EOUA6BQKBQKRT5EOQAKhUKhUORDlAOgUCgUCkU+RDkACoVCoVDkQ5QDoFAoFApFPkQ5AAqFQqFQ5EOUA6BQKBQKRT7E1+4F5AFigY5AXaAaUBooBARe+XkyoinKPoTYy0rgN0TPd4VzKQO0QXTiqwYUB4oA/ld+fhI4CuwG1gF/AMuBFMtXmr/wB5oDjRDXXFnENRh15efJiAZEB4EtiM9mMQaqLCpMIRJoBTQBagGlgBKA35WfJyKuub3897n+grgGFTpRDoA+whEa7gMQNyEtm/f6A+WuvNoATyB03xcCnwE/AtJN1xWGEA0MRGjV35TDewtdeVUFbr3yb2cQqnfjgVUmrTG/0hy4H7gZcf1lhT9i4yiBcBIGX/n3rcA0YApgiMqRQhpf4DagP+Le6JfNewMRTnhxxHcBhL7EOsRn+hVw3rSV5lHUEYBnhAGjEK1ZxwP1yH7zz4oAoCtC9nUn4gJQn4V9FAHGIT7X18l588+KAgjnYSXixtTBkNXlbzoDG4DfEU53dpt/dlQF3kB8xh8BMYasTqEHH4Rjthv4BhFBzW7zzwoNcQ8ej4j4jELcoxW5RG06uac3sAsYjf6bUGaURXiw6xDRBIV1uIARiM91KMIxM4o6iBDlL4hwpsIzSiOEhOYBNQ2cNwB4ALH5PIq6B1pNQ2AjMBFjr4twxL15F9DLwHnzNOrLnzOhCC/1G8x9aqiFCBs/h76ogsIzSiCeKt9GfMZm0QHYBNxroo28Rn/E36yNiTZCgbHAEqCYiXYUAhdig16OiMaYRQwwE/gac6/rPIFyALInDpHc1dsie37AK4gvcLBFNvMjdYE/gaYW2YsAvgAmA0EW2fRGgoHPERExq0K5LRDfhVoW2cuPhALfI0L0VuWd3Y64d8dZZM8rUQ5A1pRDPCGa6a1mRU9gARBig+28TlNEFUasDbYHIG5K5W2w7XQqAquBvjbYLgYsQyQNKowlHFGF0c0G21UR9/ByNtj2CpQDkDlFgaVASRvX0BSRUR6Y0xsVuaYu4kzZTseqBrAWkf2sEPRC/E2q2biGUGA+UNvGNeQ1ghB/0/o2rqEk4pinqI1rcCzKAbiRIERpXnG7FwK0BD62exF5hBjE52pkAqdeIoBvEWfQerKf8wr+wPuIIy8nZG8XQHxHou1eSB7hU0Rdv92UAH5CHavegHIAbuRtnJWNPwC4z+5FeDk+wAyc9RSgIbLQf8MZzqbVZCRhPmz3Qq6jODAddW+U5UFE2aZTqIO4tyuuQn3Jr6UjohzMabxD/twkjGIYosuYE2mM6BDZzu6FWEhHxO/c0O6FZEFbRNMhhT5KI3ouOI0hQHu7F+EklAPwH37AezizBC8ceNfuRXgpRRGVFU4mGtEv4AXy9jXpA7yIyMMoZPNacuI1oLDdi/BS3seZCcwa8AH5+9jtGvLyzcZTBiMykZ1KD0QYS+EZT+GMc/+ccCE2x/k4f3PUQ2G8y8kpADxp9yK8kEaILqdOpSIwyO5FOAVvuBCtwAfREc7JaMCzdi/Cy4jB+y72DojweF4qSWuC+J3a2r0QDxlC3nTGzGSk3QvIBSMQ9/x8j3IABF0R51ZOpxvOSmRzOvfinY13MhLkHrF7IZJowGOIklpv7LYXAtxt9yK8iFJ4h/5FGaCL3YtwAkoNUHCnEZNEV25IpZuHEFO9BaGFS5Gelsr5Q7s4uPZndsydwLnDu2VN+CJuSG/JrzZf0M+ISYrX70y59v0oXKUxwVGxpCZf5sy+v9m/6gd2zp9E4tmTRpi5noyclKZ4Z0vTMOA7oLtZBkIio2l462CqtupOTFxlfP0DOXfqCPGbVrLmx8ns/HOhEWbuRZxpK3LmHgx4so4uWYFGPYZSsVFHCpUoh8vHl4Qj8exZ/xsrZ33MwW3r5FcKdyBKA/M1Tkx4s5pAhDyo7pusX1AoDR/8iLJts273npaSxKavXmbz16+D263XFIgnw5YyE+QTSiOpAR8UGUPzp6YRWyvrlvRJ506xZuII9vz6pYwp0+j0zu/EVG2W5c8rF9BwZXEX2LP+NyYMdWbxRN0ufen66FiCw6OyfM+O1QuYMaoPFxOk1H/diAqcwzKT5BP+QKKyQ9M02gwYSdsBI/Hx88/yfWt/msIP7zxM8uWLek2BkA6ORkiz51vUEYBIrNO9+fsEBNH25bnZbv4APn4B1O73Cg2HfaDXVAaN8c4nQquREpIJjIim87srst38AQLCC9Lsic9pMmIyPgHeeNrgXfgFBnP7C59x+6jPs938ASo27MADn6wgOKKgjEkN78tdsINIhDSvbno8O4kO97+U7eYPUK/bAAaMnYOvv1ST1DCU/oNyABAbqm7qDnidmGrNc/3+St0eoGybPjIm/bC3Zaq3IFUx0fzpaYTFls31+8u378/N7/9BeDHV5t8soktW4KEpf1D35n4ejbnzxamyplX1Tc5URyL8X7/bQBrckvt+Z2XrtKLTsNf0mssgLyXa6kI5AFBJ78DwouWo1O0Bj8fVHvAqLl+pUtQaMoPzCVX0DixWtyNFa3velyeydHW6frSWUk176DWtyILqbXry8BdriS1X3eOxlRp3olzd1jLmK8sMzifofijx9Q+g41DPW3U0veNhoopK5W7rvvfnFZQDIDJXdVG2bR80l+dOb0ih4hSrI5Usqx4zc6aE3oFlWuvPCfULDqfVyJnUHzJW1slTAD5+/nR77D36vD6LwBD97RxqdZTqSqv7u5SP0H1PqtS4M2EFi3g8zuXyoU5nqWiq7nt/XkE5ABJ1vtGVGug2WriqlEaGN5Qs2k2k3oGFKkqKl2kaVboPp+NbSwkppDo466VATAmGTvydZnfIV0OWqCL1mWafbKAAiXtSXHX9p7Alb9J/D0b1eFAOABJtIYMK6i/JjyghFX0qIzM4n6A7QyggTCpp7F8KV2lM13HrKVpHtR/3lIoNOzB86l+UqmqMXEBwhNQeHmDIIvI2uu9JheP03wvDCsXqHotqCawcABnSki/rHhtWRGoPVxGAnNFd3pN8IcGwRQRGRNPu1fnU7DMKTVOXW064XD60H/wiA9+bT0gB4x7QEs+fkRmebNQ68igaEKd3sMw5flqK1EcjVY+dF1B3JDild+Clk4d0Gw0tEqd7LKK3vTGPqXmX83oHnt6z0ch1oGkuat4zinavzicwQknNZ0VIZDQD3/+Zdve9gOYy9tZ0eNcmmeHnjFpHHqUwOsV/NE2TcgDOntB/DwZOywzOCygHQDQB0sX5o//oNuoXFCa7GagoQPbs0ztw/6ofjVzHvxSt056u49ZTuIpU5alHuHyzr6nOjpzqsY0krkYTHp36FxUamKOKvPW3H2SG7zdqHXkU3fei0KgY/AKDdRs+fVj/PRgwpYWnN6EcAImN4sLReCnDoUWk9nDlAGSP7r7L8ctmcv7IHiPX8i8hhYrT8a2lVOk+HDTzG3EGRugPo4fINdDJFZqm0fyuxxgyfikRhc1JmDyxfydbl86WmcKcL0PeQfe9SLKMT9YB0H3vzyvkJS2AQES5TiyQ8ehyEfGEvw9IyWKc7m/QBYkIAEBYkdKc3LFG73BvSgQMRYjBFOI/cZ5TwCHguEk21wJ99QxMT0tlxTsD6Thmsa4yz5xw+fpRf8hYYqo2YcU7A0m5ZE6E2S8ojNCYON3jo4qVwS8wmJTES8Yt6ioCQyPo/fwUqrW6zZT5QXyWM1/qT3p6msw0ui/SXBCLuG9l1DgmIp5MDwIXTLRrJN7qAGQ3OBqogLhnhQFpwGXgGOLhQqq/tFPwZgcgEuiIUJ+qh2jqkFVEIwXxoa0EFgM/A2ev/Ez3N0jmCADydASgBNAZaIdot1marHUnLiA26xXA3Cv/bURyziqZwce2LGPF2/1pMmIKLh9zLpNSTXsQWbo6v73Sm9N7pc6oMyW2ZmspB8bH14+ydVqyfeV8A1clKFqhJn1en0WhEuUMnzuDtNQUvhndl/jNUl8FEPcNI3AhOo92QUgk1yVrtUo34t70F7AIcc86YNA6jEb3w4i0A3DIMAegKNADaA00I+ccqxPAcmAJQvTqqMxC7MIbjwBaAt8g/uDTEU95Vcj+d/FDdPO6D5hxZew3iA9aLgIgIewTFpunHAAfoDfwKyLiMgFxQZUhe9GpUKAV8DzwJ+LzeAb5JMeNSJ7d7lk8jV+f60ziWfOc/fBi5eny3irKt+9v+NzlOw2UnqN+N/k5MpvzwcmrTN38LyQcZ/IjndiwcIbsVLuBvyXnKAK8hHiqXw48jbj3ZCceoSGunZ7ARMQ19SvQC+dp2euPABTTfxtzu90kHInXPR5xr+kMLETcKz4AbiV3955o4DbgI8TnugDxMOpVAnve5AA0BZYhtMV781+YXw+BV+ZYBuiWcUtNusTlM/oj2HkoAtAT2IpwqtogdxGUAl5D3PBeRr/wkRvhmUtxeMOvzBlWh+N/Sz9FZolPQBBNRkw2VFCocJXGlKgvL3letWV3SlSR0nj5F7+AIG5/4TN6jfwUPxOFk+I3reS9e2qza+1iI6b7VmJsJPA2EI9wcGWK1jXEtTUT2IK45pyC7ntRwWL6TzLPnzxCSpL+UmzE33IeIlIp41T5AO2BX4B1QO7FYWzGGxyACGASYrPOWtdUP7VlBl84ql9xNkzOASiF/U8CpRChyVkY31c7BBgJ7ER46XqYhAHHCRdPHuSXJ1rxv9nvyko5Z0v59v3p8t4qaUEhv+Bwmj7+mSFJhpqmccfoL/AP0lXl9S/RJSvw0GerPRLy8RS3282y6WOZMLSVbHlYBmmI75AeeiK+uyMwvpFQZcQ19zNQ0uC5PcUXiVbJMkcAkuf/YI6oWm3gN2AqYu9yNE53AGoA64FBODS0IpMHEBJdUuaM1h+RWGcXNwObEHkYZhKLyA34EM87d21HeOXSpKemsHbiCJa+3Ivki2dzHqCTqDI1pASFfAOCafPiD4aqEhaOq0zfMd/rfmqXEfLJLYkXzvLlUz2Y894I0lKzyvf1mJ/w/IgwAJiM2KDNbjXbzV97vAAAIABJREFUEXENyod69FMCnblkPr5+UpUfBjgAZqEB9yDyNxytJOlkB6AzIpEr95qsNiBTCeDy9ZPtFW/XMcAI4Ees83A14EFgPlDAw7EjMbDj176Vs5n7YD1TkvYyyBAUajDsfXwDcl8jHV6sPJ3fXUGR6i0NX1OFBu0YNmmZRyFb/6AQbn38Q2khn5w4vHMj7/ety9bfvjdy2nTgBQ/HRCOSjAcYuZAcKIBwVEZYaPNqdN+DCsSUkEqwPXVIf/TVIsogogFmPyTpxqkOQHfge0B/hwiLOJ//egE8jzjXtOO70xaRbOPJbvIXMM3IRZw7vJt5wxuza8EUI6e9Fk2j8i0PccvETZRr1zfbhj4hhYpTd+Ab3DJhE1Fla5q2pOKV6zLi6610fuB1IqKzDj75+PlTr2t/RszYQpPeD5q2HoA1P03mwwGNOHlAd9uHrPgMkdeSWwoiNn8plS+duBDX5EgbbHtrCaBVhCIctK52LyQznFgG2BSR3W9dGzIJpHsBxJbh6Obf9A632gEYishmtpP6iMSdtuS+3/+jiCSdGKMWkZZ0mZVj7+P41pU0fPAjw5L3ricstixNH/+M+kPe5fCGX0n4ZyuXE47i4xdAaJE4ClduRKGK9UzpV5AZfgFBtOr7NC36PMH+rX+yf+tqTh+OJy0libBCscSWq075em0IDDU3OJSSeInZbw5j3bwvzJj+EPC4B+8PRjimZpwpe8LLiP4a4y20aV8JoHc4ACCOLr9BJBsaVVJqCE5zAIohnvx1K7lZjXwvgDiZ4VY6AK0RZTJOoCmi/GZQLt9/ChiI8MQNjVzsWvgZJ3etp9Xzsww9d78e/9ACxDXrSVwzZyR/u1w+xFVvLCXlqpcT+3cy9emeHNm9xYzp0xClxZ6oB03GOWe9HyCSDw0pgcgFEiWAcr3MvMgBAFHy+R1QEwf1DHDSEYAL+AIv02i+dOIA6WmpusdLVgJY1Q2wIKJc0kkO433AXR68fx7i+MJwEv7ZzJwH67FvhXTVoSIHNi+exQd965m1+QM8hWeb5yDgDpPWogdfxLUqpX/sAbYcAaSlJHPuuCGVHlYSg/hsHJPQ7iQHYACiztWrSE9LJUUiK9xLcgDex96Kg6x4H6FEllteR0QODCfl0jmWvtKbNRMeI924LHTFFdJSkvlp7HCmPtObxIumifONBd7x4P3FgLdMWosMRRHXhhXY4gAkHN0n297ZLtoB99q9iAyc4gCEA6/YvQi9pKfpv+FLRgBiMf+4pCGePWlbSSE8y0lwAw8DH5uyGrebv79/j58fb8nFkwdNMZEfOXPsAOPvb8Hyr03d08bi2bk/iIZVTq31vhtoYLKNEDxzwK9Bpgugl4X/r+d1hL6A7TjFAXgUAxO0rERz+RAQrv/UIiiyiEelXtebB+J0G88dr+OgkFUmDMCzUlE3oqTwMcR5r+Gc2PYHc4bV4fD6hWZMn6/YsXoB7/Wpzb6tq80ykQY8hCij86RctApik3UqGuLaNZM4dN4bAoJDCY3U7TvIagDYTSzwgN2LAGc4AAGI7HKvJDKuqpxYjKZJKbZh7jFAHYT2gpPxA4brGPcuoteEKY3+E8+eYNFzndk4dTRud7oZJvI06elpLJw0isnDO3PxjGmy7ccR/dv1HAs9iv2dOHOiFUKMyyx05yBFxsZJGfbyCACISKTRHSI9xglJXT0x8Ok/KDKGsNiypKelcunUIS6dNDdRpHh9vV1q/yO0SGnO7NetN2KmAzDMqIk0zUV48QoEFyxKatIlzuz720gZ3HsQyVue6tYuRLTunAk0MmoxGbjd6Wyc9hLHt62m+VNTCYyINtpEnuRiwgm+ev4udq351UwzKxDJe3puEOEYmPgXGBJOTOkq+PgHcP7UUU7u34nbuJbTQ4HBRk12HbZoAIA1DoCPrx+x5WtcyVVwc/rQPxzZvdmoTpOxiAcQQ7tXeYpTHAApfPwDqXTzUMp3GkiBklWu+dm5w7vZ9fNkdsybYHgLV5ePL+U7yjf9cmglgB9CGUuKoKhYqvV+gnLt+uIfGvnvv7vT0zi8fiFbZo7h6ObfZc0UQFxMeoRbDgItgDHAI5hw3HF4/ULmDKtDi+e+pnAV68vmvIn4TSuZ9uztRvXyzww34rz/aUBv+U5X9ItU/Uv5+m1p2edJytdrg+b6Lxh76ewp1s79nN+nvsX508dkzdyGcOT1lypljX1NgI7ES43PjqCwSJrf/RiNewwlOOJaYcALCcdZPXsiS754g5RET583buAObHYA7D4CCEKE4HQTXqw8XT9eR73737lh8wcIL1qOOgNf57bPdlKxy/2GNkyp2HUYYbHynYod2gugGZKlRMXqduTWiZup0n34NZs/iNyJYvU60XHMEuoPGYumSX8VZUIxKYiQbi/AlBTzDEGhv79/z1RBIW/FBCGfzDiL2BAfR25D7CSzCJfLh9ueGsfgjxZRoUG7azZ/gOCIgrS4ewQjZmyhQoN2MqZAlPA2lZ0kC3TfeyIlHYDE8560acgdLpcPjW4bwlPf7aTtgJE3bP4AoZGFaTvweR77aiMFi0vf+ztg8zGS3Q5ALbLXxM6WoMgYOo5ZkunGfz2BEdE0eng8XT9eZ0iv9MjS1akz4DXpeUB0A5TATAdAN0Wqt6T16O8JCM9BWlvTqNJ9OA0e/FDGHIjzTlm+A+oCmw2Y6wbSU1NYM+Exlr7S28jjD68n8cJZpj7d02ghn+vZgMhp+cGAuaS+a71GfkqjHjmnPYVERtPv7R8pU0taXdas9sS2RQCM7jRZtk4rhk/7i9ueHk9IgZyTuguVKM+Q8UsJi5I6vY4AzFPIygV2OwBSQuONHhpHcCHPytOjytSg41tLaDlypu7ku4gSlWj/2s8y2fvX4NBeAA31DvQLCqPZk1/g45f7HJdKNw+lZKNb9JoEIU0cmeO7cmYX4nf/zIC5MmXfiu+YY7KgkLeQIeSzZelsM818CjQG9hgwVzSizl4XNdr29kgS2S8giDtGfykrx2xWOaBtDkDxSsY0XowqWpp73/iWIeOXeKxWWSCmBLc+If3gIiVHL4vdDkA5vQMjS1enZGP9R9RxzXrS/dO/qd3vZXwDc39xlWragy7vrSIoKla37euRzAEogDEb3/Xojm9V6HQfIdGeS4TX7DNKr0kQZ/dVZSa4isuI8sKBV/7bcM4d2iUEhRaa5mc4njU/TeajgY3NEPLJ4BLQD9GtL9GgOXV/xzRNo919ngoMQmRsKep1lco1MkNRNRqJWnZZB6BWR7kKzIDgUDoOfZUnZv5Ntdb6pLcBqrXuSXTJCjJLMa9/eC6w2wHQrYVbsvEtoMnla/n4B1L9zufo8fkuqvZ8nMCIzEM/muaiWN0OdHhjEa2en4V/qKeKtNnjFxyec6g8e4yOAmhASb2DS7fSlyAdVbYm4cWlLibdDmUWTEFUB5iyQ6UlXWblOwNZ+c5A0pJM8TMcSUrSZb55qT+zXrmPFPN+7x2ISI7RakG6N9PCcZWJKXOTrrE120sVHZSSGZwFuu85oZGFCQiWy6EsXbMptXU4AZqmUafzvTw5awdt+j+Lr79cHzVN06jasrvMFLZ2WLW7CkD3QU5BA2VPgyKLUHfQGOoMfJ2TO9aSEL+VpPOn8PELJKxoWQpXaUxAmLmttcOKlCbp3Cm9w8sgZG+NIgCdNaouH18i4/SLokVXasi5gzv1DjfjOGQTIi9gCiKBzHB2LfyMU7v/ouXImaYKCjkBIeTTiyO7TUmzyGAWInpz3oS5dX/HSlbTfapGbLnqaJqmtzwwBJFsZmTjKwkRIGMu01tGvM/hXZs4uid3qs0lqzbglsfep2RVY09EYsrknIOWDVJnO7LY7QDojkD4BXsiCZ87NJcP0ZUbEl1Z/4Wql9AiZTi5c53e4UZvfLqlmDVfP3wkvOrwYlIP8WblQ5xFlKsOB95ElEgayum9m5jzYD2ajphMqab6Q5JOZvPib5n1ykAze/knA09grmql7u9YoeL6v9sBwaFomgu3W/ce7odTHADJ8H8GwREFGTZpOdNfuJvtK+dn+b7w6KJ0fuANane6B00yapwZkpVlht9LPMFuB0B3yu/lBMcoKhqCZB6A0Rtfst6BacmJpKel6u6O6LC/w9W4Ed0D1wBfI3F8lRUZgkI3dR9OnYFv4PK19d5gGGmpKcz74Amze/kfAHoDpvUMvoItG19qcpKM+I0b4/sA2O4AAASFFWDgu/PY+9fvrPpuPAf/XsupQ3sJCA6laIVa1Gx3O/W69scv0JiE7cw4d+KwzPALRq1DD3Y7AMf1Djy5cx1lWju5FbdnOKwXQCLii+n5QZ3bzaUTB3RXNji0IuJqViIyd79CKHsZi9vN/2a/y4ntf9Liua8JKWS4n2EpZ44dYNqzt7Nvyx9mmvkF6AOY1jP4KmzZ+M4c2697LCKC5RwHQLILYGaUqd2CMrVbGD5vbojftEJmeIJR69CD3UmAul2nf36fSXqq7gdVx+HAJ1/dLcjOH9XfptMAdUTdfSU84ASiGcxLgCmN/o//vUoICv21yIzpLeFfIR/zNv804AWgC9Zs/t6qfqf7QSsbdO/iRkYA7ObsiUNsX/WzzBR7jVqLHux2AHQXQl8+fYT/zX7XyLXYiuSTbxzGf5bxegdekHAAgiKL4BOgew+3Qh0xgzRgFKIDoSmbT+LZEyx6thMbp73oVYJC7vR0Fn4y2gohn47Ay5jkhGVCabxT/S5eZnAm+CBRJZSXHICfP35GtnnVNqPWoge7HQCpzPWNU1/k6KalRq3FVkJjSskkkwQg0ZwkC3Tfcc4fjddvVdMIi3FcNCQ7FiCOBEx5zHW709k49UUWPdeZxLNWPOTKcTHhBJ8+0pFFn7yIO920fTnjGMZUtaBM0N/61l71O6OVc4qjM3nN5eNLgRjPe4Q4kXVzP2f9/KkyU7gx6b6RW+x2ALYhxFh0kZacyOJRt7B3yVcGLskeXL7+Hnc1vA6jNz7dN40LR+WiWl6QB3A9BxCyyaZluQlBodqc2Gbr/SJb4jev4t0+tdn5p2nHFhlCPq3Qp+Ini23qd6cOSV1TRjsAuv8OEYWL45MHkltXzfqYWa/cJzvNZuC0AcvRjd0OgBvIun4jF6RcvsCyN/uwZHR3zh8xotOnfTgsD0AiAiB3v3HY3yG3JCPKBHtjoqDQz4+3dJygkBDyeZcJQ1py9rhufz4nzgI9gBFIVA9JYp/6nVwEwOhzZkdUANjByQO7mfLozXz/1oMyVRkZfGfEmmSw2wEA+NKISfb/8SM/DKrK+snPkHLZjP4f5uOwJ1/dNw2ZHABwXEWEp8xCaFxsMWPyDEGh31693RGCQv8J+TxmppDPRkQzJlulU7FR/c5hRwC2NwGymqRL55n/0dO8c2dVtq2cZ8SU6cAMIyaSwQkOwEoMulmmpSSxZeabzO5fkV0LP/OqxCmAMLmN7wHgPoz7THXfNC6fOU5q4kXdhiUjAMbXGHnOTsxpQ/sv8cu/Zc6D9Uj4x9SOetlyeNcmK4R8JiOEfEwTDPAAWzLfEy+e49JZ3V1CwTgHwAcYDOQsZZgFskchVuNOT2ftnM94s0cFln75JqnJSUZN/TMO+E47wQEAeN3IyS4nHGXlOwOZ93BDjv+9ysipTUUyAhANfAKsRVLK9wrHAX27uNvNhWPxug2HOlMe2VMyhGjuwzghmms4d2gXcx9pZIug0NqfpvDRgEZmC/n0R/z9nCKUEKd3oIwDIPn0fw6Q8h6u0AJYB0wEctbLzQJvOgKI37SSD/o3YObLAzh/yvDGc2OMnlAPTnEAvsGEkOnJneuY/1gzlr3Zh8SzJ4ye3nDCihjiHdcGfkd0q9NdqnMF/XkAR/QfO0pGACIAc4UbPGMyVggKjb3PEkGhlKTLzHx5ADNfGWimkM9OxN/sc7MM6MA29Tubz/9LATOB3wBpARZvcADOHDvA9JF3MW5wMw5u092ePTvmAMvMmNhTnOIApCPCSsbH7N1u9i75ih8GV+Po5t8Nn95IJCMAV6MBtwPbgdGA3j6YEpUA+m9aDlRHlMX0M+xdC6Ywb3hjqchLTpw+/A8f9m/I2jmmRhy+ReRQ2He2kTm2qd9J9gDQOzgE0WNhG9BLZgFX42QHICXpMos+fYkxvSqxYeEMvcJLOXEJkcjqCJziAIDIBfjIrMkTzxxn0XOdOLJhsVkmpAmOisU/NNLIKYMQzWq2A3fieRMTe3oB4LWVANmRkcX+OCZlsZ/eu4mfR7Tg3KFdhs99Yt8Oxg1ubqaKX0YVRS9MqqKQxLbEt9OHLS0B1IC7EXLKIzGws6ZfYDChUTFGTWcYbrebTYu+YUyvSiycNIqUxEtmmnsWMP4C1YmTHACAJzGxMUJaciK/vXo7F08cMMuEHJpGTDUjju9voAQwHVgO1PFgnI2VAHnOAQBR9voO0BqT6tgvnjjAL0+2lpGWvoELCccZb26J3wHEGbOpakGS2FcCaF0EoB7iQWwaJujUFyxWxhQ1PhmOx29j/P0tmPbcHZw5KqW3kBtmY65Spcc4zQFIQsiuxptm4Pxp1k50TATmBorWbmvm9E0QanaTgSK5eL+NvQCk8iGcnmq8AhM72V06eYg1Bn7Hf3pnuBlJUBlkdFI0W8VPFtt631tQAhiLyLdYjci9MIW46o3NmloX21bM5b0+dfhn43IrzP0F9EU8BDgGpzkAIASCWiOeCkwhfsV3nD24w6zppSjfvj9BkaaGyVzAAESI70nAP5v32pIDAF7fCyA3mNrLfs+vX3JyxxrpeeI3r2LDQlPKlU3XUjAYW9Tv3G43p4/E6x5P9lG8AOBpxL2gLybvB1WadzNzeo84vHMjU5/pbWYi69VsBjpgs/RvZjjRAQCx8TTDpGYquN38s9T2HgyZ4hsYQo27RlphKhx4E/gfkNWVqXsXT7l8XqryIg/mAGSGqWp2uxfJ99haP8+UVgamqymagC1HABdOH5M5k3aTdTS1O/A3ogRbd3VDbilRpR6VGnc220yu+eHth63a/FcAbXCok+tUBwBgHyJk/a0Zkx/d7IgqjEyp1HUYZVrdaZW5csCPwELgput+dgFxs9aFTBRAMgegFM7+bl/PL4jcDEPD4PHLZkmNd7vdbPpVbo5MyBDy8SadY9vU7yTD/0e5sYdCNWAx4jzakqOy4PAo7nxpmmPO/08e2G1V2P9ToC0O3fzB+TfJ84is4HsRWcLGTXzY9iZMWaNpNHlsMsXqdbLSajtEudoHXFtHb0segAPVEc1mPyIRzrAkocSzJ0g6r19r5OKZE1w+n2DUcq4W8jEtm9AkbFO/M1AEqCAwDtiAOGK1hKiipRn00UKiS1awymSOGNTKNzsSEblsgxB5bY7F6Q5AQUTZ1CiyP6v2mBSJVrVW4OMfSNuX51C7/6u4fHytMusLPIRoxPLAlf9vSx6Ay9ef4IJSe7i3HANcTTLwCKKHgyGCFheP689sNjAr+izihminkI8MtqnfGdAEyA94GFF6NhQRzTAdl48vTXo/xKPTNlC8kieFR+ZzIeG42SYCEcerj+OspmQ34FQHoBrwGeJJ4S2grNEG/AJDjJ7ScDTNRfU7nqHb+A0UrWVqdcD1FET0ZNiARNtP6V4Aci2BnV4JkB0zMUhQSEYYK+mSITlLmxBNkEwVDDAZb60AiEFE9d4HDG0wkh0VGrTjsa82cuvjHxAYGmGV2VyTbp5o1dWURexdB4EpGNBF0Qyc5gBUQ7RJ3IToox5olqGwYuXNmtpwCpS6ifZvLKT16O8JL1rOStNVEQksurgg0Q4Y8mwvgNyyAyEoZIhapk1MwcQ2yBai+7skK34j2QOgHVBFagEeUKhEOfq9/SODPlxITJnr04mcQ5GyVa00F4TQtPgLmAfUt9J4TjjFAQgB3kP8kW7G8451HlOkenOzTRhOyUa3cMukLdQZ+Dp+QaYn7koj3wsgTma4tzsAINqG9kX0bjAH8660VcBAnCPkI4ONXQCNVvI1nsCQcLo89CaPf/0/bnJQqV9WlK7ZDJf+/CK9aIiS1z8QgkqOOBpwggNwEyL7+RHEmbP5aBplWlqWZW8oPn4BVOv9FD2+2EPlWx+WSZQznYsn9uNOT9M9Pp9HAK7G0ATYDDTN1BuAKWu2CVuOANJSUzh7zKFdSwFN06jTuQ9PfruDln2exMfP0DQt04gqWpqaHWy7/7sQksqbEDLXtmK3A9AV8XRjaUwmrllPwos7JytVD4ERhWgw9D26vP8HhavY/j3KlPTUFC6e1J/wHRqjHAAz8XFGVZY3EKd3oIwDcObYAdIlHGgziavRhIe/WMsdo78krGBumoo6i45DXiE4QkpwTJbiCIXF/nYuwk4H4F5EYpBepTpd+IdGUneQI6SYDaFQhbp0Hruc5k9PI6RQcbuXcwMylQCSSYBFEeWAiizwt9v99w6CyF3b7EyR6gEgVwJoCgViSnD3KzMYNmm547L7PSEythSDPlxAmL3iRH6ItuyP2rUAu24BtyEShCyrbwMRPm/57AxCC5ey0qz5aBplWt1F9ynbqXH3C/gEGCbgJY1MHkBwVCw+/rrzQF1IPLnlB4Isvfq8ltLozJSQVb9z0vm/X2Aw7QaN4slZ26nZ/g7HNPWRoXilOjw2YzMNuw+28/hCQ/THGGiHcTscgNrAV1hUj5pBYEQh2rw8h6J12ltp1lJ8A4Kpde9obvt0G3HNe4tDXpu5cETiJqZphMbEyZjPC8cAFZAoxcyOYF9Tvx/RiC6T3o5UC2CZjdIJDoCmadRodztPztxG+0Gj8Qu0NGBrOqGRhenxzERGzj1Ax6GvUqCI7oaPskxAdA20FKsdgAhgFiaW912P5vKhbNt7uWXCJqtr6W0jpHBJWj73NZ3e/o2ocrVsXcvlBDkVuXyYCBiAKN96D9G8ZQdQyWgjPhqEmRsBuIn/1p8hgay/I4592CcDbLMDUKxSbYZOXMY9r35t58ZoCaGRhWnT/1me+WEvfd/6ngoN2lkd5fAFpiIcZ0uNWsmbWNSgxT80kvId+lPx5iFW1847hpiqzej60Vp2/TKFvz4fSeIZ0ztg3UCqZMfFfCIKFIgQZLoDsfmHmm0wwt+yAFEF4LErr7MIzYmvgPl4R1fAfOcAhEXF0HHYq9S7uT+aK38lirhcPlRtcStVW9zKif07WT17AmvnfMbl82esMF8EEQnoYYUxsNYBaITojWwqBcvXoVLXoZRpeaejzsLtQtNcVOh0H3HNe7Hpq1fY9uOHpKdaV6HlH1JAanxYbJ52ABojkmFvB+T+UB6gAQUDbTkeikBoe/RCiExNB75AdJx0KvY5AHJNgDzGx8+fZnc8QpsBIwkMCbfUthOJLlmBrsPH0nHIK/y1YDp/fDuOQztM/6rehmi+tthsQ2CtA/AqJh05+PgHEte8N5W6DiW6UgMzTHg9/iER1Bv8FhU7D2LtpMc58OdcS+yGF5fruCh5BODEdsCFEHXA/QDT21G6fG9MbioQkLsKAJMTo6IRvT8eQbQ8noxo/33OTKM60N8DQKIJUNKlC1b0rP+XKs260nX4OxQqYX2H1KRL5zmyewvnThwiKCySouVrEBJpaSQ8W/wCg2lwy300uOU+9m35g1XfjmPz4lmkJpum8/MWQh3UbZaBDKxyAJoiVMAMJbRIaSp1uZ9yHQYQGGFKnpQUacmJHFg9h0PrFnBk01KSL5wh+eIZQqJLEFW6OrG12lC+Q3/8gq3ztsOLV6DNSz9xaN0C1kx8jLP7t5lqr0gNuY89LO/0AqiIKPe5F1FaZglBBQpf8//9XBATlLun/1DrbsLVEDkPLwKfIBQRndIBx5Y2wFaF/2NKV6HbY+9SoYH1ydEn9u1gyRdvsHHhjGs2U83lolS1RjTsPpgabXvjq78SyHBKVWtEqWqN6DZ8LGt+mswfsyeQcGSf0WZqIRICTZfMtioO+BVwlxETaZqLonU7UKnrUIrX74ymOe+M6vyRPeyYO5FdCz8j6dypbN/rFxRGxS73U/2u5/APsVY4Iz01he1zxrFx2kskXzBM9vVfosrVotvH66XmSL5whuk9pLpmRgKWHOBlQUvE+XcXLE669QsO585vT/6rJqkBcWEawbl0+9NSknmhbRTJly1XzkxBCCK9g73HAwWR0HJ/5bdzBATra9n9v2U/8fnjt+g1nSNBYZG0Hzyaxj2HWak2CsDl82f4dfJLrJz5EWk5CPOEFChEva4DaNRjiPSRihmkp6exfeV8Vs36mJ1rFuFOTzdq6rmIRnmmYoUDEAEcQ7Ipi8vXj/IdBlK11wjCYg0XB5TG7U7n0Nqf2fbTOA6vW4Db7dkXIbBAYWr3fYnyHQda3t438exJNn45ih3zJ0m17r2eNi/+SImG8t/h6T0KyjgotbFnE2kGvIGN7T5LNr6V1qOECJ8GFA3WKODhVTjl0Zut0E/PjnnAs8BmG2zXBdbqGRhSoBCjF57QbfjPHz/l21eNT5lyuXxo0H0wHYe8bHknvPT0NNb88Cm/THyeiwme/W00l4tKjTrRuNcDVGzYwZHJiScP7GblzA9Z/f1EI44HUhBJgaflV5Y1VvwV2yO5+YcXLUfXj9fT6OFxjtv8E8+eZOvMMXzXrzy/Pt+VQ2t/9njzB0g8c5xV7w9hzoP1OLr5dxNWmjWBEYVo+NDHdBu3Xjpkn0GZVncasvmD11UCVEN478uwudd3xS73i//QoIiOzR+g4W33G7soz+mCcOCmYv1naVsCoI8JT+Xl6rZm+LQN3PbUOMs3/z3rf+P9PnX47o0hHm/+AO70dLatnMfk4Z15s2cFfp/2NpfOZh9dtZpCJcpxy4j3eXLWdkpUqSc7nR8WRACscAA6yAwOL1qOzu+tIjLOUrmAHDmx/U+Wv9WPWfeUZN3kp6Va3l7N6T0b+eWJVvz26u1cOG742VK2RJauTscxi2n1wrdSbXhjqjaj8fBJhq1LsiUuo/UoAAAgAElEQVSwVZtGHEK6dyNi07KVwjc1oVid9vhoUCJEI0qnC1656c2UuMl2BVMXcA+wHaFtb1Vygm0OQHSpilLjr6ZgsTL0HTOb+8ctJrZcNcPmzQ0JR+KZ+kwvJgxtxeFdmwyZ89TBPcz94Ale7lKcb17qz4G/dQVpTCMyNo6hE3+ndM1mslO1MGI92WGFA6DbFXL5+tF69PeOSfBLS7rMrgVTmPNgPeY90og9v35JWnKiKbbil83i+/uqsOGLF6Rr6T2lVJPbuHXSVmr3fxW/IM9K0uOa96bdq/PxDQwxbD0OrwTwB0YC24A+2C+whV9QKE1HTCHUX6NMuEa4RPsdTdO4Y9TnTukA5w88jGgwNAzz/9YSFQByX7sSVeoRXihWao6A4FA6P/A6j3/zN1Vbdpeay1OSL1/kl/EjGdOrMpsXf2uKjdTkRNbN/ZwP+tXng371WTf3c1JNuh97il9AEH1en0lwuFT+kukRRLMPm/2Bd/XaqXjzUMq162vsinRw7vBuNs94jWVj7iX+95lcPn3EErvutFSObVnGnl+nEhRZmMi4apZ1b3H5+BJTtRnl2vUlLekyCf9syTY/IKJkZRo/PJ6a97yQaemZDOcO7+bgmvl6h59EJKGaQXNEuL831jfVyhSfgCA6vvwTNWrVo3CQZojiX0iBaEpUqcfmxbNIT3OEOl0gIsrSAViHyDEyg4cAXWeOdTr3oXhl/WI5mstFQFAo21Z4Xq6raRp1u/Sl39s/UqlxJ0uT/NxuNxt++YrPH7+VbSvnkZ6WaondcycO87/ff+SP7yZw8cwJChYrK7v5ShMQHEp6Whq71y3RO0UB4HXAsMzC6zF7NykJ6I5jdxu/gagyNQxcTu5xp6dx8M95bJ87nsPrF+k61zea6MqNaDDsPQpVkD5f8pjEsyc58MePHN+2movH9pF88SxBBWOJjKtGsbrtibmpqWnOyaF1v7Douc56h28HKhu4HBDZ4WMQUp72Cy5cISymFD1f+poqNRuasqp/Nq7gq5F3cva4folnE0hFlBCOBowOle1EZ6+GQR8upEKDdlLG3W43kx/pxI7VC3I9plS1Rtzy2Hu2HNsc+N8afnznEfZtXW257evRXC4qNuxA414PUKlRJ9uSBs8cO8CrXaXaKJcG4o1ZzY2YffOqB6zRM9A/NJK7vrM+ySPx7Al2/TKZHXMnWn4Gnxs0zUXZdvdSp/+rBEXJhQi9hbMHd/D9QN17eCJCctqophpdEU1rHNOpxD84nPq9H6H9vSMICjW3lPTy+QR+m/Y2K7/5kKRL50215SHxiB4Lyw2azwVcRkQxPeap73ZRqIR8C/KUpMvMGNWHLUu+y/Z9EdHF6PzgG9TqeLflSn3nThzm53HPsn7+l7jdpveu8ZiooqVp1GMI9boOIKSA9cfJr91SmoQj8XqH1wXkaqmzwexvSlN0XpBG1JB7woltf7B9znjil80iLcW0Dk+G4RcURvU7n6HKbY/i45e3Ze/TUpKY1jVEJgpTDDgsuYxARIeuB7D7qV/TKFCyCrG1WlO5UQfqNG6Df4C1zVJSkxPZteZXtv/xC3vWLeXYP39baj8L0hAdR19GRAZkKAHs1zPQ5fLhteWXDOuk6E5PZ/OSb1ny2Ws3JNKFRxelcc8HaHbHI/gHGZd3kxtSkxNZNv1dlnz+GkmXLlhqWw++/oHUaNubxj2HUbKqdR1jP+hXXyZRsQmwysDlXIPZN7ImwAo9AwuUuolbJ20xeDnXkpp0ib1LprN97nhO73ZyO/KsCYstS71BYyjZxNokH6uZdXdJLp7UHXpuCqyUMF8FmAFUl5hDivDiFYit0ZrYmi0pUr0lRQoXJiZIw9f2lEPBuZNH2LN+KbvXLmH3uiV2K9mtRFQNxEvM0RzQVY9boEhJnvvJnOjhhYTjHN65keTLFylYvBxFytxkS3h7y9LZzPvgCU4d2mu5bSMoXqkOjXsOo2aHO/EzWTPmrd5VOB6vu+OqVzsAVRF9vj3Gxz+Qu747jY8JbSDPHdzJ9rkT2L3oc5Iv2Nkkzjhia7Wh/pB3HVcuaRQ/j2jBsa26o7v3IurI9TAYkchqeRp8RIlKlG7Rm9ItbieipDgCCXBBkRCNUEekHGbN0T1b2bBwBhsXzLDLGTgD3I/oKKiHfghtAo8pW6clQ8Yv1WnW2RzZvYWfxg6XSWxzFMHhUdTr2p+Gtw0x5MjmelKTE3m+daRMdUIlhKS2KZjtAEQBug/yjeokByKp78DqOWyfM57DG34FB55VyeLy8aVC58HUuvdFAsKtbfRhNsvf6seeX7/UO3wU8JKHY/yAj7FAwfJqQmPiKNPqTuJa9L4mAVbTIDoACgVqVhWCGILb7Wb/1tVsWDCDzb/O5PxpsxL2s+Rt4GnE8YAnvAi8oMdgva796f38FD1DHculs6f4ZcLz/Pn9JNIN7BbqFDSXiwr124mkwSadcRnUjXXL0tl8+ZSUum8UYHyf9itYcSs5icia9pjCVRrTeexyqezyywnHRFLf/ElcPK7rSM/rCAiLomafUVS8eajlfb7NYuPU0Wyc5uke/i+fIzL2c0tB4FtEH3/z0TSK1mxD5VsfoniDLjfoWwT5QLEQjQBrO0QbTnp6GluXzmbZ9HfZt+UPK03PQ2iReKI0+CWir4PHdLj/JdoOfF7PUMeRlprCH9+NZ+Gk0Vw+b9o+5CgiY+NodNv91O82UEqV0J2ezocDG3Hgf7ry4AGOAEV1LyAXWOEALEC0A9ZF3UFjqNrzcY/HHf/fSpHUt/xb0lOT9Zr3agqUrEL9IWMpWsd6pS+j2fPrlyx/q5/e4b+T+828CvATOuu/PcE3MISybfpQ+dYHKVCySqbviQ6EaC976s8N+7auZvn0d9mydLZVteL/A7oBuT20Xo7IHfGYO1+cSu1O9+gZ6ih2rF7AT2MflTm/9mp8/QOo3qYXjXs9QKmqDT0ev+jTl1g4aZTMEn4BOslMkBNW3FZGIWp0daG5fGgw9D0qdXsgx/emJl5k75Kv2D5nPKf3GtN20kAuI54qGwHGHzZlQ4mGXak3+G3Ci1mv9W0Ux7Yu5+cRujtj7gdK5eJ9HYGvEQJWpuEXFEqV7sO5qcej+IdGZvoefx8oHqwRlDcCOFmScGQfy2e8yx+zJ5ipr57BKaAHuUvuO4ioHvGYBz5ZQVyNJnqGOoKTB3bx07uP6WpCJMlORNl4T0TVjWMoVqk2jXoMpXaHu3Lsipmensbiya+w8JPRsmafQQiKmYYVDkAt4C/ZSUo07Ertfi8TWfrGROwz+/9mx7xJ7Fn0BckXz8qaMprdwAREQtFpRF3xcOA5INyqRbh8/anS/RFq3PUcfsGWmTWMiycPMutu3Q010hBJfNmFgm5HJApKNM7NHpevPxVvHkKNO58lsEDhLN8X7i+U+4zo4uctJBzZxy8TRrJhwXQjJVUzIwnRufGnbN4TiGgqpCu9/vn5h6Xb+NpB4oWz/DrlFVZ88wFpKZZGTc8iSjc/RFyjBYEBwBDMb+XtEUFhBajXtT91Ot9L0Qo1r/lZWmoK21fOZ/FnrxqlT1AdnUn0ucWKW4yG6N1tSEg1onhFosrVIiAsiuQLZzi5cy3nDu0yYmojSQfmI5LIFpJ5K8ciiJrlfljYPz4oMoba/V6hXIf+N5w1Oxm3O51pXUNkejQMBz4i82SwfsCnmNQaW3P5ULbNPdTsM4rQmLis36dBTJBGwbzd1iFbDu/cyLwPn2LnnwvNNJMC9EWUdl6PD0JvYKyeif0Cgnh12UXLm/HI4E5PZ82cKSwYP9LqJM10RFOtkcDxTH7uQkTlhiFC4Y66YUUULk50yQoEhIRx6ewpDu3YQPJlw5pRbkMcR5qKVd/SxxFNVPI6J4ApiCf++FyOqYNQOLM0ZliwfB3qD3mXmKq6jjltYfbASpw7uFNmio0IR+DqEPAwhGNgyrUQVbYmjYdPzLF9s59LqPbl9ZB/btn55yJ+fOdhjsdvN8tEGuIJ89Or/q0VouRTd//xwnGVeWKmI5oi5Yp/Ni7nx7HDObRdOkjrKcsQ12JuG7CUQZR1DgCcoQ5nLo8iWlybilUOQBTiHNbaVlXWsRoYh6g51vOIqiFC0GMQHcisQdMo3eJ26g4aQ0ih4paZ1cui5zpxaF3u+6JnwyzgScRZ4//ZO+/oKIsuDj+76T2BhBBKSGgJvYQa6dJE6aiAICoixYa9IIrYUUFRaYpIVRAE6R2kS+8QCCW0QAikkZ7sfn8MfKK0zdsT3uccjxzJzB03775z5869vzsKFb4Hzm6e1O77AVW7vXLPSgwPZwj1tuBceA6NmpCXk8Wqn0ayfvqXaiUK2hEv2oWIA4qsei2AyAc60H/MErnTqE7yxTMs/u5N9q+eo7V8bxziuydVn8EdcYXzPKB7n2qVSEW0F1e97ELLV47kulqDkoEIIY5DgRyH63givhxvoKHwjKuXHw2HfEuF1k9qZVIS2757nqOLxys1XQ4Sdd7vRel67Wj0wg/4hNz7+tLXVZT4GSq2aTDOx+xhzkfPcOHYXrVMKPYsRD/6PF3f+F6JqVQhNyuDddNHsX7aKHKzM7U0nYFIaPsKkRCtBPWAwUAvQF05P215D3E9rDpaVhbvRNRi+2hoUw2OA58i1OXmIGo1lSIXWA/MQNR/VkMDJy0/N5szWxZgcXKiZI1mapuTTMq5GC7sUuxuWPFn38nVnUbPf0eDQWNw87l9dv/NBLpDiKe5+d8L38AQGnTqj7OrG6f3b1ajJbFiz0KtNo8TVlP1Nu4Fxm63s3flb/zyRhcOb1ioWZteRJTlV6AzonW2koYvIKI34xHXr+UR0ebCTBxib8nVwpiW755rCFnVwkg+4kFrD0QgEoTUDM+cAXoi9Mg1u5zbM/V9OWp7qlOiqvFerDfwKxPBw99uJeLhgff8WQsiyz/Yw2KcXsIGx8nZhQefHsbzP24iIMSRik59KF7aUEnrAJw/uptxzzVl1vDeJF86q6XpnQgthScQZZVqcRX4GvFufghYRMGVH42AHXgW5dta3xE93j/jEck3hYEERJbqRIRnpgdWROTkEyBYbWMunr50m3zEkK2GbXm5/NojkNxMQ7WhpXzL3jR+eTwuHo4Ft8p4WfBT5fLhH/Jzc7gaf5qk+NNcvXCatCsXyUi5QnpyInm52WRd+6dc1s3DG6uzC56+AVidXfANLEVAyVACQsIIKBmKb1ApQylKZqRcYdb7fYjZulzvpdzCu3+eIiAkTO9l/J91075g+fj3tDzxA1wE3gWmcvsKKC0IQyQN9sdArbvvwWjgNS0N6uEAuCIUjlrqYNtRtiDu9uciLalPDXwRd0Mvo9Ld9Q2qdHmJhoNVT0CVxI6Jr3HojzF6LwMQdf2NXviOyg851i7AYhHiPr4K//byc3M4e2QncQe2cv7ILuJPHCDh9FHFXvpOLq6UrFCdMpFRlImMonRkXUpVqqVYu1sp2G02Vk0eyerJH6mtG+AwgWUr8tY845Qkr5v2BUu/f1tLk9mIzPVPAKN46W7Ao4ikwYLL+WnHcuARNI5c6BWBDADWIESCjEI6MAux8auWbaQAlRDhLmW6JN0GVy8/es5JwOqsmiaOZLKSE5jbrwJ5WZpFyW6Lq7c/rT74g5I1Wzj08xYLlPW04KPQnhkfe4CYrcs5umUZcQe2yuk2Jgk3T28q1mtFROP2VG7UTrfQd8zW5cx8r7chdOq7vz2BRt3ufQWkBRdPHGRMnzpanvwXIMq9T2hlUAJ1EGW/vdGhu+dd2Ah0QFyTa4qeV5D+iKQQvTUzjyGuJX5BtBAtLLRF1CyrIhbx0NcbDKsRcGLNdNEXQKeOjl4lQmnz8RL8y1Vz6OctFijnZcFLpj+VFB/HrmXT2b10OpfPyNJDUJygchHUaduLuh36au4MxMce4KeX25N6+YKmdm8mvHYTBo5bi5NBnOb5o55ny9xxWpg6iCilXK2FMYXwR1yrDgIq67yWVUA3dNj8QV8HAETpxvcIcQctyUckioxDPLiFtTewM8KjHYGIqihG45fGO5TQphd7pn3AvpkfaW63WMU6tB65CM/ijjXpsiDu/KWG/bPSUzmwZi47l07j1J4NWtdsFxiLxUJYrQeo+1Bf6rTrhZunNkU/SfGn+fHFdro4RmUio3h27HK8/I2hT2O32xnZviTXkm4nrqcYVxB9XiaibGa/lliANohSwo5oWxUH4rrkDXT8/PRuMJqHyK4/ich4VzsscwmhutcXmITjncGMihXRsCQSiY1L7kRQZENDlwSG1GqJd8kwLuxejS1Pk4oZStVpTZtPl+Hu6/iLPsTTgr8Ead9rSQmsn/ElM959nH2r55AUr1cOasFJvniGI5sWs3nO96RduUhIxRq4e6nbf8LDx59abR7nxM51pCYqWZl7Z5ycXWjW6xV6fzRT9f+/gpCdnsqKiaq3Iz6AkDmPQb9EPyU4AcxGRIAzEZUEagvWnUdUeX2Pzp+d3hGAmwlE1Nc/hfINWTYjdPnncfeGMIWFEGAAoqxS0Y3/BlHPfEqNxzVNIJJEyrkY/h73spL6ALclpHYrWo9chJOb43ojQe5QwqNgX7Gk+NOsmzaKHYumaH6vrxZOLq7Ubf8ELZ98i6ByEarays5IY+obXTm+Y42qdiIataPTq2MoEVZFVTtSSL50lk86Sm6cVVDOIw5TP6KsJopeuCIUQoeg/PV0BuLadhRC7U93jOQA3CAMkUzSG3lh7WSEZzceMFxvYIk0RzyYXVGxax1As7dnUL5lbzVNKMrZbYvYMel1VRpDBVdvSptPluLs7vjBIMBN1Po7SvLFM6yY9AF7ls8kX6OIhtZYnZxp1PU52gz4AO+AO3dDlEtudiY/vdSek3s2KD53UGhlOg79mipNHlF8bqXIz8vlvRa+WjuQucB8xLWqI+2WCwO1EKWEjyNPYOg8oj/MJG7f9Eg3jOgA3MAdeBghvtMKx9pCxiKaTCxGdOMzSgmfHHwQVxZDEMqAmtD9l1iHpGyNhC0vh8MLxrJv5sfkZijjYAdVaUzbz5Y7XOMP4OUCYd6OfbXy83LZ+OsYVv00UslOYobG3cuXFk++RbPer+BSgIhKQchKT2XC4JaKNblx9/ajdf/hNHnsRV3LHx3l+/7RxB3Yqpf5QwhHYDrGKQeUgysi6boNonw9krsfwLKAXYjI80JgKwa9JjGyA/Bf/BEffNnrf3ZDhPOTESI9sYjElKJCNcSm3xeN5ZMDwmvSeYKRKyHvTmbSJfZMHc7x5T9jt0v/3gVWrk/bz1fi6uXn8BgXK4T7WHBxQGPz5J4NzB/1PBdPHJS8xsJMsVLh9Bj2I5XqP6jK/OlJl/nhuaZcjouRPIfFaqVBp/60H/yxqlELpdmz4ldmDdc9gpeGcALGIZyCooIL4kBaGrEXOSEiIFcRKq7nKCSJkYXJAbgfcEGE94cgwv268MArP1KpfX+9zCvGldjdbB//CpcObizw2JI1m9NqxIICbf4WIMzHguc9RPMyUq/y59cvs2f5TMNn9auNxWKhYdfnePjFUaok0iVfOssPA5qQfPFMgceG125K59e+pXSEkeRKHMNmy2fsUw30aPN7J9YjHIEFaKRzb3JvTAfAGJRGJPQNQCT46UaxinXo+N12LFa9C0QUwm7n1IY57PzpLdIT7r0JWJ2cqdb9NWr3/QAnV/cCmSrlaSHgHhn/cQe2MmNYT0kbUlHGP7gsPUdMpUKU8gKhl+NiGD+oBWlXLjr08wEh5Xj4xVHUav2Y4mvRkqT4OCYMbsnVC6f0XsrNxCPuwichmvmY6IjpAOhLHeAtRB9y3cXWXb0DeGTsNnxLV9J7KYqTn5vNidXTObb0R67E7sZu+7fipkdASco17U6Vzi/gV6bgmer+19v63gm73c6m2WNZ8t2b5OcWhUIU5bFanXiw/3u06f8+FquyfcounznGtLe63/W6xcXdk5ZPvkWLvm+olpugNdeSEpg/6gUOrJ1rtGhTHqIq6zOKTpJ2ocN0APShPKIcpJPeC7mBu38J2nyylOIV6+q9FNXJTrtK6rkYslIScfH0wbN4aVlOj4sVKvpasN7h25SRcoXfRvTjyOYlkm3cT1R54GF6fjgNT19lO7vm5WSzfeFkdiyawvmY3f/vIVCsVDg1H+xB055D8Q1yTOCpsBEfu5/Nc75nz4pZRks2tSOuBV4FTuu7lPsP0wHQFguixPFDhAqiISjbuBPRL403ZAdAo2MBQr0teN8hJ/hyXAw/vtSepPjTGq6q8FO8dHmeGbOEEmGRqsyfm5VBenIi7j7+hhLxUZvMtGR2LpnK1nnjZSVHqkAGMBxxMDJUqKIoYzoA2lEckRH7kN4LAXHXXbZRJ6r1eJUSVaP1Xk6hpZibUPu7HWcPbWfyKw+Tnpyo8ar+xWXgKEKx7TSQgtAdTwdudNDxRiSgFgNKAuUQ1TaVAc0UZf6Ll38gT49eRLnqRm7iVjix2+3E7ljDlrnjOLxhITabpk3o7sYi4EkKV1+WQovpAGhDCLACqKH3QjwCgqnY5ikiOg7Cu0Q5vZdTqHFxgoo+tw/9H/t7JdPe6k52hqY9PnKBv4G1wDrE3arcNnmBQBRQD2iNUEfTrOONi7snfT+bQ5UHHtbK5H1HamI8u5ZOY/Oc70lJOKf3cgAOI+ruz+u9kKKO6QCoTylgExCu5yKCazQjsuNgyj3QFauz8YVMjI4FCPWx4H2b1M09K35l9sintEr2Swf+AH5FiGCpfcHrg3AEuiK6mKmtm47VyZmeI6ZSp53ude1FmvzcHA6s+4Mtc3/g1N5Nei8nFmiC6N9iohKmA6AufghZzFp6GHfx8KZ8qz5EdhxMQLjuwYfbknr+OOe2LyX5zBFyM1KxWKz4lY2gWIXalK7XzrDOyp2y/ves+JVfP+jz/wQzlbAjTvhTEZu/Lq1EEVcH3RDdPFXVrbA6OdPn09nUaNlNTTOKc/XCKTbP+Z6Yrcu5fOYYdls+ASFhVG7Yhjrtn6B8HWM23IqP3c+WuePYs3ym1lGsm9kFtEC/57vIYzoA6jIP8YLUFP/QqkR2HEyF1n1x8TReglNuRionVk/n6OIJJMfdWSDMI6AkEY8MpGqXl3H19tdwhXfHClT0u1Xt7/iONfz8ysPk5aimQG1DSFx/COxUy4hE6iD6wvdCpZJWJ2cX+o36w9A6/DfITEti1Y8fsmXuuLv2dgipWIPGPYZQt30f3Dy9NVyhY2RdS2HX0mlsmTuehNNH9FjCr4i+MCYqYDoA6vEcole2JlidXQht3JnIjoMpWbMFWIz3q006fZCYReM5sWYGuZmOS4S7+wVRp99IKj/0rCEEigLdIfg/Xf7OHtrOxOcfVOu0lA/MQNRMGyp1+zZUQqyzGyq8X1zcPOj/zVIqRLVQempFsNny+XvBj6yYMLxAyZ/uXr7U7dCX6B5DCA6vquIKpWG32zmxax1b5o7j0F9/YsvXVOn2aUS7XhOFMd4uUTQogXhRq35s9QgoScU2/YjsOBivErolbN8Ruy2fc9uXcmTBd1zYuwZkiJH4hVahwcDRlK7XTsEVFgwnK1T+T83/5bgYfhjQRK1s/x0IaWijnfjvRTTwNaB4Cr+HTwAv/bKdwLIVlZ5aFid2rWfh6KFcOC5P16ZMZBRNer5E7ba9cHLWLN/SYdKuXGTnkqls+f0Hki+d1cJkEqIiRddymqKI6QCow0+AqmL6JWu2ILLjYEKju2A14EsiI/E8MUt/5NiyH8m8qmyb8LCmPaj37Bd4l9Q+rzLEw0KxmxSC05MT+bZfPZLi45Q2lQQMQ0SRDNlJzAGswPOIiICiyYIlwqrw4pRthqjhv3rhFIu/fZ0D6/5QdF7foFI06vIcDbsMMKRAUX5eLgfXz2fL3HGc3K16B+BxiGfJREFMB0B5ygInUKFUysXDh/CWvajSaQgB4TWVnl4RrhzfxeH5Yzn112/YVOxrb3V2JeKRQdTtN1KzPAc3K1Tws/z/S2O325nyakc1FP7WI+49lfWc9CMcmIxopaoYVR54mKe/Xqi4bLCj5GZlsG76KNZN/YK8nCzV7FitTkREP0TTni9Tsf6DWAx4vXc5LoYdi6awbf4kMtPkVp7elmyEgqrZP0BBjPckFX5GI5KhFCMgrDoRHQdT4cE+BepLrxW5GanErp7G0UXjSTmjbaKQZ2Bpop75lAqt+qie91Day4L/TUUJ66d/yZLv3lTShA34GBiJuPcvSjgBI4B3EZEBRWjdfzjtBo5UajqHsNvt7F42naU/vEPqZW33o+Dy1YjuMYSoDn1x8zTeuyArPZXdy2awZe44Lp1UvAPwKETvFBOFMB0AZXFBiFcEyZ3I6uxCaHTX60l9unUGvitJpw5wdNF4Tq6dQW6mvpU6QVUa0+T1nyU18nEEVytU8vvn63J6/xYmDGpx1wzvAnIZkUG/RqkJDUoHhCKmIkL/VqsTgydtIKymNmqWcQe38efXL3P20HZN7N0JN08f6j7Uh+geQyhZobqua7kTJ3atv540uECp70k8IsJa1Jxj3TAdAGV5CFGmJRmLxUql9v2p1Wc4XoFlFFqWctjycojb9AdHF43n0sGNei/nXzi7edLk9SmENXtU8blDPC0Uu97qNzMtiTF96iqp7x8HtMP4Gf5KUQVYhpAclk2xUuG8Omufqifi9OREFn3zKruXzTBaVz3K121OdI8hVG/R1ZBJg8mXzrLyxxHsXDRFic+uNUXfSdYM/WuqihbPIyPr2dnNkxbv/kr1x97A1WD1++mJ5zj0+1dsHPUksaumkp5gvH72tvxczmxZgH9YNfxDqyg2r5MFSnv/c/c/95MBnNqrmPNzEGgFGKppu8okAr8DbYBguZNlpiVz7WoC1Zqp01zzwvF9jBvQhNP7Nqsyv1yS4uPYv2Yu2//8iez0VAJDKxsiOfIG7t5+VGvWmeDyVTm8cZHcEsKLwLc5zkEAACAASURBVGqFlnbfY0YAlGUPUFvSSIuF5u/MIrz548quSA52O/F713J00XjObluode2vZFw8fek8fo9iVQI31/2f2LWeiUNaKXUK3IYIiauSNVUI8Eec5hTpQT3guxVUbthWian+T2piPGOeqM21pARF51UTq5Mz1Zp3JrrHECpEtTRU0uCupdP5bcSTcqbYDjRUaDn3PcZ5Mgo/zoiWlpJicOUe6EbL9+cquyKJ5KSnELvyF2IWTyDlXOGMSoc+0JVW78+TPY8FkfnvZhVa6WP61OHSqcPyFwiHgGbAVSUmK8QEIqoeqsmeqGwlXvv1AM6ubrIXdYMZw3qyb9VsxebTmhJhVf6fNOju7af3cgD4+dWOHNm0WOrwDEQ/isJaGmso9KmfKZqUR0bpX42e+ie3Xj25jy3fDmJO7zJsn/BKod38Ac5sWaBIRYKniyj/A9jw6xilNv8bd/73++YP4jqgDaJ0Vt5EZ4+zec538ld0nZSEcxxYYwynXCoJp4+w4KsX+fiRMsz7fBDxsfv1XhKtnnpHznBPwHjJUYUU0wFQjpJSB3oGliawUj0l1+IwtrwcTq6bxdJXm7JwcB2OLZ1EXpbaDeU0wG7n9Cb5EQB/FxEkS754htWTP5I9HyLbvx1mq9ObiQc6AalyJ1r100hSE5WRT4jZtgKbrWgknGdnXGPbHxMZ3bsW455rxt6Vv2nVrfIWylVvhHdACTlTGE8VqZCiStOO+xTJWTd+ZSI01+5PTzhDzNJJHF8+mcykotlx89L+DbLaiFgt4Hu97n/FxPfJyZTtGNkQpX6FN7SiHoeBJ4A/kXEwyc5IY+XE9+kx7EfZC7pyTnZQwpCc2ruRU3s34lO8JA07P0vDrs/hH1xWM/sWq5XA0Epy8iqMcZdRBDAjAMohOfzv7K56S3WB3c6F3atY+2E35varwP5fPzXa5q+o1nfaRXmJ9T4uwgm4euEUe1bMUmJJH2OWMN2NxQixIFnsXDJVDWlmpbis9wJukHblIqt//pjPupRn6pvdOL59tWYljm4esjofmgdXhTAdAOXIkDpQaa38/5JzLZnD87/hj2ersPKddpzZsgC7cUKbqcAPiCSw0sAbQIoSE+dlS/6VAOB3Pfy/ftooJYRM/kIo/JncnU8Qn5Vk8vNyWTftC9kLKVZK0V4TycCriGe8GuKZl33loQS2/DwOrp/PpBfa8OVjVdj427dkpiWralPmNU0RuKM0BmYVgHI0RJR1FRirsws9Z19SvOf91dg9HF08npNrZ8neDFXgIKLBxwzgv72BSyA2gmeQ4aT6lYmg62RpiYAWC1Txs5CWeIHPupYnLydb6jJAlPlVo+ho+6tNeWAvIttbEs6ubrw9/wR+QaUlL+LKuRN83k12x8F8RHOw4dx6+vcB+iC6PRpKzs/Vw4s67XoT3WMIpSpLq2y+ExkpV/iwXbCc/IragLyWiyaAGQFQEskXhra8XE6uUyTETH5uNifWzGDJ0AdY+HwUx5b9ZKTNPxeYDTQHagDjuXXzB0gABgD1AcniA/5h0t+p3i7CCfhr5ldyN38Q+vfm5u84J5Gp+Z6Xk82GmV/LWkTxMhUIDq8qZ4pcoB4wiNuH/tMQ34EaQAtgzvUxupOTmc7fC35kTJ86/DCgCXtWzFLiewDA7uUz5SZXnlRkISZmBEBhLiPqmguMR0BJuv50CFfvAEmGryXEEbN4IseXTyYrxTDXjDc4j2hr+xMF2wgjAcm1fPUHfk21btL6MpXysuCRk8JHD5eWm/y3A6EOadYtFwwnxGdXR+oEnr7FGL70PM6u7vf+4TuwbNy7rP3lM8njgQjgWAF+PgTh/D6HuC4wDN4BJWjQ5Vkadx2If8lQSXNkpFxh1GNVSE+S/I66gME+l8KMGQFQli1SB2YmXWT9x4+Tn+u4l2232zi/cwVrRnRhXr+KHJj9uZE2fzsi4a07EAZ8RMFPwc3kLKB0lHRVOC9n2Lfmd7mbvw14AXPzl0I+4rOTnJWWkXqV/WvllYJWa9ZZ1ngK/gzHI3JFwoAewFpkfAZKci0pgbVTPuWzLuX55Y0uHPt7ZYGSBvNyspj2dg85mz/IeMea3IrpACjLejmDL+xZzfI3WnEt4e4ZzDnXkjg0bzTzn4lk1bCHOLt1oZGS+lKA74CqiMYdfyA9jC/ZAfAKKot/OWnicq5W8c/updOlmr/BNIR0qYk0tiDC4pL5e4G8csCyVevjGxgiZwqpz3AeMA94EJE/8h0KJcfKxWbL59Bff/Lji+0Y1SOCDbPGkJl2dzXrqxdOMW5gc07sWi/XvOwJTP7BvAJQljDE/ZSsz9XJxY2KbZ8mrGl3AsJr4OYXSFZyAolHtxO3ZQGn/ppNfnamIgtWkP2IpL6ZgFK9gc8g2n8WmMoPPUv00EmSjAa4gkfqGT7rEi6nLCof8eI2a/7lURU4gIzDyhtzDlMiTHpzqHmfDWTbfGnPEkL1MUyy8X/jjdBKGALUVGhORXBx96R2m8ep3qIrZavWxzugBOkpiVw4to8D6+axY9EUJYSHbIgOkufkr9gETAdADTYATfVehEbkIE4p44BNCs8djoxkn5bDf6dck+6Sxpb2srBj2khWTvpAqnkQyY495Uxg8n/+ALpKHdzhhc9p+aT0nMIjmxbz86sdJY9HbFpKt89sinAEugGuCs9tVNYhOmeaKIR5BaA84/RegAacBd4DQhFae0pv/gBNpA60OjkTUqe1ZMPuVju7l82QPB5xZysrc8zkX3wiZ/DZQ/JuYcrVjJbbUU/ys3wXNiJUJcshSgzPqmDDaNwP71ZNMR0A5fkdOK73IlTADqxCnMTCES9lNWUEa0kdWLxyfVy9pKmFWi1w9fQBEs/K+hWuwaxTVpJdyMilyLom7+rc07cYQeUi5Ewh+Vl2gIsIhcnyiGjAagySNKgwRxCRIBMFMR0A5clHnI6LCsnAt0AVoC2wAPH/qDaSi/gDK0VJNuruBDFblkkef51pcicwuQXJ2XyefsVlGw+t3kjOcNmtjh0gD5iP6KxYBRiLQZIGFeJdzGoaxTEdAHWYA8jeRXTmCDAU0XpzKNons0l2AIpXlukAbF0ueTwiAdI8qSjPb9xeNOqelI6sK9t4uRqN5QzXwgG4mRjgZUSH0n4IVcXCzHLEwcNEYUwHQD0GU/j6vWcjsvgfQGRff4s+utsByBD7KF5RsnYMzrYc4g5slTwekRRpapUrzzXg54IOslqdqN1Gfi5muRqyIgDlkCFrLIMsRDSqDiIPYRYicbcwkYgQRjJRAdMBUI844CkKx31cHCLEForQJtdbbEPyicnJzQO/UOnyrYnHdsqVPP1NzmCTu/Iloq+Cw0Q/+jwBIeVkGw4uXw03T8kd7CxoHwX4L5sRJYRlgWEoX5WgBjagL2bZn2qYDoC6LAKkadGqjx1YAXQBKiCy1iU36FYYyS/LgLAaWJ2kdwuNPyjL98lBlIGaqMN54EkcPMWG1XqADi98rohhq9WJ4mVkNQaS1VRAQRKATxFJg10Rib1GPaQ8jwj/m6iE6QCoz7cYKykwCRiN0ChvD/yJNkl9BUHykS0gvIZkoxYLxB/bLXk8ohukYTovFVEWAx24x6mwTrvePPvtMlzcPBQzXLxMBTnDpYnnq0c+4l69LaLnxhhEwq8RsCOaQU3QeyFFHelHJZOC8AnC8x6Hfp/57uv2f8X4m5Rk7VXvEpKEAwFwsUL88f2SxyOESkzUZw0i0/0ZRK+JGojmQYnVmnX2bvHkmyXCakYrbrR4aVkOQCml1qECx4BXEQeV3giBIemJNPLIRdz5T9XJ/n2FGQHQjh8RiTinNLSZg9AlaANEAZMx/uYPMhIAvUpIv++15mZx+UxBGrfdgukAaMc1RKlbc6AY4AdUeOrrBYvU2PwBipcuL2e4kR2AG2QgOnbWRbQxngRoqTl+BmiJuflrhukAaMvfiI14EurWtJ4G3kaU8D2GEAcpTJSUOtArSHoEICPhNLZ8qX2LAFP8xwioVq4q8wqgMDgAN7MLGIi4jnsHkSisFvnAD4j+BptVtGPyH0wHQHuSEF+s+sBClEvAsSESZjohkvq+AAzTG7iASH5ZepWQftV67ZKs4MwljHOHev9i56haU99nDsANLgOfI94pnRGJw0odXmwI8aK6iNbPRUm4qFBg5gDox27EF6oq4i6zJ9JC37GI+t5pwAnFVqcfboiQbsGxWPAKLCPZcNpFWZVRZtc/A2C1E2NTqcWZl3+gnOFBgAvijrswko84sCwEKiKqMZ5AVBMUlLOIctmfQT2HzeTemA6A/hwGXgfeRITAWiCuCSIQIXw/wBOhgpaO6JB3DKGN/tf18UUJfyR2qXT18sPJ1V2y4cyki5LHYr7IDEFaBie9vMhHJAUqiquHNxarFbtN0gHYimjnWyAdA4MSC7wPfIA4wDQHGgCVEQ6BF+L/NR1IRdztH0NcK6xDtHc2aunhfYXpABgHG0Kys7DLdspF8g7u7OYpy3B26hU5w0/LMm6iCCNaWvK+3G6/hnCcFcViseDm6SOnuZB079SY2IFD1/8xO/UVQswcABOjIfkl6eQqr+Y7IyVRznDz/tI4pKo1sbuXr5zhyokSmJgogOkAmBgNyS9JZ3d5EYDcTFkS/pIa1ZiogIVrak3tZjoAJkUI0wEwMRq6RQDy82T1STEdAINgsav3u5AZAShqVwAmhRzTATAxGjJyAOQ5ALZcWQ6AaqdOk4JhV/EKwGKV9co0IwAmhsJ0AEyMhvQiLov5OJuoS748J9HExFCYb0wTo5EldWB+tjyVY6uLq5zhknvFmiiLBWTF6e9GXo7kxxO0ldU1MbknpgNgYjQkvyTzZDoATs6yHAAfWcZNFMNuUe93kZeTLWe46QCYGArTATAxGpKPWHlZ8hwAFw8vOcNVO3WaFBC7ig5ArukAmBQdTAfAxGhIjwBkySrjw8NPltSr6QAYB6NGAGTdH5iYKI2pBGgcnBBNMVoienFHInoD+AGuiJdHCkJx7jiwDSEFfIiiJaup2xWAu29xOcPDZRk3UYQR6+zOqJiPkZUuq8CgqDkAFoR8eXOgIVAJ0T3QH/HOykW8s84hpLJ3I6SAd6NuN1QTBzEdAP2phWgG1Bu42xHU/fo/wYgvW5/r//0kMBPRDChWvWVqhuQa7rzMa+TnZuPk4iZpvEeA5C7EIHo3mOiMjyflbSr0AQDITEsiV/o1k42ioxVRGdEMqA9iw78TLoh3WiBQG9HwDCAB0cDsZ0RfABOdMK8A9KMxsAyh/f8Sd9/870Z5YDiiG91yoCMqvQA1IhOJDVPsdhvpl89KNuwbcrd32T0xHQAjYCVSramTL52TMzwByFNoKXrgBHQBViJO88O4++Z/N0oAQ4F9wGLEgcZEB0wHQHuKAROBzUB7Bee1Au0Q7TrPACMQX7TCyAWpA9MTpLf09QoOkzwWEZkJkDOBiXxsKjpiKZekO5fAeaXWoTElgLcQ0cX5QBvkaHX8GwvwMLAVEcEMUmheEwcxHQBtaY64s38O5b5Et6MUolXnWWAO0FpFW2og+WV5LSFOslHPEuFYnWTditWSM9hEEVRzAJITZEUAJDu1OhGFOKicBj4HwlS0ZQH6It6Nhe1dVagxHQDteBVYA8i6aC4grsCjwCpE4s2zgLyOOdogPQJwSboDYHN2Iyi0suTxiAROE23wQYSRNwPJiKujU7+81qXj6X2bVTGYmihrD49Xah0q4oU4nOwFdl7/s5byxUGIa9EXNbR5X2M6ANrwEfA1+t7N1wF+RJyuRyMSeYyK5AhAeoL0MG2uDUIq1ZQ8HtMB0Iq2iHvoMUA0olLGHQg7tOHPEj8MaMKMYT3lZuzfwtXzp+QMN3IEIAL4FvG9m4i+kSxnYCzwvo5ruG8wHQD1eQd4T+9F3IQ/8AriBboSkdhjtKRBybt48pnDko3a7RBSua7k8YhkJllqQib3pBMicazU3X5o36rZ/PRSezlZ+7dw4dheOcOlJ6eogzPQDREdPIJIRPbTdUX/5kPgNb0XUdQxHQB1eQz4RO9F3AELIqFnPqKU8F2MkzR4SOrAq6f2Y8uXnmxdusYDkscirlyayZnA5K6UAaYiysvuSdyBrSz5/i1FDOflZJFw+oicKSQ/0wpTEnEgOQXMQ9y5q5mPJIdRQFe9F1GUMR0A9QhHhNyN+uW6mVCEo2KUpMGDUgfmZ2eSIiMKUKxSFM6ustq295Iz2OSuvI6IYDnM1rnjSYo/Ldtw/PH95OflSh1uR5yy9eRGUt8pxJVkGX2X4xBWYAri/WSiAqYDoA4WxEmlsMnD3pw0uBeRBKRHSDsZoR4micTjuyQbzrO6Uq5GY8njEScWszOg8ngjBLMKhM2Wz96Vv8k2fl5e+P80+ogAeQMDEfX2N5L6ZHm3OuCHEAwyUQHTAVCHnkBTvRchk1qIE8OF6/+urrF9yVGAK8d3Szaakw+R0bLkGbwxw5Zq0AuJGv/njkp/Hm5wPkbWHJKfZYlURpTuxQETEHK9hZkHMb9TqmA6AMrjinHv/aXgizg57AdWIxKHtJCQlu4AHNsp2WhmPkQ0fkjy+Ov0kzuByS08K3VgZupV2cbPHZb+TKHN/b8z0B1RanwUId5TTAO7WvE5pnS94pgOgPJ0o2g2hrEgPPF5iHvE91BX02C/1IFXju8iJz1F0th8OxQrX0OuHkArTFEgJakHNJA62N2nQGkDt5CenMj5Y3vkTLFP1gLuTgiiZO40MBfx7BWGvKOCUhnorPciihqmA6A8L+i9AA0og0gkiuOfpEGlXzqbpA605ecRv2e1ZMOZeVD3oT73/sE7Y0FUVZgowzA5g0OrSfYdADj290rsNlnN69RQJopCyOfGIUrmSqtgw2jcD+9WTTFDKsoSDsiqIwNwcnWnUvv+hDXtQUB4Ddy8A8hKTeTy4a3EbZ7PqQ1zyM+W3DVXSW4kDT6K6Oo1DpgBXFNg7lOIqoSyUgaf37mCck26SzKcmW8nqsOTrJz0AXa75E7LPRACKzFSJzABoBqi9l8yVZt2lLWAY9tWyhl+Ehm6Fv/BB9GBbwja5+TcFRd3T2q3eZwaLbsRWr0RXv6BZKYlceHYPvav+Z3tC38mL0d2N+TmiIoAo2kqFFqKYqhIT4Yi1MkkE1y9Kc3emo5XiTtXvmSnXSV25RRiFk8k9YLhOgCnIk4m45Bf+jQDeELKQK+gsjw6Q5ossJsTVPS1MH5QC07u/kvSHNeZCjwlZwIT5iAcTEmUr9ucwRPWSzZut9v5+OHSpCZKVvJV4hmoitj0+2KwyqLAspVo3H0w9Ts+hYfPnXthJcXHMWt4b07v3yLX5AvAD3InMRGYVwDK0kbO4NL12tP285V33fwB3HyKUa37a3T9+ShtPllG2UYdsVgNI+bni/iSHkIkJPVAeqRpg9RFpF8+S9JpaXmEOfmQZ5N9DQDihW22OpXOA4jnRzKNuj4nawHxsfvlbP4g/Rl2QTg+6xDfpecxyOZvtTpRrXlnBny3gjfnxtCs9yt33fwBAkLKMXDcGio1kC0xordGSZHCjAAoyyUkqul5BZah04S9uPlIS9y9duk0MUsmcXz5ZLJSLkuaQ0XOA5MQwkgFeZtGIiOKUH/g11Tr9oqksWW8LLjlpvJRh1LkZKZLXQKI+utGQL6cSe5DnBCfXW2pE3j6FmP40vOyhJ3+mvEVi8e+IXk8UAnRStdRSiGqbgZwD7ljrfEOKEGDLs/SuOtA/EtK0+ZJT05kdO+acpyqc0i8FjS5FTMCoBwlkSGlW/3xNyVv/gDewWFEPfMpj848Q9M3pxFURZaYjdKURiQqxQGzEXd5juAFSNb1TTgoPffqWq4ddy9fGnUdKHmO69RDiLGYFIxByNj8Aep3fFquqiOn9m6UMzwXx7ULWgK/I7L5P8BAm39YrQfo/dFMhi06w0ODP5G8+QN4+QfSou+bcpZThqJV3qgrZgRAOaIQJ5YCY3Vypte8K7h4SNI5uSNXY/dwdPF4Tq6dRV62ck1RFOIQIk9gOreqpAUDHyOU3yQ7qX5lIug6WVoAwckCEf4W0i5f4LOuFeQmMCUhkraM3BHOSFRAKFFKVlR0dnXnnfkn8A2St49+3rUCV86flDOFDZiMKJtN+M/f+SKuiYYg7vkNg6uHF3Xa9Sa6xxBKVZblh91C1rUUPmhdHJtNclCsBtqLKxVJzAiAckg+/QeE11R88wcoVrEO0UMn8disczQYNBrfMobqAFwNkcxz/vq/qyGqCt4AjiGEX2Q9nzkZ0tvB5ttFOaBvUCnqd3xazjIAAoBZGK/rohGxIqRfZckpN+jcX/bmDyjRUtiKCOcfQ3S3c0U4g+MQ4ezvMdDmH1Qugk6vfsN7i8/R491Jim/+AO7efgSXl/W/HKTUWu53zDJA5ZD8WbreI4FGLq7e/lTtOpSqXV7mwp7VHF00nrPbFmGX7oEriQ/iBDQESAQClZrYxV1eG4PUXDuezhZaPvkm2//8SU4zGBDXHiOA4bIWVfR5D5kdFZ1cXGkpL8z8f1zcPRWZB6Fp/xXwNgo+40pgdXKmatOORPcYQsX6D2KxqB8YvlfS4D1wqBukyb0xHQDlkKwUkiv/lOEYFgul6rahVN02pCecIWapSBrMTLqkjf17o+iL0bukPEHG1GwI9oCAkDDqtH+CnYt/kbukdxFZ4avkTlRE6Yi4/5ZFvYf7ybqnvplipcJJvqho2blhNn+f4iVp2PlZGnZ9Dv9gbfPqZEZWJItzmPwb8wpAOSQLjiefOUx+braSa7knXiVCqfvUxzw6I45mb8+gRDXZ+kWGo2RNWQdJcu2Qcf3Q327gSNw8ZTf5syKuAiLlTlQEqQbMROY7yd3Ll3YDRyqzIqBCVAvF5jIK4bWb8sTHvzJsYRztBn2k+eafm51Jwumjcqa4otRa7ndMB0A5LkodmJeVzrntS5Rci8NYnV0p37I3HUZvpNP4PVTu8BzOMkPnRsBisUpWAryZ5Bxx2PAPLkvr/u/Lng9xAlxB4ejHrhWlgEVI7PZ3M62ffR+f4sq1qKj14KOahMTVxs3Tm0bdBvLqrH0MmbSB2m174uTiqstaDv31p9ykWlnCDCb/UPifbOPgBKQgStcKTLGKdej43XZDCPrkpKdwYtVUji6eQMpZWZ66bpRr0p2Ww3+XPY/VApX9LDhZRI+Bb/pGER8ruU/RzRxGtIyW36qucBMI/IUCiXAlwqrw6qx9ODkre0X8y+udObRhoaJzakWJsCpE9xhCVIe+uHv76b0cbPl5jOlTh4snJCfxJyPKAM1rAAXQf7cpOtiBR5AoUpF59SIWq5WSNVsouigpOLm6ExTZkCodhxBcvSl5memkXTiO3S6rIYpmuHr50eqDebh6y+sCB+KX6mq14OEMFquV4PCq7FoyVf4iRSZzc2A+YIjGDjoQgFCLrKHEZL0/mkVQaCUlpvoXZas1ZMeiKeTn5ig+txpYnZyp3rIrXd/4nkde+pLQ6g1l6yEoxbLxwzi47g85U2wDflFmNSamA6As5RGnOklcPLABFw8fSlQ1iIiPxYJPSHnCmz9GxXZP4+LuReq5Y+RlKdHrRx2sTs40e3smQVUaKTZnrg2KuYlgWUBIGFfOnyD+uCJRgDIIp3EhoofC/UQZxOZfU4nJGnYZQNNeQ5WY6hY8fQMILFuJg+v+kNMcSnV8A0No1vtVeo2cTsPOz1KsVLihri/WTfuCVT+OkDvNL4iIkYkCGOfpKBo0AWRJhwGUe6AbUc9+jm+pigosSVlseTnEbfqDo4sncOmAZKl+VXB296LpG78ocvf/X8J9LHher5nJTEtiTJ+6JMWfVmr6C0B7REfF+4GqwDJEZzfZFC9dnldm7sXNU3ktjZvZt2o2sz96htwsY4lqla/bnOgeQ6jeoqvi1x9KcPnMMZaMfUOpa5T6SBRcM7kV0wFQFitwAgiTPZGzC6HRXYnsOJiSNR1VztWWpFMHOLpoPCfXziA3U9+oQFCVxjR9fYpqYke+LlDW+5+vS9zBbYx/rplcbYCbuYLofLhCqQkNyiMI9Uf59zOIiM+QSRsoV0ObqFnC6aPMHvkUZw7+rYm9O+Hm6UPdh/oQ3WMIJSsYqjMwILoonty9ni1zx3Fw/QJs+ZIVvW/mGKKCxrhhmEKG6QAoz3vAR0pOGBBWnYiOg6nwYB9VFAPlkpuRSuzqacQsmkDymcOa2vYMLE3UM59SoVUfUDHcaQEq+Flwu6luRoFGMf/FBnyOqIVX5I1pIJwQ/SDeRcH3TpsBH9B2wAilpnMIu93O7mXTWfrDO6Re1lbdObh8tf8n9akd8ZBCVnoqu5dOZ8vccVw6pfi74C1glNKT3s+YDoDyFAdOoUBJ039x8fAhvGUvqnQaQkC4IleninPl+C4Ozx/Lqb9+w6bc6fgWrM6uRDwyiLpPfaSZU+TvCqW9/vnK2O12przWiSObFittaiPQGyEVWxQoj9DDb6HkpFWbduSpLxdgsepTzZyblcG66aNYN/ULuWVtd8VqdSIi+iGa9nxZM6W+gnI5LoYdi6awbf5EMtOS1TCRgniO7veqGUUx3pNUNPgEcdJRjZI1WxDZcTCh0V2wGvDeL+PKBY4tncSxZT+RcUXZU1JY0x7Ue/YL2Up/Uqjoa8HtptTZjNSrfPtkPa5eOKW0qRSEbPA4Cm8rYSvwIuL7oKi4RHD5arz481ZDnIKvnD/JkrFvcEBedvst+AaVolGX52jYZYAifQ2UJj83h4Pr57Nl7jhO7lE9H2g4okGYiYKYDoA6eCESulTfoTwCSlKxTT8iOw7Gq4Qy8qdKYrflc277Uo4s+I4Le9eAjCxqv9AqNBg4mtL12im4woLx31wAEElOPwxoQnrSZTVM7kH0SdimxuQq0gT4Gmig9MSefsV5acrfFC9TQempZXFi13oWjh7KheP7ZM1TJjKKJj1fonbbXoZM6ktNjGfXarXl7wAAIABJREFU0mls+f0Hki+d1cLkaUQDpXQtjN1PmA6AejyMUDfT5DO2OjkTGt3letJgC1Xvw6WSHHeIo4vGc2L1dHIz/9sB+M64+wVRp99IKj/0rO5CSRYg7KaKgBucO7KTCYNbkp2hSjKkDfgV+BQhIGRkIoDPgK5qTO7i7smAscsJry252lZVbLZ8/p4/iRUT3yc9OdHhce5evtTt0JfoHkMIDjdMc8D/Y7fbid25lq1zx3Fow0KlkvocMg20BVZrZfB+wni7RNHia+BVrY36h1YlouMgKrZ+EhdPX63N35PczDROrJlBzOIJJJ26c+WbR7EQIh5+jqpdXlZE1EcpPJ1FWeB/id25lslDO5CXo1pfBzuwBBgJ7FDLiETqAkOBXqjUZMzJxZWnRs0n8oEOakyvKJlpSWz87Vu2zZtA2tU7N9sKqViTxj0GU7d9HyV6TShO1rUUcdqfO06ufr9UPgWG6WH4fsB0ANTFBVgKtNbFuIc35Vv1IbLjYALCFRFbU5zUC7Gc37GMpNOHyMu8BhYL/qGRFKtQm1J122B11kev/F6EelvwuU10du/K35j1/hPYbaqqJtoRYihTgXmA4+EUZfEBugPPAqp2k7I6OdP389+p3ryLmmYUJz83h2N/r+T8sb0knDoCCF3+kIo1iWjc3nDXGDeIj93Plrnj2LN8plpRLUdYAnSm8ObAGB7TAVAfT2AlKr8g70XxSlFEdBhAhdZP4mQQWdDCjJuTSAi8HXtX/sZvH/bTSjo2AyEn/BuwHlD7be2LcGi7At0Qz7eqODm70HPENGq37am2qfua/NwcDm34k23zJxG7Y43eqofbEM+Zee+vIqYDoA3ewFxAv+y163gEBFOxzVNEdByEd4lyei+nUBPsaSHQ7fZ/d+zvVUx7q5vWp6c8YDuw7vo/e5HfOjUYiALqAQ8C0agU4r8dbp7e9P3sdyIat9fK5H3HjaS+zXO+JyXBEJWnaxDO5f0mj605pgOgHa7AeOAZvRcCIqRatlEnqnV/hRLVdA1OFFosFqjg+29xoJs5e3gHk195WK3qAEe5AsQAR4GTiOuCa9f/nXT9Z3wAN4Q6X0mEkmUoUAkd2xZ7BQTRf8wSylatr9cSijSn9m5kw6wxHN6wEJvNMFH28cDLgHoiIib/x3QAtKc38AMKSaEqQZkGDxM9dCKexY1Xa2x0PJ1FVcCdvkiXzxzjp5faq6ETUKQJLFuR/t8sJbCs8t397ndSEs4x99PnOLplmd5LuZmrwCBAfg9vE4cxuwFqzwFER6tARCc03Z2w1PPHObF6OiG1W90XTkBWSiJXT+zhSuxuMhLPY8/Pw82nmKTSyVwbuFxvF3w7vPyKU/+Rp7hyLlYNadQiSdWmHen/zVL8gkqrMr/dbudyXAznY3YTH7ufjJSruHp44eKuejqD7pw9vINxA5sTL1OrQEFsCJXILphNfjRH983nPqcq8DbQE1ExoCuu3v48MvZvfEsXvVNXfm42J1ZPI2bJJK7G7sFu/3eWvrtfEOWadKdqlxfxC61SoLmdrl8FuNxFkdZut7Np9liWfPdmoekrrzVWqxMP9n+PNv3fV0XeNz72AJtnj+XA+vlkpPw7NcJitVI6oi6Nug0k6qG+OLveIbmjEHM5LobvnmmkllRvQckFZgJfIK6nTHTAdACMQSngOWDA9T/rRrEKten4/Q7dBXcUw27n1IY57PzpLdITztzzxy1WJ6p2HUrdfiNxcvNw2IyPC4R6We75jYo7uI2Zw3qSFB/n8Nz3AwEh5ej5wVTK11W+82VuVgZLf3iHzb9/71B5pn/JUB55cRQ1Wz9mSN19Kdjy8/imbxTxsfv1Xsp5YBLwIxCv81rue4rIW77Qk4Yo4foOcUUQhAIthaWQmXQRr6CyFK9UVw/zinIldjd/fdqTQ/PGkJue4tggu53LR7Zy6cBGyjXp5nDJZI4NrJZbFQL/i3+JMtR7pB+pifFc1P9lrDsWq5XoHkPo98U8gkKVb+WcmZbEjy+158DaeQ7LUGddS2H/2rnE7lxLqUq18A0MUXxdWrP1jwnsWDRFL/N2RFXKG8Dg63/Wt3+4CVC4IgDBQBWgLCJr2QfRMCULOIHoFX1nya3CR1WEBnxfRO21ZgSE16DzBMPcERaYzKRL7P7lPWJXTLkl1F8QAivXo+1nKx1WIbQAoT4WvB0skju1dyN/fDGEiycOSl5jYaZ46fI8+t5PVIhqqcr8mWlJTBzyIOdj9kiew2K10qDjM7Qb/DE+xYIVXJ22jOoRweUzx7Q2mwJMRzS0OqK1cRUJBiojuhO6AX6IQ1wKooPnYeSX32qCkR0AD4QK1MNAS8CRjKA4hELaImAxwjko7PgAfRDOQHWtjHb/5Tg+IcZUKbsTtrwcDs//ln2zPiE3Q5kS4qAqjWj72QqHWw47W0U+gLOD3yxbfh6bf/+BFROGk52hl6Cftrh5etPsiddo1e9tnFUSpcq6lsKkF9pw9rAyisnu3n60fuY9mjz+Ek4uxlSnvBOXTh3mq8eraWlyP2LTn0nROOl7AJ2AR4DmiEPovTiD0DNYDizEoHuRER2ACsDrwBOIzU8qKQh1tPFA4T3O/ptmCEegGyonDTZ7eyblW/ZS04SinN22iB2TXif1/HHF5w6u3oQ2nyzD2d2xjrbeziISUJAvV0rCOVZMfJ/dy2aQn1c0S6CdXFyJ7j6Y1v2H4+lXXDU72Rlp/PhCW+IOKt9AMbBsJTq9MpoqTR5RfG612Ln4F2aPfFptMznAH4iNf6PaxjSiLuLK4jHkRWGTgVnAV4Ch6oGN5AAEIxo/9EP53ITNiNr7eYgHtbATgtBfH4hjkZECE9X/M2o89pYaUytKyrkY/h73Mhd2rVTVTsmaLWj98WKc3RwrFQt0h2CPgn+9kuLjWD/jS7b/OZm8HEMeGgqMs6s79R5+khZ931Rd+z474xqThz7Eqb2bVLUT0agdnV8fq0regtKsnvwRKya+r9b054CJwE/ARbWMaIgbYsMfAjRSeO5cRP+OdwFd1cFuYJQkwH6Ixg+NAeXrf4SqWXdEpr0/cJzCLTN5DdgAjEWE28qhsGJbSK0WBNdopuSUinN85RTWjuhKyln1q4iuXTrN5SPbKPdAF5xc7l0ilpEHrlYL7gUUzfXw8afKAx1o2PlZAC6eOFBoywY9/YrT/InX6P3xLGq37YmnbzFV7WWmJTPltY6c2qv+AfTKuRPsWDQF/+AylKpUS3V7cojduZaTu/9SetptCMW+IWjTg0JtwoC3EDkLfVBHAdMJEVV4BlEBoXsWsN4OgAdCFOd9QIsONd6IMPpLQB2E+pShQjIFxAmhz94d8VkqRnjzxyleKUrJKRVl9y/D2TnpdWwahsuvXTzF+R3LKNuoo0Ntlq/lgoezBVcJ3zI3T28qN2rLA4+9SGDZSmSlp5B86YzDmex6YbFaqVC3OW2efZ9Hh/1ERON2uHmo3+Y2+eIZJj7/IOeOaKclk5+Xy8H1CwCoENVCM7sFJT72ADFblys9rSewGyHeo2rrSxWxIvqzjAa+B5oCjt3zycMT0UwrFFiF6OGhC3peARRDJEfoLUR/DJEn8Avirqaw0A4Yg6iMUJwOYzZRomq0GlPLJnbVVDZ9pfqd5h3xCipL648WO9Ri2ckipILdFXC1ky+eYdey6exeNkOv3ux3JDi8KrXb9SLqob4EhGjbZOp8zB5+fvURUi9f0NTuDSwWCz0/nE7d9k/oYv9exO5cy8QhD6o1/WHgFUTH08JCMeBphPRwRZ3XsgmRXOhgnbKy6OUA+CHCRrV1sn87MhCJGuMA6XVD6lMZ+Brx0KiCq3cAPWdfxOqsuzjhLWQmXWLeUxXJy9K3S6irlx8th88lpM69X6zOVijvc3elwIJy6eQhjm5ZRszW5Zzev4Xc7EzlJncAdy9fKtZ/kIhG7Yho3F7zTf8GMVuXM/2dx3SvoHDz9OGdBSfx8g/UdR23Iy8nmxFtg9T+jBYikreVz8JVjnqIK4ueKBwxlcluRCRX8wOoHg6AGyLs0VQH246yFZE0OBfI1nktN/AD3kNcX6hah1S161AaDBqtpgnJbJ/wKofnf6P3MgCwOrvScMg3RDw86J4/6+4kIgFOKnzj8vNyOXd0F3H7t3A+Zg8XYw9w6fQRxXIHnF3dCKlYkzKRUZSuEkWZyChCKtbA6qRZV+BbsNvtbJ7zHYu+eQ1bvm4R1H/RvM/rPPLSl3ov47Ys+OolNs/5Tm0zOcC3wMcYJ8fKHZHU9zzQQOe13I01wENo3AVRDwfge8QvozCQAPwMTEBoDOiBFZE08glQQm1jrl5+dJ18BI+AkmqbKjC2vFx+7VGc3Exj5RuFN3+c6KET75kXoKYT8F/y83JJvniGq/GnuXrhFGlXLpKRnEh6yhXycrLJupaM/Xo+gZunD04urnh4++Hi5oFP8ZL4lwwloGQ5AkLK4RMYgtVA0tCZacn8/nF/Dqz7Q++l/At3bz8+XH3FUJ/VDVIun+erx6qSla7JvnwJGAZMQb/8gPKIKqlnEI3XCgM/AC9oaVBrB6ALMF9jm0qQj6hSGIeIXmj1UDdFeNR1NLJHs7emU76VMe8yLx/ZxpKhxsxL8C1VkRbDZlOs4t1/VVo6AUWRs4e2M2NYT8O2V3556g7KVKmn9zJuy84lU5n94VNamtwFDEXcc2uBFWiPCPM/hDoVZWpiRwjfadanWUtX1RuxiWoqa6sQViACUR7SGyHCcxT11J1CEQ0zvkTU/GtC3ac/IbLjEK3MFZjTG+aoXu8vley0q8SumoqbTzECK9e7Y2vhPDtcywM/VwtW0wlwGLvdzqbfvmXm8N63dPIzEsHlq1GuutLl48pQqnJtrE7OnNi5TjOTiGS7SGA76l0LFEecnKdd/3dljKVx4ygWoAVCV0GTqwAtHYARCO+msFMckYH/EiLMdB7lulp5Iu75f0UkSGryELt6+RH9yo9U6WTsm5mTa2aQeEyxMq9sQNFLbLstn3Pbl5JwaAtBVRvj5nP7uvc8G6Tngq+L6QQ4wuW4GKa93YNt8ydit+WrYUKxZyGwbEUiozsoMZUqlK/TjOKlyxO7Yy15uZqkN1kQEuYDEblL21Fuc2uAuBr9GXHiD1BoXj3xRRwsN2hhTKsQiT+F597fUTwQ90s7EaIYTyJdy8AC9AJiEJoI2mSoWiyEt+hJ50kHqPBgH01MyiHt4kmlppqDiOi8jgi7KcqFPav5c1At9v/22R11CjLz4WSanRxV9rOiQX5uDqsnf8ToJ2qpIWQD4nf/MuJZ+F2JCa+cV+wZVY2oDk/y2m8HqdXmcS3bHXsCHyAipz2RfrjxQEQVdgB/I0TktNCQ0ZI3EHum6mj1238b+EwjW3qSyD9Jg45eUtYDvkFjPYTilaJoMGgMwdWbaGlWFn/0jyT1nKyOZnsQd5I3e9eDEMk3qjjDAeE1iR46kaDIhrf9excrhHoroxNQlDi9bzNzPxvIpZOH1DKRjziVTr7pvzVHfBcllyeXCKvCG3MOy1yadpzau5E/Rw/l/NHdWpvehPgu7nLw5ysgvqvPIOr4izqvIJ5FVdHKAYhB3MvIxj+0KsUrReHqE0BO2lUSj+3URAq2gNiApYikwRXcPmmwJP/0PtAsWcUjIJi6T31MxXZPY7EUnhwZu93GjI5e5EsPW76MqEC53e+iLyJjWZVt2GKxUr7VE9R5cgTeJcNv+XurBcp6O95GuCiTeDaWlRPfZ+/q2dhtquXa5iK+d7/e5u+cgBcRIlsFxsXNg082pGt5spaN3WZj+6KfWTH+PdKuatpR3Yb43g3j9q3crUAHRFJfOwyW1FcirAplq9bD06846cmJnDuyi4TTinU9PoaITKmKFk9pfcS9jyxCo7tQp99IAsJu7YibcuYIMUsnEbtqKjnXDCfmdwIREZiC6BHthtiM3kNet8MCYXV2pWrXl6nVe5hDMrZGIz3xHL8/ESp1eD4iBHm3wvgeiPalqmksWJ1dqdxhALV6vYtHsX/ndlosUMrTgn/h6jSrGCmXz7P6p5HsWDRF7W6I2Yi68IV3+Rl3IB2JG87wpRfwDdQsd1cxstJTWT35IzbNHqt1/4lUhHbAt4jvaCDQHxGhudVj1hEPH3/qPfIUjboOpERY5C1/Hx97gOXjh3F44yIlzNUEDigx0Z3QwgF4D/hI6mCL1YmGz48l8pHB9/zZvKx0Tq6bxdFF47l6Yq9Uk2qRhRAWaoTG8pNlG3ei/oAv8S1dSUuzinLp4EaWvdZc6vAziIZJ96INIj9A1fs3ZzdPqnR5ieo9XsPN999tcYu7Q0kJXQQLK9eSElg//Uu2/P6DFmqGVxCO3noHfvYcEjttPv/TZsJqGrNc1RESzx5n0TevKbWJFYTjiJyqrhjsXr90RB0a9xhC3Xa9cXG/d0fQzXO+Y+HoV7DJS1odhogSq4YWb5pVQGupg+s/9xXVur9a4HEJh7dwdOE44jbNkxM2LtT4h1alwaDRlIpqq/dSZHNi9TQ2fvmU1OF/IcprHCECWASo7i05uXlQoVUfqnR+4V99BbydoYx30dYKOB+zh81zvmPPil+1ant8BOgExDr48xsBSQkyvUbOMGxfgIJw7O+VLBz9CpdOFZ6cBiVxdnWj5oOPEt1jCOVqNC7w+HVTP2fpD+/IWcISVJR8B20cgERE6VyBCarSmIe/2SzLeFZyAseW/UTM0kmkJ5yRNVdhwc2nGLX7fkDEI4N1lWtVkr3TR7B3xkipw39BZA47SjFEJEC1Dir/JaR2K6p0foGyjTthsVhxtYq8gKKUHGiz5XNo/QI2zR7LyT2aVDndYAXwOAVruDINkRtSYNoNHEnr/sOlDDUctvw8tswdx8pJI8hMS9J7OZoQEBJG424DadCpP14BQZLnsdvtfN+/MWcO/i11iniEloJqqL07FEPi5g9Qs5cs7wkAd/8S1Oz1LjUef4uzfy/m6KLxXNi9yvBtVaVgdXKmcofnqPPkh7eElgs7aRdPyxleUNm4qwhFsbHAve+eFCB+71ri967Fu0Q5wlv0JLz5Y+RWrENJTwvF3LRYgXqcPbyDfatms3fVbFISzmltfizwKiIPpCBIruczqkqhFKxOzjR5/CXqtn+C5ROG8/f8SXLD2obEYrVSuUEboh99nsgHOigi52yxWGjV7x1+eaOL1ClCEO2JVet8pnYEoCawT8pAZ3cves1NxMlF+bdf6rljxCyZyPGVv5BzrWh4tSF1HqTBoDG3TZIsCix7rTmXDm6UOrwvMEPi2GcQm4gWfcL/hW/pSoQ3f5zqDz5Gjeo1CtWVwIXj+9i3ajb7Vs3WqzY+jX/U4aTQDxE5KjAVolowaLxmanuaEh97gIWjhxK7c63eS1EED58A6nd8msbdBxNYVvnUrNzsTIa38peTVFkJx6+tCozar5RGiM56BSYgvCadJ6ibyJeXncGpdb9ydNF4rsRqXgerCD4hFaj/3JeERkv2MgsFvz8RSnqi5NNjE0DOXVIEomRMs54M/8W3VEUq1WtJZINWVKjXEp9iwXot5bakJsYTu3MtJ3auI3bnWr1PwTsQkt1yXpzNELkjBSYgpBzv/nlahmnjc3D9fBZ/+3qhED66HWUio4juMYTa7Xrh4qau7tqoRyO5HBcjdXg9HNdKKDBqOwCSv0Qlqj1Ah9GST3wF5vKRbRxdNI7TG34vFEmDLh4+1Oz1DlW7vaJKlMRI5OdmM6OjF3a75Lrw0sAFmctwQ4hZDcUAOuPB5atRsV5LIhq3p2K9Vqq/xP5LblYGx7av5ti2FcTuXKdk/bMcbMBXiMojubWEZRHVIwXGanXi002ZODm7yFyCscnLyWbjr2NYM+UTsjOM1aHzdji7ulOr9WNE9xhCaPXbC3Opwde9anDxxEGpw+sjKiNUQe0XWRQSF+8TUoHuvxxXeDn3JivlMseXTyZmyST+1955h0dVrH/8sykkISTU0ASkIyggVaqCCIgUG/Kzi2BBLBQL6sXeEAVERUCaiqAioBSRXkQ6oTfpPYRAei+7vz+GKCVtZ87ZczaZz/Psvc+97JTd7Dnznpn3/X4TI497fPz8cDh8qNX5cZo9+dE1teSFlbjT//Bb//qyzVMRGgBGJX10Q6g92sYvOaB4CG3/70U6PPoKQSHmyqEnx11k1Q8jWT97HOkpph1NynAWsW2/3KD+fIBkRODnNq/PPUzZKrUMmoq9ib8QwZ/j3iB80Q//WkzbiTKVa9D6/gG06NmP4FKedQZ2uVy81TFUJUBqDOwycEpXYHYAUAvZbTiHgz4/nqR4OalSXGWyjV0OLBjP2fClKk+fhlG+QRtaPjeGcnVbeHzs1LgoTq6fR9SBTSRFniAjNZHAkmGUrn4TlZveQcVGHXJ1wFPlzNbFLPuftMHKAUA6esiFUsAI4GlspE5WqkJVHvnwJ6o3NkdV+kj4ama+/QjxUaqbKYbiBMYjaqbdyfIvCAeRLAd9+qul1L2ls8HTEbicTg5vXcnBTcuIPLaPxJjzBAaHUrri9VRr2IqbbrvH4wsdCKvmeaMHc2K31KmvoTh8fKjXqqtI6mvdDYePNZfpqX1b+LJvS5UuKgDnDZrONZgdABRDZDBKVRs06/8JDfsMM3ZGEsSfPcw/CydyeOk00hKiPT5+cLkqNOv/CTU7PmzaIpsbyRfPsnPGhxxaMhVnZu6JLKHX1aFp3w+o3v4Bw+d4YOF4Nn4l7SX1J0JO1AzaIKw7bZN56VcskCdHzTd88TmwbhHfvXavpxXi8mMnQi1Ous4qHxYjJGjd5v43JtLq3mcMnYzL5WLH0p9YMuGtPM/e/YoF0KJnP+7o/5bHFQldLhfbF89g0devExd1xqNjAxQvWVYk9d03wBY7MLM/foZNv0+SbZ4ClCBn+XJD8MRqIu0DEBBShnsn7yOwVHmDpyRHVloKR1dfSho8ZFpexr/4BgRxU+9XaNjnNfwCPZuEnpWeyt65Y9j98ydkpBR8++r6dvfT7pWp+AcZp3K8dfIw9vz6mWzzcYhscLPwR7gKvoWnXBzzoVhQMIOnbyOsmiH2G0Qe3cvYJ1p4QqmvoCQj7MXHAJkmjjMeYUDjNh2feJ27njfO/yw1MY6f33uCvWvmFbhNQPEQOj35Ju0fGoJfMc/mCaWnJLHq+xGsmTHKI7+bqg1aiKS+Lg/iV8weIoJnDmzjy74tVcomNyES6U3DEzIjzZF018pKTyHqn83U7PCgLQRtfPz8KVu7CfXueobrWtyJMzOD+NP/4Moy/h5U/dYH6PTe71zf5h58/DwrEH9i3VxWvncvJ9bOyfOpPyfiTu4nctdfVL+tD77+xsz74KJJxJ6UViObhWQlSgFxIpzNpiP8yBti8bFAVmYGp/eH06JXP2VTGpfTyZTB3YmNtIWIVibCU6M34unc7HO5GxHy0G5Tsvx1NOrU25BJpCbG8e0Lnd0uvcvKSOfQlhXsWDKTUhWrUb660SdhuePrX4zazW+nabdHiIs6a4qaoF+xQJp2e5Teb35Ll6ffpXLdm22xToDIi5j0YhdV8aR5CFM50/BEAFASkK5RSzp/gojty6ncrDPFgj1ikVwggstV4fq291Cv+7MEhpYlPuKIIUZEZWo3ocObP3NT71c8/nljju1izScPs2fWSCV9hKSoUySeO0b19vcbMq/dv3xKSnSEbPOJCBlYs4lDXLCzEVUH1zqFeJC486epdtMtlKuqpmi876/5/PWTlDGekbiA3xAL/1SEeYwnqAw8INOwWFAwt9zztCGTmDH8YQ5vWSHdPiUhhp3LfuH4jr+pXK+JR0tIg0JK0fiOB6jdrCNnD+4g4eI55T7LVqlFp75v8tB702nS9SFKhlmTJ5YbZw5sY9KLXYmJOKHa1QeIPBTT8MQRQDlEhq5STYxvsUDqdR9A/bufJ6SS9Wc7V+NyOTmz5U/2z/+Gs1uXuJ00GFiqPE37fkCdO/t73KY3Ne4CO354h38WfYvLQJWvTu/No2qrnsr9zLy/rEpA0hTYrjwJ92mNKBuUdjBSpUabu+k36nclOeEpQ7pzYJ2pDyH5sRJ4AwMcRSVojtAUcJvg0mG8u0Q9d2vXil+Z/kYf5X6y8fH1o9W9z9D12fcpXtKzaqFOZxab501h8YThJMVEudXW4ePDDW3uok3vgdRr1dWypL68uHDqMKunj2TLgmk41XeFk4DyiOMu0/BURtkCDDI1cDh8qNy8Kzf0fI4qLe+ypad9QsQR/lk4kUNLp5EWfzHP9/oHhVCvxwAaPfQmxYJLemiGAmdmBgcWfMOOH983RRGxTO0m9BqnliuRnhjLzPvLqHRRGrDSI7otQor2Hjx8NOBfPJSH51zguhB/SkucxmSmp/FO57JWlPtlIZ74RwEbPT34ZZRFeJlI8eHqeAKKq+XCfP7gTUQe3avUR04EhZSmyzPv0qb3QI9vm6ckxLJi2kdsnDuRtOSEPN8bXKocLXv1p9V9z1Kmsq2cgQER1Oz/+w82zP6Gg5uX4XIadio1FWGJbCqeCgC6YcJZRomKNajX/RnqdO1PYEnPl73kR1Z6Kqc2LeTM1iVE7lpDavxFMpLjCQ6rSukaDanc9A5qd34C/+KhHp/bma1L2DxxKHEnzd0dv3vCziuc7twl+vB25j/fTLZ5DMKPwg7URogI9cWDssK9vz9CiYo1CAuE8m7aDF84dYhP7zcmkbCAJCJufGNR0OI3mFjEMabbDJ25k0q1G0kPbEAJWb5UqNGAXkPHUPcWzzuGpibFs3XhdxzesoKzh3YRd/40AcVDKFGmPDWb3Eq91ndSv+1dtknqu5ykmCg2z5/ChrkTjNjqz4mWSO4+uYOnAgAHsA3JZMD88C0WSPX2D3BDr4GE3eA5hSdvJP70QbZ8+wqnNi30yHi3PPcF9e95Sbr9iXVzWfW+dDJVOGIb106UQegH9MUDeQLdx27495qoUNxBOTeSwY9JkOYGAAAgAElEQVTvWs+4p8zRFLiKfQjd/cmIoM1ObEfyvtX3s9+58ba7pQdePf0z/vjqNen27tCgfU96Dh6lnDNS2DmxewPrfx3HrpWzyUw3TTF2EdDdrM4vx1N7Py7gdUTmruFkpadyZMV0jqyYTtk6zbihxwBqdHwIv4DiZgznlaQnxbFzxofsn/eV25n9KsSdktbABiAhQulB0I62bNHAp5detyCMih7CpJ2Ky//W55NdFPNxEFrAbByTa/4vIPwVfsBEqVMDOIZkAKDqh6CgH+82+9Yu4J+NS2j/4CA69RtOYLDndyXtSnpKEtuXzGTDnPGc+cf0dKIshKiVR/Dk4c8SxLnevWYOcvFQOOvGPM2WSa9Rp+uT1OsxgNDKxrs8eQsul5NDi6ey7bvhpMaaJiiVK+lJasfviZ61AfY0my69XkZE/A8BXQBT7r4u4Gyyi+IhDvysSZ2JQ9wHZiKeclT1+j2B9G9INQBIMaCqyB2yMtJZPf0zwv/4gTsHfkSLHk/aMtnOU0SdPMiGOePZuvA7UhI89rf4EjDXBe8yPF00+RxCPc30OpT0xBj2zhnNvt/GUqPDgzTvP8IyWWGriNyzlk3jBxN92IokeIGv4i5Mwjmlm6jdA4Bs0oC5l17FgPaIgKAHklK0uZHlhHMpLqoEe0xR8gCwELHg/413LPqXI/0bUnXKCwgqodReloToSH798CnWz/6Gu4eOpcbN7SyZh1XEnT/Nwi9fZefyWUYm9RWE/QhBMY/h6fAuEngcsc3hEVzOLI6unMG8AY05G77UU8NaStL5k6z+6EH+fKWDpYs/QFBpNc+cxKIRAFxOOrACUTlQ99LL0EzNuAxIM/8K3ItIfKwPvAqswvsWf7BwByA0rLJSe1XOHNjG+Gdv5cf/PUjsOVsIQZnOPxuXMOqhRuxY+rOnF/9EhM6FR0turNjfWQoM9PSgaQnRLH+7F2e2mpKGYAsy05LZ/sO7zH2qPsf/mgU2cOYKqaRQuuNyqToyemMAcDWHUChFyxEXXEgz/bcRBRwxexAPIP0YHxNxXMkdzw5lby6Xi53LfmFkn/osnfQuGammlqVbyoF1i5g2tKeqep8M6QjBKePlEvPBqgOeb4HXMM6itUA4M9NZ88nDtrT5VcLl4uiqmfzW7wZ2znifLPtothNSUf4mlhwdQVZ6qmxzJ3BcevBCTnw6OK2PD72B40jep9JTkkiMkc+7sUMAkE1GajLLJr3HyAduYPuSn2xp+6tC9NljzBj+EFmZHt+kSgcexaQE+fywMsPjM+AZzDXzuIb0xFi2THzFk0OayoWDW1k0tD1/jXiUpAunrZ7ONZRQCAAUKwDOIs7WNTngdEGiN27Ie54UQFq/VuUYwE4BQDaxkaeY+dbDfPNMe04fMN8QzVPMGzWI1CRPKUz/Szwi1+dXTw+cjdUpnpOBDsApTw56Yv1vxJ82VWLZdFJizrFuVH/+eKkV5/ett3o6OeLj50/xclWk2ydGFrnzf4+SlFm4nuJMRD4P4Iz8z7BUxWr4+HjCrsV9ju9cx5d9WzLrw/6G6Ptbybkje9j/t2d0US5jJ6IMeLmnB74cqwMAgHWIOttJmO/uJbi0Ze6NZGWksXvWp8x9sh6Hlk5z23PAkwSHVVWSGS2CCYC5YYodZIq5iYCe9Z81F4VEQPldLF8/f0pWkA+gzcbldLJl/lRG9q7H6ukjzdaNMI3tSz16pJGO0ABphaiQsRQ7BAAgxFGeQRioLMIDuQHndq81ewjDOblhHvOeaUj4lDfISMlbQ9sOqGz/AyQUbg2AglAcoZBnirxlhrkBQGuEdW+QqaN4BulVXGUHAOx5DHA1qUnx/PHVMD5/8Eb2/jXf6um4zdHw1Z4Yxoko822EEMWTTm4yErsEANlsRpyJNEXcPEzLZks4c8isrg0n9sRelr7ehZXv3kv82cOeHHoPCltUIRVrKg2umANgFy15WeoijHCeMGuALJfpkXZfxGfwqKGACVhWCljmOqVraCniGvYIF04d5rtX7mbSi11MMTAyi4unTS1WSUYcdd8E3A94Tt6xANgtAMhmB9APqIKoITb8L5SR6nGHM7dxuZzs+ulj5j/XhLPbPXpUdBF4AWiCQglaiYrVlSZRhI8AHkAYgci7KF3CPyh3NzrXv/+RMwHBak52l2iE+CzShg42wLoAQG0HIApxDb+AuKY9wsFNyxj9yM2s+n6EV1QLpJuzFhxCKHxWQXh/mOu6JoldA4BsooHPgeEYnNHtb5HKVkHJSkth+fDubPtuuBHe0gUlE/ga8cQ27tL/lr4DqZQAOjPTSb54Vro93hkAFEM44c3CIDng4PLV8vz3vG7PpSpUNWIKID7Lr8AYoIBOBLZC+rcUG3lK6fpVDABqIK7hcYhr+ms8VHXlzMpk0bg3mDq0h5mmOYbgb7xnTCpizRqN/cytrsDuAUAQwizkJwxOKgqxsz+Ay8Xfo/tzZusST466DJGM+SIi8MpG+g6kkgOQGHkCl1P6kDoNUQboTVQF1gDy1olXEViqPAEh8h5DwaXCKB5qqEfRYMRnNCyy8BCnkVQxdGZlEhspX+RkQACQTTTi2r4Zca17hAPrFvHrh/1tvRNQrprhDoiBwC+IY2z7eRlfhp0DgAoI+dDHzOi8YqNbzejWEPYvGMex1T97arjDwN0IE5qrD+5KAOVlO1bZAVDc/j+BpypKjKErwi67lZGdVr/1AaX2DoeDRneo9ZEDrRGf1fMG9PJkAdJauCqeAIoBQEWuTcLci/ju70Zc+6azbfEMNv420RNDSVG7WUezuu4LrEThHmo2dg0Ashd/U7KfcTio2eEhU7pWJTM1iV0zP/LEUPHAMOBGILfU3eqynfsHlSCwlPzvvoiYAPkC7yEqX8oZ2rPDQe3Ojyt307y7KTmI5YA/gXex7z3oaizJAwgpWxH/QOktage57+DNR1z7wxD3AlNZPvl9MmykUHo5N3d9CIfDNHOs1oggIMysAVSw48UXisg8r2/WANXb9ya0ij0Tkw8tnUZKTKSZQziBqUA9YCSiLjU3pFOQ1UsAldZwb6gACEPIf76NCddh7c5PUK5uC+V+rm/YmqZ3PmLAjK7BB3gH8R3Y8uZ4FfKlgAoBgMPhoEyl6tLtyfsILx1xD6iHuCeYtmsWfyGCrX98b1b3SlSo0YCbOpjqUn8j4tjFkKxaI7FbAOADzECUTJhCQGhZWjw7yqzulTkbburx3DqgJdCfgsmbWnL+D4W+AqAtsB24w4zOg8tVocUznxvWX6+hX5jpTNcZcSTQxqwBDEL6NxVjrRZAQRqfQ9wTWiLuEaZwcKN93Vh7Df2CoJDSZg7RGJiOzdZcW00GUTbRw6zOfQOC6Dh8FsEK8rSm4nIRuccUgaJTwEMIn3l3BLwtqQCAQhsAOBA2v6uA68wYILh8Nbp+tlIp+e+aPkuV47kJq42sCriaKsBqYAjiO7IjFmoBmB4AZBOOuEc8jAny7Ee3/2XbZMBSFary+Kez8Stmas7e3YjfuG2wUwDQAPjArM6DSlegy8eLqdjYtIQPZZKjI0hPjDW0S8QZ8w3Az7iv+yK/A1ChumxToFDmAJQEZgOjMKkUrkytm+n2+WpCTahwKVe1Ds9NXEPlOo0N7/sS/oiyqV8xqATSYLxVC8DdYzwXourqBsS9w7CD++S4i0ruiGZTu/ntPP3lYoJLm3oi9SHiu7UFdgoAxmCGfrjDQc3bH+HuibuocFN7w7s3EkXlu8txIRb8+ohEK1kTb+kcAJUdgIzkeNLilXRL7BYA3AxsBe4za4A6d/an+5h1yoFXXpSpXIMXpm6gRa9+po2BUEvbitgytRPSv6nEmPOkp8iLzSiqAcpeiMmIe8cNiJI2Qx7doxUqIjxBzaa38crPe2jS9WGzEgMDEYGuLbBLANAZE8qCytVtzl2j13LrsOkElrR/npGi+1024cCtiC1/6dKlS1SXbViikvxNS/HpP44rdQysph+wHjBFeMIvoDjtXp5K2yGT8A0wX3bfPyCIPsOn0OetqfibN14dYAPiu7MLUYCUAYfL5bLSFljVTOAk8CBwGyJXQwnV3RBPUKJ0eR7+YAYDv11LlfrNzRiiG3C7GR27i10CgNeM7CyodEXavjyF7l9upHwDu+cW/Yfiufd54ClEIs/fBkynPEIHQAqVJ9HEwuEBEIQQApmCSYY4oVXq0n3semp36WtG93nSoueTvDhtI+WqGi6ikk0Q4rubin0MhSw5BlAMAEKBsiodXGIt0AIhaxsl24k3BADZVG/clpembaLPW1MJKVvR6O5fNbpDGewQADQAOhnRka9/AA37DOO+af9Qp8uTOBx2+HgFR9H97hvEDdOoUh7pu05gqfJKUsuF4Pw/28inr1kDVG/fm55fbaZ0jUZmDZEvlWo3YtAPW2l4+/1mDvMkYjfAtEjDDSwJAAKDQyleUmkNN8pS0Ikwtpkg24GqO6Kncfj40KLnkwybc5COjw/Dr5hhp9RdEeWXlmKHFfL/MCDzt+otPbj729006/9JngYodsZmme8WVgAcV2lu9R2mN8L8xpSV2cfPn5YDxtBh+Cz8i1ufKxcYHMpjn/xKryFj8PUzTea/MSIvwNRIowAUlUTA/LDse7CKgOIh3PXCCF7+aQ/123Y3oksH4mjFUuwQACglRvn4+tFm0AQ6vT/flOxnT6KYBGj0leWtIkBW3WH8EYmspmWxB4dVpdvnq2lw7yAzupfG4XDQ/qHBDJiwmpLlTSuxtYOhkPzCp5j8ZnEewNVIfw8qssh2oFzV2vQbs5D7Xh+Pj6+fandWB7SWBwDlESpJcjgctHv1e+re9YxxM7IIG7rfye8AKCQAgu12QgpCtpHPYLMGuK55V3qOCyesfmuzhlCmeqM2DJm+jbq3mCbz70B8x6sR2gGexrIn37LWVALkhvSHiTt/mqxMKV8lW9H6vgH0eWuKajc3YUx+hjRWBwBtUNj+r3vnU9TsaE9Nf3exofudNRoALhcJatUQng4AuiCyo01ZmR0OH5o8/i53fPgHgSWNtQswg+DSYTw19k86P/0ODh/Tbi9tsMZQyBI5YLDdDsBp8pYQzxVVd0Q70eyux1W9MhwYbADmLlYHANKCCL7+ATR54n0j52Ipik+9xzFex7u6bEOVHICUmHNkyZuGuBDfhSfwQdRJ/4nRRj6XCCwZRueP/6TxI297VUKrw8eHLk+/y1Nj/zRTVCUM8d2/g+fuY8eRrIdPS04kKUY6eV5VDbC6SuMcUHJH9NY8gJzoNvBj1dwXS0WBrL6rSO9rVWnZnaDSFYyci6XY8Nxb+stVyQFQ/B4iMFC5LA+yjXxMW3zK39iWnt+EU7lpZzO69wh1b+nCkOnbqN7ItFLcy4MwTwh9JCHKbaWwsBTQDDvaIpcImBOhYZW5oU03lS5qGTUXGawOAKTdFyo0bGfkPCzHZpnvQchqADgcBIfJa8Z7wfl/9vazOSuzw8GN9w3hzpEr7etZ4QYly1dhwITVtH9osJmWq9nHMJ4Q/bBk4StVoZp0W4QMtXLG2lXoAOAS1RsrrUWmOhDlh9UBgHSxePGyprmTWULCOVtVAEjfLHz9A/BR2BKz4U5INg6EkcdqTEpAKxZcko5v/UqLZ0cpfYd2w9fPn15DxvDYJ78SGGxa6WK2odBgzDUUsiQD3q9YgEpOhQM7BQBeXglwNaHlKqk0DzZqHjIY/aNwF6lEEhDJJEbjzMrkwoFNxBzfQ3pSLL7+AZQofz3lb2xLYCkzdtH+w2ZPvtJpus7MDLLSU/GVdNWKP3NYdmgwLwAIRSjSmVa2U6ZmYzq89avXl7LmRcPb76dSnUb8MKw3EYd3mTFEdilmO4SMcLwJY0j/xi6clv9tpyUngpqTntGp97beAUiIjuTE7g3ERJwgMz2V4qFlqFi7IVUbtMDHx9fQsZzyydtg/N/FLawOAKQdMuJOHjBsEikx59jz6+ccXvodaQk5yMg7HFS6+XZu6v0K1zXvati4l2OzJ9+0Sy+3Za9czixiju2iXL2WUgNH7d8g1e4SZjxaNEbUn5umRFenaz9aPf+VR7T8raZc1Tq8OG0jv418ni0Lppk1zP0IIabegNGRhvRv7NTezdKDnj24Q8VKNwmRuGck8hURJqoB7l/3B2t+HMXRbatz/L6CS5WjefcnuO3RVwyT9408uk+lubxLlAFYfQRwWrbhib/nKg+elZ7Krp8+Yk7fOuydMzrnxR/A5SJi+wqW/a8bK9+/n/TEGOWxL8cA9zujFz4XClm+R1f9LNXu4uFtxJ85JDsswBGVxjlgqgytb0AQbV+eQtuhk4vE4p+Nf0AQfd6aSp/hU8w2FNqI+BsaifRvLPLoXs4d2SPVdvuSmbLDApxQaZwLSu6IacmJRs6F5LiLfPfK3Uwd0oMj4atyDZaSYi+wZsYoRtxXmxXTPiIzPVVpXJfLxZ7Vv6l0Ib0GGoHVAYD0whV7ch8n/p4jPfDxtbP57akGbPvuLTJTCx6EnVz3GwsHtSb5whnpsa9G8ek/FjA2IhFI71ceWjyZpPPuxw87flQq63QBu1U6uIwgxJa/aUY0odfVocfYDdTpYvT65D206NWPF6ZuMNtQaCrGGjLJreCIxWLZ5Pfcbhd99hjhi36QHRYUruU8uICkOyJATMRxwyYSe+4kY59owd6/5he4TXpKEovHD+ezPg3YvVJ+Hdm14lcunFJ6aDHjb1NgrA4Atqo03jjuJZIuuBdARR/dyeJXb2f1h31IjDwuNW786YMs+183twKHvFB0vzNrP22jbMOMlETWfvYEWW5E1wfmj+PUhoJfwDlwHBEMqZJtRWvaynx9u/vp+fUWS4187ELlOo2FoVBHJUXw/OiHcTs5FwDp6H/Xitlsnl9wBbmMtBR+evtR0lOU7jWbVBrngeWSwGnJiUx6qat0XkH02WP88HpvJjzXkbOHdrrVNvbcSX7/7EWpcS8jXLUDFawOAHagcAaSEh3Bktc6EX82/yAqNS6KDV8+x4Lnm3Nu12rZIf8l5vgewqe8odwP2O78PxslS+Fzu9aw4p27SY3LR/zE5WLv3DFs+kZZ336lageIs+OtiHN/wxFGPqPpaBMjH7sQGBzKYyNm03PwaE8YChkRaaxQaTzn42dZN+vrfN+XFBPF5Jfu5Piu9SrDAaxT7SAXLE8EXPjlK5w/rp4PdiR8NWMfa8acEQMKJNgUdfIgE57rSGKMtCwEiAcWo3YtpTA2HdJ9nEBThCWwFGkJ0RxaPAWXy0mpqjfgF3hlVUVqXBR754zirxGPcn7vOtVM2iuIPryNGh0fIiCkjFI/x1b9xIV/pBOEFgFLlSaQM6eBgUBx2Q4SIo5yZPmPOBxQsko9/AL+68rlzOLMlj9ZN+ZpDv45CUmBtcv5CNgv2dYf+BwYDciVL+RDcLkqdP7wD6q3fwDMq4d3m7BAhy2m43A4uL5ha2q36MTBjUtJSzIjgZ8AoA+iLn4l8uqZAYgEQylcLhcH1v/J0W1/ERpWmdKVrr+ixC/+QgQbf/uWH9/8P86fUF7cohClkUYrhQLcgqSUbfnr61Gv9Z1Kg0edPMivH/RXSY68ApfLxen94WyaN4mszAwq1LyRYoFX3v4SoiP568dR/PTOYyQqKDte4ndgtmonKtjg0qcP8IsRHfn4+VO6ekNhRuNwEH/mELHH95hSMphNwz7DaNb/E6U+lr/Vk9Ob/5Bt/gIwTmkCuTMJeMqQnhwOSl5Xl4CS5XBmpBN7cp9hRyiIHIjrkFMBrIL4/ZkmIlO5WRduHTadwJKeEKtzj/qlHPjY4S5wGUkxUcx8+xEOblpm5jDrEVbkMklYwQjvDUO2cQKDQylXrS7FAosTf+EsF88cxeU0bL2eCAwwqrOreAkYK9Pwxlt70ffzeUqDL/zyVdb8+LlSH3nh4+tHpdoNKVulNi6Xk+gzR4k4vNvI9eReRBBgGXa49AMQ57fG1GR4mNI1GnH3hB1Kffz+9E3EnpQuJbkLIYVqBk0QCmt2ZyxyTnydgRmYJCPrcPjQ+NG3aPzIW7bV8rdjAADgcjpZNuV9lk/5wMjF8GqigEcAmUjjG+A5Y6djCo0xvhQymx7AApmGlWo3ZOhMtWl9/n83EnlMqQTPSs4gpPCltXCMwA53pTTMe4I1HeUdBnu7323HmLN1M0kHvpBoNxgTNeQDS4bR+aNF3PzoO7Zd/O1MtqFQ/y8WEVzKNBfEbE+H1yTajgHM21o0huWYt/iDhTkAmempRhyPWMmXWLz4gz0CABBPcJFWT0IGl8tJWvwF6fYGuN+ZUeN7OW9gwAG9iUzGPQdAB/AV4gZuSg5M+QZthJFPM0+71RY+6rXqyuDp27i+oSluyyDugZ8ijrvc+T0cAkxTMjIAJ+LaNZPjKLgjqiTQJcVeMHNnyGwigPFWTwLsEwAkAMOtnoQsPr6Wad97wv1uM/CjyWPIch7hyOcOoxF5E8bjcNDg3sHc+dmqQmHkYxdKVajKcxPX0P5B5UqRvHgKoRfgzj1xOKCk4GUiP6BYZl0A1NwRFRQBvdwrYxgKGgpGYpcAAIRgx3KrJ+EuPr5++AeXlG5vMw+A3BiMQu2zibyAqMsuKC8jlyuQL/7FQ+k4fBYtB4z29puTLfH186fX0C/MNhR6AhjlxvvPY9LvSZHTCOMqT2DJMUDx0DKGa/p7iMXY6IHKTgGAE3EByu+nW0DxsKr4+MpbKthUA+BqooHHsNi44irGITT6C0pHYIQZEylTszE9v97C9e1M8wrSXKJRp9689P0WKtU2TURpMCIxsKD8iDiGsgsZiGvVCFGsgmBJAODr509o+euk21tEBGKNs82RqtVmQFdzFrgHkZXrFeLoIRVrKLVPPHdcpbknjbVXIZ64J3pwzNxYhXtPOCHAd5jwe6/T5UlavfC16Vr+6YkxnN22nOiju0iNi8LXrxjBYVUIa9CasBtaeXzXISsjnRO7N3Bi9wZiz5/GmZlBcKkwKtdtTJ2WnQkKKWXa2GHV6vLitI3M/XQgWxd+Z8YQExFlggW9vl4A6gHtzZiMmwxE2CJ7CgVTIDU1wDKVaxB7TtqyxNMkIUSolJSDjMZuAQAI1aqHgVkIgRZbU0IxAEhQkwH2tLH2t0BZ4GMPj3s564FeuLcb8RFQzchJ+AYE0er5r6jTtZ+R3V5D/JlD7JzxAcfW/IIzM+ePXLxsZW7oOZAb7xtieiCSkZrMmhmjWD/7GxIunsvxPb7+xbi584Pc0f8tylU1x97YPyCI/3t7GjVubsfvn71IhnwibU4EI5K0CqpUk4YoiVsGyNlgGsMwPL8bYVklQJnKNTi6bY1SHx4iHXgABXl1s7DTEcDl/A7cDSRbPZH8CKlYXam9l+QAXM4niKdvo+1FC8JixE3ZHSux2hgshBJ6XR26f7He3MXf5WLfb2OZ99zNHFnxY66LP0DyxbNs+244vz1zExcPmSctfnLPJkb2qc+SiW/nuviD2B0IX/QDox9uxN+/fGmYUltOtOzVnxemrDcj0OiK0NgoKPFAF+Q0BVTJAl4ERlowtqUBgBeQAHTHPK0WJewaAID4wm7D80+5bqGyA+DMzHDbzOgqrAgAQNTd98AcF8KccCFKRXvifvbs2xi4k3R92/vo+fUWytQ0xS4AgPSkOFZ98ACbJwxxq0Q08dwxFr18KxHblaTqc+SfDYsZP+A2t7ZcM9JSmDdqENNf701qYpzhc8qmct2bGfS9KYZC7+GeWFoc4mb/NZ47570IdLs0phVI34NiI08paah4QQBwCLgVGye32zkAAFHG0hSRaGObxInLUckBSIo6icsp/SCdjrWZ+YuBRoC0hnEBOY24wQ3GfeGVCgi5V2V8/Pxp8ewoOr71q6lGPtFHdrDwhRacWDdXqn1WWgor37uX+NMHDZtT5LF9fD/sfjLT06Ta7141l7FPNHfbbc0dAkuUvGQoNMpIQ6HmQDs322QgnsZ7IHKazGQB4hq0Ytchm1NICiJlZWYQd17+AcjGAYALUVLaFGF4Z1vsHgCAiKofQ2RxmyFLq3RXKlGxpnRbxQqAk1izDX85pxE3uvsBozU5ExFPYPWAJZJ99AWKqU4kuFwV7vxsFTfeN8RUI59DS6byx5C2BXK3zIuMlET+HtXPEOMrl8vFL+/1JSNV7TTuwqnDfN2vNVvmT1WeU244HA5ufXgoA8avomSYYRnisl4Yi4C6wAcoOJ7mwm5EsnQvzA8y8iMTEQRIoXIMUPY6+XvvJcyISDcBbRG/G3eOKi3BGwKAbNYAzRBPg0tQW/wyEU+ud+Beyc8V+AUUJ6hUeelJeOH5f27MRTyJ9EY8jahIdB0FXkck7b2LWh6ItGNbNpWb3EHPb8Ip38A0ryCy0lL4e1Q/1o1+SkUV8grO71vPKXmDqX/Zu+Z3Tu3bYsCMxJHArA/7M+uDfkYn7V1B9cZtGfLjduq0vMOI7u5B/ggpCXEEVQ2hyqdynOlEHIveA9wMqDnpGIv057qoUAkQUq4SfsWUzDsfRORtLEJN1jkTWAh0QrgjblCZlCfxpgAgm+xEsKqI8pu5FKy04jzCenEgwjmuB8LXW3ofqUTFGkpPhAkRSmu43XIjsoA5iAuqGvA0opLjCHkf38QhzsjeR2RQ10JIs6rmF1RCBIzS1Or0KHd8tMhUF7/40wdZOKg1h5d+Z3jfhxarP21vnjfFgJlcyZYF0/jqyVZcOHXI8L6zCS4dxlNfLqbVfc+qdhWKeKJTIRqhQVELaIH4rS8n71p9J3AQ+Anoh7hn3YVY+O2mgSufCKigBuhwOChTubp0e8S9fxkib6MKwtxpFqJePz/OIFxEnwMqI/KT7O6bcg12LAMsKBEIMZhsI6FyiC23skAJxEWSgnD8OkTuAkPSAYC6BkCh2QG4mjOIcqTskqRgxA2sHFAcUTYVjzhCMEtKtS0KbpflG7Sh7ctTlUSe8uP42tmsG+a4opUAABpoSURBVP0UGcnxpvQfsX0FLmcWDknFNGdWJofDVxk8K0HE4V2Mfbw5fd6aSsPbzRFQ8vHx5b5h40mJj2Hn8lkqXbXHuNr6rVwp0VsGsfgUR9y3EhH3qjOYL/NtFJZWApw/Lm0KdPkNPBKYcOkFUBqxnpRG6IiASEC+ABzGc0JLpuLNAcDVXEBORVBtB0ABL1EBNIIkxNOMcZlp+dNEtqHD4UPboZNNW/ydmRlsnfwa+36TslIvMBkpCSRGHiekUi2p9hdOHVY++8+L1KR4pr/xAO0eHET3F0cambz3Lw6Hg/vfmMChzctJjo+W7ca8kg+xOyA9MZvgraWAeSURxCDO8ws13ngEYDTXyzYsUfQ0ALyJG2QbVmnVg5JVpZvnSVLUKf58pYPpi382qXHyytoKC2aBcblcrP3pCyYM6KCUEZ4XQSGlueXeZ1S6MOfHUHjw1gDAUHEwb0QHAAp+8CGV5LNQM1ISSI2Lkm6P/XIA7IZ0Gni1Vj2NnMe/nNu5ioUvtiRqv+dyhJyZ8pbjWRmesys/vms9Yx5twj8bFpvSf4N2PVSay2f6Fg2kV/HE6EilXSbFAKCsSuPCgA4AFH4ExctWlh5U8ek/HvvakNoF6b9rmVo3GzkPXC4nO6a/y5JhnUmJiTS078JEUuwFpgzpztJJ7xru9V6xdkOV5qWNmkch5TySpY4ul0tpFyA0TP4ejMi/KNLoAEAhUczXP0B60CJ0/m8V0l6hxUoYd79PjYti2Zvd2PHj+7hcdkveth8up5Nlk95j8qBuJMUo7ZBdgZ/CtYpNRchshAurXAH9lWQ+ivz6V+S/ABQybVWe5uJOSWeugg4ACoL0apuWYMzmyvl961kwsBlnt1kp1OadHNy0lDGPNeXEbmOOS+KilEQz7WSDbVek70nnT/wjPWhenhQFwFuqLExDBwCiDl2KqP3y5k7n96yTbosOAAqCdPZb9BFF9U6Xi71zx7D41Y6qXg9Fmrjzpxn/7G2s/ekLZUMhxUDCVhauNkX6nnR8x9/Sg57crWSwZ55BhZegAwAhVCPFoaXfSWn5J188y5lwWXVbMbRK4yJCQcQ8cuTY6l+kB8028tky8eU8Hfw0BSMrM4P5Y4Yw/Y0HSE2S10vYuvA7lWnoKC5/pO9J+9cvknqSz8rMYIva31VNc7sQoAMAhdr0xHPHODB/XP5vvIrwKa+rLg67VBoXEaS9CSJ2rOS0hIxu9NGdLHyxpbSRjyZ3dq+cw9jHmxNx2P2f/v6/F3Jos5Ih226VxkWEPbINszLS+fObN91ut/anL1RLRz2pS2JLdACgqNu8dcrrRO5ZW+D3H1jwDUdW/KgyZAbmmFgUNpSMo/4e1d+tPI1DS6byx+A2xJ/RmzNmceHUIb56shVbFkwrcJvIY/v45f0nVYc2xgyhcLMDBX+WLQumsXHuxAK///DWlSyZ+JbscNl4jWa/WegAQKg9Sbs2ZaWnsvTNOzm87Ps83decmRls+244m8a9JDtUNhvwApcpG7AWhUTA1NjzLH61I2e25l2XnhZ/kbUjnzDUyEeTOxlpKcz6oB8/v/tEvkJF+/9eyPgBHUiKlRdDQmS4r1DpoIgQC2xW6WDuyIEsmfAWzqzcfXlcLheb5k1myuC7pO2pLxEHhKt0UBiQLpUqRDgRvs0NZDtwZWVycv08zoQvwwEEhJbFLyAYlzOL+LOHObJ8OmtHPs6pjQswoKLoa2C9aidFgCT+M42SIjM1iaOrZnJ+73p8iwXgXzwU/6ASZKYmEXN0J/vnfc3fo/sRdUApESk/ZiO8EyrJNK7T9UlKlM9d7DIs0JGrn1VMxHG2/vG9zLAgbq4bgfqyHeRFxKGdbJk/leS4aAKKhxAQHApAfNRZ9q/7g/mjB7Ni2sdGSBlvBz5T7aSIUAHhiCeHy8XR7X+xffEMXC4XQSGlCCgegsvpJDbyJDuX/8pvnw5k49wJOLOUndDnIq6tIo155ubeRQ9ggaE9OhyG+LFfRSZCvlI6wa2I8RLgGc1d48kAXkXM/y+EIY3bdBu1hgo35d60fikHPrncBY6Er2bCcx1lhgVhnnM7MBjh7mi80L9nGAqMsXoSXkJV4DjesbPcBeEEWKTxhj+UJ1gMnDC0R+MXf4Df0Yu/O3yPdx6XnAJuw3uDl2xciMWzA96ZSZ8EFDzhQHMKcD971vMcRh/rADoAyCYT+MTqSeSDC/jY6kl4GXHAJKsn4SZLEEdShSlBaT3iM3nbE9dEContqwf5yOoJFIAPUcgPKkzoAOA/pmHvutBfEOeRGvf4CO+4iTuBd4C7UBAxsjFRiJyM9/COm28M3rGY2Y1NiPN1u7IfmGH1JOyCDgD+Ix0YgD11v+OBl62ehJdyEVCuFzKZ7MXxfbxjcZTFCbwLdMP+Qc6bgPl+yIWTIUiaA5mME3gGseOrQQcAV7MCe24ZPw+ctXoSXsw4QEkJxkS8dXtchaXY+5hjCWL7XyPHSWCQ1ZPIga8Aed3hQogOAK5lEPYS/pgCKCkHaXABT2CvRDRvT5BTJTvR8QurJ3IVJ4C+2HMn0JuYAky3ehKXsR54zepJ2A0dAFxLKnAfopzFapYDz1k9iULCWaAnkGD1RBDJib0RJWZF2TAgA7Fd/ADimMtq4hElwUoWc5p/eRpRDmo1hxHXW7rVE7EbOgDImdMIQQsrn8xWAfdStBcIo9mBOH+20gVsJ9ACeydKeZrZQHOs9biIQdSGS2vaa64hDeiF0LGwimMIPQpdPp0DOgDInaNAW8Si4WnmAN3xzhp2u7MOEdxZkVMxFWiNdnPMiUNAK+A7C8Y+hVgkNlkwdmEnARF0/27B2FuAdoi/ryYHdACQNycRP6CZHhovA3gDsSWqheXNIxxoBqzx0HhxiByE/ui/a16kAE8izuA9dSSwHPFbsCLQLyokI45Vh+O5DPzvEDkmOnk6D3QAkD9JwCPA/Zh7NrgNaAmMQCcgeYJziKe+lzA3L+BPoBHwg4ljFDa+BxpjbmVEHCK/pguiDFNjLi6ErsItmBtsnUEcOzyJDrbzRQcABWcuUAdRU27kGfIRxNNhC/RTiKdxIkqD6gFfIhJAjWIrYnG5C7GTpHGP44jvrxvGCmAlA6OAusAEdLDtabYhdlyeRByzGkUMYve0Lkb7uhRidADgHokIGckqiAzXjcgJt6QhfqT3IX6wP0j2ozGGCET55/UIA569kv3EIkqf2iICuqJU228WixGaAbciFNxkg++diIqDasArwHlDZqeRwYnYoq+DuAcuQNwTZfpZB/RD3JNHIAI8TQHxs3oCXkoiMPnSqzzQFZHAVB+xoJcESlx6bxIQiShF2YXwqV+DtZnompw5D3x+6VUd6IzITm+EuMGUAwIvvTcGUSVyGPFUswHxt9WlRuaw9tKrGCIYaI14kqwFXAeUvvS+FITK4EnE9bYVEYjpRDD74QR+u/QqiTizb4e43moDYUDopffGXXodBPYhHr6WYX9FSVujAwB1ziOe+q4WvXCgtxe9meMIVUg7KkMWZdIRiXt2VXbUyBEHzL/00ngIfQRgHnrx12g0Go1t0QGARqPRaDRFEB0AaDQajUZTBNEBgEaj0Wg0RRAdAGg0Go1GUwTRAYBGo9FoNEUQHQBoNBqNRlME0QGARqPRaDRFEB0AaDT2phJQ1epJSFANqGj1JDQaTe7oAECjsS+3IqyLq1s8DxlqIvT377B6IhqNJmd0AKDR2A8HwtlsJWIHQL4jh/wl7vBRvj2UR9ghD1XtSKPRGI/2AtBo7EUZhDtkdyM6CyxVXrptidLybS/DD2G/Wwp424gONRqNMegdAI3GPrRAbPkbsvjjcBAcJp8+UKqCoakHw4E7jexQo9GooQMAjcYeDETY3VY3qsOytZrgWyww/zfmQrGgYCrVbmTUdBzAx0Z1ptFo1NEBgEZjLSWAmcA4IMDIjmt2ekS5j6bdHjVgJv/SBGhoZIcajUYeHQBoNNbRANgMPGR0x8VKlKZWJ/XFu1n3xwksUdKAGf3LLUZ2ptFo5NEBgEZjDY8Am4D6ZnTe4tnPCSwZptxPSJkKdH9xpAEz+pdSRnam0Wjk0QGARuNZAoDxwI+I7X/DqdXpUep07mtYf7fc8zRNuhi2SRFjVEcajUYNX6snoNEUIWog6uJ7mTVA7S59affylALX8IcFOnA48n6Pw+Hgxg73EHP2OBGHdqpO8T0gQrUTjUajjg4ANBrP0BOx+Ncyo3MfXz+aPvkhLZ4a6ZaAT0ECABCCQjfedg9+xQI4Gr4al8slM839iHJAjUZjA3QAoNGYiy/wDmLbv7gZAwSWDKPjO3OpfcfjFGg1v4yCBgAgdgJq3NyeWs06cHDjEtKSE92d6lPAP+420mg05qBzADQa86gErEAEAKZcaxUbdeDuiTup3MRzkvs1m9zKoB/Cqdn0tgK3ufXhoXy22dVp4laXv4lT02g0buDe44JGoykoHYCfMMsRz+GgYZ9hNHnifXx85RW965dy4CN5F3BmZbJs8vus+n4EWZkZOb7H18+frgM+oMNjr+EQWw1/+fnw4JDmDp0HoNFYjA4ANBpjcQDDgA8wyWujWInStH/te6re0kO5L5UAIJuoE/+wYc54DmxYTPSZowCUq1qHeq270qb385Stck3aQxQOHn61hWO52sgajUYFHQBoNMYRCkwF7jdrgLK1m9Jh+CxCKtU0pD8jAgBJsnDxYVJL3n/X4XBaMgONpoijAwCNxhiaAr8CxqzMOVCr02O0GTQB34Agw/q0MAAQOPjDN4PHh7ZxRFs4C42mSKIDAI1GnceBCYBxK/Nl+AYE0er5r6jTtZ/hfVseAAhO+jj5v5dbOTZaPRGNpiihqwA0GnmCgCnA95i0+JesUo8eX24yZfG3EdWcPqz+fLNrkNUT0WiKEtbH/hqNd1IPmA3cZNYANTs+TOtBE/APMkUxGLDNDsC/uGBGcDADnr/R4bbIgEajcQ8bXfoajdfwMDARk7T8ff0DaNZ/BA3uNf+B2G4BwCX+wUHvV1s49lg9EY2mMGO/S1+jsS8BwGhgoFkDlKhQnQ7DZ1GubnOzhrgCmwYA4CLRAc+8covjpxz+1R8hrXwbQmwpDSEz/Duwz3OT1Gi8Gzte+hqNHamOyPI3bWWueksP2r36HQEhZcwa4hpsGwBk42K6bxbPDm3jSLn0/9wDfAVUyaXF78CLwGlPTE+j8WbsfOlrNHahEzALMGVl9vH1o8kT79OwzzC3tfxVsX0AINjm5+CBIS0cvYFPC/D+88C9wHpzp6XReDemKJVpNIWIZ4BxmHStBJWuyG1vzqRiow5mdF9YaLp9xdzdFLzSojywElGeOcu0WWk0Xo4OADSa3Hkesd1syjNyxUa3cdsbMwkqU8mM7gsNWRnpzBs9yF0nxQBgBuBCHN1oNJqr0AGARpMzj2HW4m+QkU9RYf+6P4g7L3Wk74cIAuKApYZOSqMpBOi7j0ZzLU0RZX6GL/7+xUNp9/IUrm9nml1AoePotjUqzf2Bn4FbgEOGTEijKSToAECjuZIQYA4mKPuVq9ucDv/7hRIVaxjddaEmNvKUahelgV8QQUDOvsUaTRFESwFrNFcyAlHyZyg39HiObqPX6sVfAn9jzI+aAG8Y0ZFGU1jQOwAazX80AgYY2aFfYDBtBk2g5u2PGNltkaJiLcPUlv8H/AAcN6pDjcab0TsAGs1/fIyB10TJavXp8dUmvfgrUr9dDxzG6CMUA94zoiONpjCgAwCNRnAjcJdRndXs+DA9vtxEqWoNjOqyyFKx1k00aN/TqO4eAa43qjONxpvRAYBGIxiIAVn/vv4BtHrha259/UdTXfyKGve9PoGQshWN6MoXeNaIjjQab8f+IqAajfn4AhFAmEonwsjnF8rVbWHMrDyAl0gBAxB18iDfvtCZ2HMnVbs6A1RFiARpNEUWvQOg0UA7FBf/sPqt6fn1Fq9a/L2NsGp1eWHyOirUvFG1q+sQWg8aTZFGBwAajbCVlaZ0jUZ0HbGUgNCyRs1Hkwsly1dhwPiVlCyfmxlggelsxHw0Gm9GlwFqNNBStqGPrx+3vTEDv8BgI+dzBemJMRxZPp1TmxcRe3wPyRfP4usfQImKNShfvzXV2t1LlZZ34XB4Jp53OrM4sG4Ru1fN5eSejcREnAAguHSYSNhr14ObuzxEUEgpU8YvUbo8D38wg/HPKsVteqtGU+TxktM/jcZUjgJSCj21Oj1G+9e+N3g6AmdmBrtnfcqeWSPJSEnM870lq9Sj5XNjuK75nW6N4W4OwP6/FzJ/zFAunMpbVTcwOJSOT7xOh8deNc3vYMqQ7hxYt0i2+WGgjoHT0Wi8Dl+rJ6DRWIwvMBLJa6H5U58SWrm2sTMCEs8dY9n/unF05Qycmen5vj8t/iJHV80kIzmRyk3vKHDdfFigg4K81eV0smDMEOaNGkRyfHS+78/MSOPwlhX8s3EJdW/pYspugH9AEDuXS7v9BgEfGTgdjcbr0DkAmqJOKYRhjBQVbmpn4FQEpzYuYP7zzblwcKt7DV0u9s4ZxaavXzR8TnM+eZa1P491u92pvZv54rGm7F/3h+FzqtWsg0rzICDUmJloNN6JDgA0RZ0A2Yb+xUMNPft3ZmUSPvVNVrx7D+mJMdL9HFg4nkNLpho2r03zJrNp3mTp9snx0Uwb2pM/x/8PpzPLsHkVDy2Dr38xlS50DpSmSKMDAE1RxynbMCs9FVzGlJKnxJxj6eud2f3LCEP63DrpNaUg4t95JcTwx5evKffjcrlYOe1jvn2+MwnRkcr9AWRlZuDKUgoodA6UpkijAwBNUSdWtqEzM52Ec0eVJ3Bu12rmP9eUc7uUfO+vIC0hmoOLJin3s372eFIS1AOJbI6Er+KLR5twdPtfyn1dPH1YZUfBicLfXqMpDOgAQFPUSQXiZBufXD9PfmSXi92/jGDp611IiTkn308uHF39s3IfO5b+ZMBMriT+QgQTB3Zi9fSRuBR2O/auUfjuIQow7jxCo/FCdACg0cB+2YZ7Zo8iMzXJ7XbpiTGseOduwqe+iTMrU3b4PIk5uouMlATp9ikJsUQe3WvgjP7DmZXJH18N4/tX7yElwf0H8bTkRKmkxMs4oNJYoykM6ABAo4Fdsg1ToiNY/8Wzbp3bXzi4lfkDm3Fq00LZYQuEy+Uk6by8bn5MxHGlJ/SCsPev+Yx9vBlnDmwrcBuX08msD/qRcFFp12SnSmONpjCgAwCNBlapND66aibrvnhGJAXmhcvFgfnj+HNoexIjj6sMWWDSE+WPuVOT4g2cSe5cPHOUr59qy4Y54/MNODLSUvjl/b7sWvGr6rCrVTvQaLwdHQBoNLASxfPgQ4unsOD55hxb/TNZGWlX/JvLmcXZbctY9PKtbBz34jX/biYul3SRAy6nfFt3yUxPZe6nAxn/7G0c2rz8mrEz01PZvmQmYx5tQvii6arDpQMrVDvRaLwdXQer0cB5YCnQTaWT2JP7WPPJw/gFFKdsnaYUCylDRlIcsSf2kRoXZcxMCznHdqzl2xc6E1yqHBVqNCCwRElSEmI4vT+cjLQUo4b5A/DM9oZGY2N0AKDRCKagGABkk5mWTOSev43oqsiSFHvBkFLBXJhmVscajTehjwA0GsHvwD9WT0JjOvsQOwAaTZFHBwAajSAL+MDqSWhM510U1B81msKEDgA0mv+YiUgILDJkmVvlZzfWALOtnoRGYxd0AKDR/IcLeB5ItnoiniK16GjhJQHPIP7GGo0GHQBoNFdzABhg9SQ8RXJmkVkPnwYOWj0JjcZO6ABAo7mW6YCSzqyBuABpPd/8hICS8lAhzsxP2ChvErHP0/bngPGmBhqNl6MDAI0mZ4ZgfblYDHA3sEy2g8Rzx/L895RMSM/lGCA+6qzssCCEdu7Bese9SYC6n7FGUwjRAYBGkzMuxLbxNxaNHw40AxYgnOukOBOef+wQm57zg/qRbUr2xBeA+YjPUHChf2MZizjOsctOhEZjK3QAoNHkThYiKXAQkOGhMV2IoKMtkP34fkS2s7PhS4g/ezjP90SnXVsNkJIQw76182WHBThx6b+PIj7LBJXO3CQNGAgMRpf8aTS5ogMAjSZ/vgRuAfaYPM4Z4C5E0HG5YYC0W6EzK5Mt376Sp1thlksEAZez9Nt3pWx6L+Py7yoVeA7oDkSodFoAdgItgfEmj6PReD2+Vk9Ao/ESziHkgqOA5kCwgX0nAZ8CDyOU6q4mFngZyYA9/vQ/OHx8qdjotlzfk5IFJYs58HXAtj9/5M9xb8gMdTmvcq3e/iHEmbwLcTTgrzrIZUQCwxBb/mYHGRpNocBh9QQ0Gi+kBPA4Ypv5RoV+TgETEYvi+XzeuxGxCyFN/V4v0Kz/J/gF5hy7BJLB0TkjWDb5PVUnwH3k/71UQORYPAtUURhrNzAO+BERSGk0mgKiAwCNRo2GQE+gI+KptnQe700EdgB/IxLkNlHwM+o3gY/kpykIDqtKve7PUKVld0Kr1MWZkUZi5AnObl/OgQXj860aKCCfAq8X8L0+QCvEd9geaIwIsHIjGtgKrEJ8hzntmGg0mgKgAwCNxlgqX3qVuuz/SwROA2eRT0q7DpFY5w3Hdg2A/ZJtfRHfXxWuPGaJRhzDKNUmajQajUbjjfyGOD+382u1WR9eo9FoNJqiShPEDoLVi3xer06mfXqNRqPRaIowv2D9Ip/bS1qxUKPRaDQaTd5UREgEW73YX/1KBW4w8XNrNBqNRlPkeQLrF/yrX0NM/cQajUaj0WgAIUpk9aKf/ZqLrijSaDQajcYj+AN/Yv3iv4m86/Y1Go1Go9EYTAngL6xb/MOBsqZ/So1Go9FoNNcQhDX6AEuBEA98Po1Go9FoNLngQFgWp2P+wu8ExmKskY9Go9FoNBoFWiK25c1a/Hcj9Po1Go1Go9HYDF+gP3AY4xb+YwibXT8Pfg6NRqPRaDQS+AH3A78Dabi/6KcDC4A+6O1+jaZQomt3NZrCTwhi6749wqmvDlCe/8r3EoHziF2D/cBaRHVBvMdnqtFoPMb/A4wKqzhyEqnFAAAAAElFTkSuQmCC;" vertex="1" parent="1">
          <mxGeometry x="1188" y="1010" width="42" height="42" as="geometry" />
        </mxCell>
        <mxCell id="r_uU76btIgo6J_0ZWzdS-58" style="edgeStyle=orthogonalEdgeStyle;rounded=0;orthogonalLoop=1;jettySize=auto;html=1;strokeWidth=6;" edge="1" parent="1" source="r_uU76btIgo6J_0ZWzdS-56" target="r_uU76btIgo6J_0ZWzdS-43">
          <mxGeometry relative="1" as="geometry" />
        </mxCell>
        <mxCell id="r_uU76btIgo6J_0ZWzdS-56" value="&lt;span style=&quot;font-size: 28px;&quot;&gt;Evaluation&lt;/span&gt;" style="rounded=1;whiteSpace=wrap;html=1;strokeWidth=6;fillColor=#f5f5f5;fontColor=#333333;strokeColor=#666666;" vertex="1" parent="1">
          <mxGeometry x="1343" y="1010" width="200" height="120" as="geometry" />
        </mxCell>
        <mxCell id="r_uU76btIgo6J_0ZWzdS-60" value="" style="rounded=1;whiteSpace=wrap;html=1;strokeWidth=4;dashed=1;dashPattern=12 12;shadow=0;glass=0;strokeColor=#82b366;fillStyle=auto;fillColor=#d5e8d4;fillOpacity=0;" vertex="1" parent="1">
          <mxGeometry x="350" y="997.5" width="1220" height="145" as="geometry" />
        </mxCell>
        <mxCell id="r_uU76btIgo6J_0ZWzdS-61" value="&lt;span style=&quot;font-family: Helvetica; font-style: normal; font-variant-ligatures: normal; font-variant-caps: normal; font-weight: 400; letter-spacing: normal; orphans: 2; text-align: center; text-indent: 0px; text-transform: none; widows: 2; word-spacing: 0px; -webkit-text-stroke-width: 0px; white-space: normal; background-color: rgb(236, 236, 236); text-decoration-thickness: initial; text-decoration-style: initial; text-decoration-color: initial; float: none; display: inline !important;&quot;&gt;&lt;font style=&quot;font-size: 28px; color: rgb(102, 0, 0);&quot;&gt;\(\text{Pred}_{i}\)&lt;/font&gt;&lt;/span&gt;" style="text;whiteSpace=wrap;html=1;" vertex="1" parent="1">
          <mxGeometry x="1240" y="1020" width="90" height="50" as="geometry" />
        </mxCell>
        <mxCell id="r_uU76btIgo6J_0ZWzdS-63" style="edgeStyle=orthogonalEdgeStyle;rounded=0;orthogonalLoop=1;jettySize=auto;html=1;entryX=0.5;entryY=0;entryDx=0;entryDy=0;strokeWidth=6;" edge="1" parent="1" source="r_uU76btIgo6J_0ZWzdS-62" target="r_uU76btIgo6J_0ZWzdS-28">
          <mxGeometry relative="1" as="geometry">
            <mxPoint x="1130" y="970" as="targetPoint" />
          </mxGeometry>
        </mxCell>
        <mxCell id="r_uU76btIgo6J_0ZWzdS-62" value="&lt;font style=&quot;font-size: 28px;&quot;&gt;Training&lt;/font&gt;&lt;div&gt;&lt;font style=&quot;font-size: 28px;&quot;&gt;Dataset&lt;/font&gt;&lt;/div&gt;" style="shape=cylinder3;whiteSpace=wrap;html=1;boundedLbl=1;backgroundOutline=1;size=15;fillColor=#fff2cc;strokeColor=#d6b656;" vertex="1" parent="1">
          <mxGeometry x="1050" y="875" width="160" height="90" as="geometry" />
        </mxCell>
      </root>
    </mxGraphModel>
  </diagram>
</mxfile>
